{
.appVersion = "3087";
.formatVersion = 3;
date = "2018-01-02 13:38:51 +0000";
familyName = "OT Chekharda";
featurePrefixes = (
{
automatic = 1;
code = "languagesystem DFLT dflt;
";
name = Languagesystems;
}
);
features = (
{
automatic = 1;
code = "feature sups;
feature frac;
feature ordn;
feature salt;
feature ss01;
";
tag = aalt;
},
{
automatic = 1;
code = "sub one by onesuperior;
sub two by twosuperior;
sub three by threesuperior;
";
tag = sups;
},
{
automatic = 1;
code = "sub one slash four by onequarter;
sub one slash two by onehalf;
sub three slash four by threequarters;
";
tag = frac;
},
{
automatic = 1;
code = "sub [zero one two three four five six seven eight nine] [A a]' by ordfeminine;
sub [zero one two three four five six seven eight nine] [O o]' by ordmasculine;
sub N o period by numero;
";
tag = ordn;
},
{
automatic = 1;
code = "sub f i by fi;
sub f l by fl;
";
tag = liga;
},
{
automatic = 1;
code = "sub De-cy by De-cy.ss01;
sub El-cy by El-cy.ss01;
sub de-cy by de-cy.ss01;
";
tag = salt;
},
{
automatic = 1;
code = "sub De-cy by De-cy.ss01;
sub El-cy by El-cy.ss01;
sub de-cy by de-cy.ss01;
";
labels = (
{
language = dflt;
value = "";
}
);
tag = ss01;
}
);
fontMaster = (
{
guides = (
{
pos = (-36,-18);
},
{
pos = (55,775);
},
{
pos = (29,517);
},
{
pos = (50,723);
},
{
pos = (-30,-267);
},
{
pos = (29,517);
}
);
iconName = Bold;
id = "CF9497EE-3EC0-42B6-AB9D-60F0E4A560B4";
metricValues = (
{
pos = 750;
},
{
pos = 700;
},
{
pos = 500;
},
{
},
{
pos = -250;
},
{
pos = 6;
}
);
name = Bold;
userData = {
GSCornerRadius = 200;
};
}
);
glyphs = (
{
glyphname = A;
kernLeft = A;
kernRight = A;
lastChange = "2024-01-26 21:03:55 +0000";
layers = (
{
anchors = (
{
name = top;
pos = (399,742);
}
);
layerId = "CF9497EE-3EC0-42B6-AB9D-60F0E4A560B4";
name = "Bold Italic";
shapes = (
{
closed = 1;
nodes = (
(551,-18,o),
(678,8,o),
(730,34,c),
(685,258,o),
(590,551,o),
(509,724,c),
(429,712,o),
(326,684,o),
(255,649,c),
(337,477,o),
(440,157,o),
(487,-15,c)
);
},
{
closed = 1;
nodes = (
(269,103,o),
(363,113,o),
(466,113,cs),
(489,113,o),
(512,112,o),
(536,111,c),
(539,129,o),
(540,150,o),
(540,172,cs),
(540,195,o),
(539,219,o),
(534,242,c),
(465,249,o),
(386,253,o),
(311,253,cs),
(251,253,o),
(193,250,o),
(143,246,c),
(142,238,o),
(141,227,o),
(141,215,cs),
(141,173,o),
(149,114,o),
(165,97,c)
);
},
{
closed = 1;
nodes = (
(300,174,o),
(351,321,o),
(376,510,c),
(342,520,o),
(305,528,o),
(265,528,cs),
(256,528,o),
(247,528,o),
(238,527,c),
(171,350,o),
(111,258,o),
(-4,114,c),
(51,52,o),
(150,-1,o),
(206,-18,c)
);
}
);
width = 763;
}
);
metricLeft = x;
metricRight = x;
unicode = 65;
},
{
glyphname = AE;
kernLeft = A;
kernRight = E;
lastChange = "2024-01-26 21:03:55 +0000";
layers = (
{
layerId = "CF9497EE-3EC0-42B6-AB9D-60F0E4A560B4";
name = "Bold Italic";
shapes = (
{
closed = 1;
nodes = (
(299,169,o),
(397,355,o),
(422,544,c),
(380,556,o),
(386,677,o),
(336,672,c),
(269,495,o),
(110,253,o),
(-5,109,c),
(50,47,o),
(149,-6,o),
(205,-23,c)
);
},
{
closed = 1;
nodes = (
(288,103,o),
(382,113,o),
(485,113,cs),
(508,113,o),
(531,112,o),
(555,111,c),
(558,129,o),
(559,150,o),
(559,172,cs),
(559,195,o),
(558,219,o),
(553,242,c),
(484,249,o),
(405,253,o),
(330,253,cs),
(270,253,o),
(212,250,o),
(162,246,c),
(161,238,o),
(160,227,o),
(160,215,cs),
(160,173,o),
(168,114,o),
(184,97,c)
);
},
{
closed = 1;
nodes = (
(594,-3,o),
(697,1,o),
(804,1,cs),
(862,1,o),
(921,0,o),
(983,-2,c),
(986,27,o),
(991,65,o),
(991,102,cs),
(991,131,o),
(989,159,o),
(980,184,c),
(927,192,o),
(872,195,o),
(816,195,cs),
(696,195,o),
(575,181,o),
(478,168,c),
(476,157,o),
(476,145,o),
(476,130,cs),
(476,79,o),
(484,11,o),
(489,-14,c)
);
},
{
closed = 1;
nodes = (
(495,31,o),
(511,30,o),
(528,30,cs),
(593,30,o),
(678,44,o),
(721,60,c),
(701,288,o),
(644,524,o),
(587,706,c),
(556,709,o),
(521,711,o),
(485,711,cs),
(429,711,o),
(372,706,o),
(326,690,c),
(386,509,o),
(456,210,o),
(482,33,c)
);
},
{
closed = 1;
nodes = (
(706,259,o),
(746,263,o),
(787,263,cs),
(811,263,o),
(835,262,o),
(858,259,c),
(857,302,o),
(856,364,o),
(845,427,c),
(823,430,o),
(796,432,o),
(768,432,cs),
(725,432,o),
(679,428,o),
(647,421,c),
(644,379,o),
(658,277,o),
(667,250,c)
);
},
{
closed = 1;
nodes = (
(655,494,o),
(759,501,o),
(886,501,cs),
(918,501,o),
(951,501,o),
(986,500,c),
(989,529,o),
(994,567,o),
(994,604,cs),
(994,633,o),
(992,661,o),
(983,686,c),
(899,698,o),
(798,704,o),
(701,704,cs),
(610,704,o),
(522,699,o),
(451,691,c),
(443,642,o),
(505,520,o),
(527,481,c)
);
}
);
width = 1077;
}
);
unicode = 198;
},
{
glyphname = B;
lastChange = "2024-01-26 21:12:12 +0000";
layers = (
{
layerId = "CF9497EE-3EC0-42B6-AB9D-60F0E4A560B4";
name = "Bold Italic";
shapes = (
{
closed = 1;
nodes = (
(121,17,o),
(243,-17,o),
(354,-17,cs),
(534,-17,o),
(629,97,o),
(629,202,cs),
(629,295,o),
(557,381,o),
(406,381,cs),
(304,381,o),
(259,343,o),
(259,317,cs),
(259,303,o),
(271,293,o),
(294,293,cs),
(352,293,o),
(386,246,o),
(386,200,cs),
(386,155,o),
(354,111,o),
(282,111,cs),
(202,111,o),
(82,89,o),
(42,73,c)
);
},
{
closed = 1;
nodes = (
(287,238,o),
(302,423,o),
(346,647,c),
(313,680,o),
(163,694,o),
(104,693,c),
(66,527,o),
(42,306,o),
(42,116,cs),
(42,73,l),
(71,44,o),
(206,7,o),
(261,7,cs),
(268,7,o),
(274,8,o),
(278,9,c)
);
},
{
closed = 1;
nodes = (
(520,328,o),
(618,430,o),
(618,530,cs),
(618,628,o),
(526,724,o),
(358,724,cs),
(268,724,o),
(176,711,o),
(87,693,c),
(86,686,o),
(86,679,o),
(86,672,cs),
(86,624,o),
(102,566,o),
(119,531,c),
(176,546,o),
(285,562,o),
(333,562,cs),
(379,562,o),
(401,533,o),
(401,501,cs),
(401,464,o),
(371,424,o),
(313,424,cs),
(281,424,o),
(269,404,o),
(269,383,cs),
(269,357,o),
(286,328,o),
(305,328,cs)
);
}
);
width = 656;
}
);
metricLeft = n;
metricRight = o;
unicode = 66;
},
{
glyphname = C;
kernLeft = C;
kernRight = C;
lastChange = "2024-01-26 21:12:12 +0000";
layers = (
{
anchors = (
{
name = bottom;
pos = (328,0);
}
);
layerId = "CF9497EE-3EC0-42B6-AB9D-60F0E4A560B4";
name = "Bold Italic";
shapes = (
{
closed = 1;
nodes = (
(164,-19,o),
(327,-19,cs),
(423,-19,o),
(529,23,o),
(625,115,c),
(602,160,o),
(576,219,o),
(565,236,c),
(522,208,o),
(476,194,o),
(433,194,cs),
(351,194,o),
(284,245,o),
(284,340,cs),
(284,460,o),
(336,505,o),
(382,505,cs),
(418,505,o),
(450,477,o),
(450,438,cs),
(450,407,o),
(476,388,o),
(508,388,cs),
(552,388,o),
(606,426,o),
(606,517,cs),
(606,654,o),
(499,728,o),
(377,728,cs),
(216,728,o),
(31,600,o),
(31,319,cs),
(31,104,o)
);
}
);
width = 660;
}
);
metricLeft = o;
metricRight = o;
unicode = 67;
},
{
glyphname = D;
kernLeft = D;
kernRight = D;
lastChange = "2024-01-26 21:03:55 +0000";
layers = (
{
layerId = "CF9497EE-3EC0-42B6-AB9D-60F0E4A560B4";
name = "Bold Italic";
shapes = (
{
closed = 1;
nodes = (
(175,5,o),
(262,-15,o),
(336,-15,cs),
(570,-15,o),
(677,183,o),
(677,371,cs),
(677,604,o),
(532,724,o),
(322,724,cs),
(250,724,o),
(170,710,o),
(85,681,c),
(85,612,o),
(118,523,o),
(137,483,c),
(209,523,o),
(276,545,o),
(330,545,cs),
(405,545,o),
(454,503,o),
(454,408,cs),
(454,394,o),
(453,378,o),
(451,361,cs),
(437,260,o),
(378,157,o),
(298,157,cs),
(227,157,o),
(43,66,o),
(75,51,cs)
);
},
{
closed = 1;
nodes = (
(298,178,o),
(313,318,o),
(339,490,c),
(293,515,o),
(159,550,o),
(101,549,c),
(70,385,o),
(55,257,o),
(54,64,c),
(85,35,o),
(221,-2,o),
(276,-2,cs),
(282,-2,o),
(287,-1,o),
(291,0,c)
);
}
);
width = 707;
}
);
unicode = 68;
},
{
glyphname = Eth;
kernLeft = D;
kernRight = D;
lastChange = "2024-01-26 21:03:55 +0000";
layers = (
{
layerId = "CF9497EE-3EC0-42B6-AB9D-60F0E4A560B4";
name = "Bold Italic";
shapes = (
{
closed = 1;
nodes = (
(168,285,o),
(273,295,o),
(381,295,cs),
(397,295,o),
(412,294,o),
(428,294,c),
(433,319,o),
(436,345,o),
(436,371,cs),
(436,386,o),
(435,400,o),
(433,415,c),
(368,422,o),
(301,426,o),
(235,426,cs),
(176,426,o),
(117,423,o),
(58,418,c),
(54,394,o),
(52,371,o),
(52,347,cs),
(52,322,o),
(54,296,o),
(59,267,c)
);
},
{
pos = (51,0);
ref = D;
}
);
width = 758;
}
);
unicode = 208;
},
{
glyphname = E;
kernLeft = E;
kernRight = E;
lastChange = "2024-01-26 21:12:12 +0000";
layers = (
{
anchors = (
{
name = top;
pos = (350,723);
}
);
layerId = "CF9497EE-3EC0-42B6-AB9D-60F0E4A560B4";
name = "Bold Italic";
shapes = (
{
closed = 1;
nodes = (
(307,46,o),
(307,79,o),
(307,113,cs),
(307,283,o),
(316,452,o),
(335,588,c),
(302,621,o),
(150,707,o),
(92,706,c),
(59,514,o),
(52,291,o),
(52,108,cs),
(52,63,o),
(52,21,o),
(53,-18,c),
(92,-7,o),
(270,3,o),
(308,13,c)
);
},
{
closed = 1;
nodes = (
(154,-7,o),
(265,-3,o),
(378,-3,cs),
(444,-3,o),
(511,-5,o),
(577,-7,c),
(580,19,o),
(582,49,o),
(582,81,cs),
(582,113,o),
(580,147,o),
(574,179,c),
(396,179,o),
(205,158,o),
(62,139,c),
(65,127,o),
(66,115,o),
(66,104,cs),
(66,64,o),
(53,27,o),
(53,-18,c)
);
},
{
closed = 1;
nodes = (
(365,270,o),
(405,274,o),
(446,274,cs),
(469,274,o),
(493,273,o),
(517,270,c),
(519,313,o),
(516,375,o),
(504,438,c),
(482,441,o),
(455,443,o),
(427,443,cs),
(384,443,o),
(338,439,o),
(306,432,c),
(303,390,o),
(317,288,o),
(326,261,c)
);
},
{
closed = 1;
nodes = (
(159,530,o),
(223,532,o),
(289,532,cs),
(392,532,o),
(498,527,o),
(606,524,c),
(609,547,o),
(610,574,o),
(610,601,cs),
(610,635,o),
(608,670,o),
(603,701,c),
(517,714,o),
(418,720,o),
(324,720,cs),
(240,720,o),
(159,715,o),
(92,706,c),
(97,657,o),
(97,569,o),
(97,524,c)
);
}
);
width = 644;
}
);
metricLeft = n;
metricRight = n;
unicode = 69;
},
{
glyphname = F;
lastChange = "2024-01-26 21:03:55 +0000";
layers = (
{
layerId = "CF9497EE-3EC0-42B6-AB9D-60F0E4A560B4";
name = "Bold Italic";
shapes = (
{
closed = 1;
nodes = (
(321,17,o),
(320,52,o),
(320,87,cs),
(320,229,o),
(331,362,o),
(347,463,c),
(315,496,o),
(192,529,o),
(109,532,c),
(90,408,o),
(84,296,o),
(84,151,cs),
(84,118,o),
(84,83,o),
(85,46,c),
(114,17,o),
(249,-20,o),
(305,-20,cs),
(312,-20,o),
(318,-19,o),
(322,-18,c)
);
},
{
closed = 1;
nodes = (
(255,220,o),
(344,234,o),
(440,234,cs),
(464,234,o),
(489,233,o),
(514,231,c),
(517,253,o),
(518,278,o),
(518,306,cs),
(518,333,o),
(517,362,o),
(512,390,c),
(444,398,o),
(370,402,o),
(299,402,cs),
(240,402,o),
(182,399,o),
(131,394,c),
(130,385,o),
(129,372,o),
(129,358,cs),
(129,307,o),
(137,235,o),
(153,214,c)
);
},
{
closed = 1;
nodes = (
(243,511,o),
(362,519,o),
(493,519,cs),
(529,519,o),
(565,518,o),
(602,517,c),
(606,545,o),
(611,582,o),
(611,619,cs),
(611,648,o),
(608,678,o),
(599,703,c),
(513,715,o),
(414,721,o),
(319,721,cs),
(235,721,o),
(155,716,o),
(88,708,c),
(86,697,o),
(85,682,o),
(85,665,cs),
(85,605,o),
(96,522,o),
(117,498,c)
);
}
);
width = 615;
}
);
unicode = 70;
},
{
glyphname = G;
lastChange = "2024-01-26 21:12:12 +0000";
layers = (
{
layerId = "CF9497EE-3EC0-42B6-AB9D-60F0E4A560B4";
name = "Bold Italic";
shapes = (
{
closed = 1;
nodes = (
(594,258,o),
(575,263,o),
(554,263,cs),
(535,263,o),
(516,259,o),
(503,259,cs),
(495,259,o),
(490,260,o),
(488,264,c),
(475,204,o),
(430,172,o),
(384,172,cs),
(331,172,o),
(279,215,o),
(279,307,cs),
(279,449,o),
(343,516,o),
(392,516,cs),
(422,516,o),
(446,491,o),
(446,443,cs),
(446,408,o),
(467,392,o),
(494,392,cs),
(541,392,o),
(604,440,o),
(604,520,cs),
(604,637,o),
(503,704,o),
(385,704,cs),
(222,704,o),
(26,575,o),
(26,271,cs),
(26,77,o),
(170,-17,o),
(315,-17,cs),
(453,-17,o),
(592,70,o),
(603,240,c)
);
},
{
closed = 1;
nodes = (
(651,242,o),
(653,264,o),
(653,289,cs),
(653,308,o),
(652,329,o),
(650,350,c),
(577,359,o),
(520,364,o),
(458,364,cs),
(430,364,o),
(402,363,o),
(371,361,c),
(369,351,o),
(368,340,o),
(368,327,cs),
(368,289,o),
(376,242,o),
(388,215,c),
(452,222,o),
(506,225,o),
(561,225,cs),
(589,225,o),
(618,224,o),
(648,223,c)
);
}
);
width = 672;
}
);
metricLeft = o;
metricRight = o;
unicode = 71;
},
{
glyphname = H;
lastChange = "2024-01-26 21:04:00 +0000";
layers = (
{
layerId = "CF9497EE-3EC0-42B6-AB9D-60F0E4A560B4";
name = "Bold Italic";
shapes = (
{
closed = 1;
nodes = (
(284,211,o),
(298,442,o),
(344,663,c),
(311,696,o),
(163,723,o),
(105,722,c),
(65,549,o),
(39,275,o),
(39,77,cs),
(39,46,l),
(98,14,o),
(202,-12,o),
(276,-18,c)
);
},
{
closed = 1;
nodes = (
(359,246,o),
(419,252,o),
(459,252,cs),
(468,252,o),
(477,252,o),
(483,251,c),
(483,279,o),
(485,309,o),
(485,340,cs),
(485,375,o),
(483,409,o),
(471,440,c),
(442,444,o),
(361,452,o),
(305,452,cs),
(294,452,o),
(284,452,o),
(276,451,c),
(284,386,o),
(297,280,o),
(321,238,c)
);
},
{
closed = 1;
nodes = (
(681,212,o),
(696,445,o),
(740,669,c),
(707,702,o),
(560,729,o),
(502,727,c),
(462,557,o),
(436,278,o),
(436,79,cs),
(436,48,l),
(486,16,o),
(609,-19,o),
(673,-17,c)
);
}
);
width = 741;
}
);
metricLeft = n;
metricRight = n;
unicode = 72;
},
{
glyphname = I;
kernLeft = I;
kernRight = I;
lastChange = "2024-01-26 21:12:12 +0000";
layers = (
{
anchors = (
{
name = top;
pos = (228,736);
}
);
layerId = "CF9497EE-3EC0-42B6-AB9D-60F0E4A560B4";
name = "Bold Italic";
shapes = (
{
closed = 1;
nodes = (
(283,210,o),
(298,439,o),
(343,663,c),
(310,696,o),
(162,723,o),
(104,722,c),
(65,552,o),
(38,275,o),
(38,76,cs),
(38,46,l),
(68,17,o),
(203,-20,o),
(258,-20,cs),
(265,-20,o),
(271,-19,o),
(275,-18,c)
);
}
);
width = 343;
}
);
metricLeft = n;
metricRight = n;
unicode = 73;
},
{
glyphname = J;
lastChange = "2024-01-26 21:03:55 +0000";
layers = (
{
layerId = "CF9497EE-3EC0-42B6-AB9D-60F0E4A560B4";
name = "Bold Italic";
shapes = (
{
closed = 1;
nodes = (
(365,510,o),
(349,305,o),
(320,129,cs),
(315,101,o),
(298,88,o),
(282,88,cs),
(264,88,o),
(246,104,o),
(246,132,cs),
(246,193,o),
(211,252,o),
(156,252,cs),
(96,252,o),
(30,214,o),
(30,149,cs),
(30,40,o),
(141,-19,o),
(262,-19,cs),
(396,-19,o),
(541,53,o),
(563,209,cs),
(581,337,o),
(598,492,o),
(614,666,c),
(582,698,o),
(434,730,o),
(376,728,c)
);
}
);
width = 612;
}
);
unicode = 74;
},
{
glyphname = K;
lastChange = "2024-01-26 21:03:55 +0000";
layers = (
{
layerId = "CF9497EE-3EC0-42B6-AB9D-60F0E4A560B4";
name = "Bold Italic";
shapes = (
{
closed = 1;
nodes = (
(561,-4,o),
(653,71,o),
(690,111,c),
(649,170,o),
(577,279,o),
(515,326,c),
(581,387,o),
(657,519,o),
(702,606,c),
(664,649,o),
(573,701,o),
(513,719,c),
(456,617,o),
(357,446,o),
(267,343,c),
(350,264,o),
(449,88,o),
(496,-22,c)
);
},
{
closed = 1;
nodes = (
(292,186,o),
(328,472,o),
(360,657,c),
(326,692,o),
(168,721,o),
(107,719,c),
(70,575,o),
(40,300,o),
(40,110,cs),
(40,90,o),
(40,71,o),
(41,54,c),
(100,1,o),
(231,-15,o),
(293,-15,c)
);
}
);
width = 745;
}
);
unicode = 75;
},
{
glyphname = L;
kernLeft = L;
kernRight = L;
lastChange = "2024-01-26 21:03:55 +0000";
layers = (
{
layerId = "CF9497EE-3EC0-42B6-AB9D-60F0E4A560B4";
name = "Bold Italic";
shapes = (
{
closed = 1;
nodes = (
(289,298,o),
(323,529,o),
(355,663,c),
(306,696,o),
(175,723,o),
(117,722,c),
(78,552,o),
(49,371,o),
(49,237,c),
(79,208,o),
(214,171,o),
(269,171,cs),
(276,171,o),
(282,172,o),
(286,173,c)
);
},
{
closed = 1;
nodes = (
(189,-8,o),
(309,0,o),
(440,0,cs),
(476,0,o),
(512,-1,o),
(549,-2,c),
(552,26,o),
(557,62,o),
(557,99,cs),
(557,128,o),
(554,158,o),
(545,184,c),
(459,196,o),
(360,202,o),
(266,202,cs),
(182,202,o),
(101,197,o),
(34,189,c),
(32,178,o),
(32,164,o),
(32,147,cs),
(32,88,o),
(42,3,o),
(63,-21,c)
);
}
);
width = 616;
}
);
unicode = 76;
},
{
glyphname = Lslash;
kernLeft = L;
kernRight = L;
lastChange = "2024-01-26 21:03:55 +0000";
layers = (
{
layerId = "CF9497EE-3EC0-42B6-AB9D-60F0E4A560B4";
name = "Bold Italic";
shapes = (
{
closed = 1;
nodes = (
(224,300,o),
(354,337,o),
(489,387,c),
(490,400,o),
(491,413,o),
(491,426,cs),
(491,456,o),
(487,487,o),
(477,515,c),
(331,500,o),
(196,472,o),
(59,428,c),
(55,375,o),
(67,321,o),
(84,270,c)
);
},
{
pos = (69,0);
ref = L;
}
);
width = 685;
}
);
unicode = 321;
},
{
glyphname = M;
lastChange = "2024-01-26 21:04:00 +0000";
layers = (
{
layerId = "CF9497EE-3EC0-42B6-AB9D-60F0E4A560B4";
name = "Bold Italic";
shapes = (
{
closed = 1;
nodes = (
(572,304,o),
(627,430,o),
(672,523,cs),
(693,565,o),
(700,599,o),
(700,626,cs),
(700,690,o),
(655,713,o),
(643,722,c),
(566,584,o),
(501,490,o),
(455,330,c),
(407,429,o),
(377,530,o),
(343,663,c),
(313,626,o),
(276,541,o),
(276,480,cs),
(276,474,o),
(276,468,o),
(277,463,cs),
(291,358,o),
(312,293,o),
(363,188,c),
(382,168,o),
(469,151,o),
(524,148,c)
);
},
{
closed = 1;
nodes = (
(284,212,o),
(299,439,o),
(343,663,c),
(310,696,o),
(163,723,o),
(105,722,c),
(65,549,o),
(39,277,o),
(39,79,cs),
(39,48,l),
(68,19,o),
(203,-18,o),
(259,-18,cs),
(266,-18,o),
(272,-17,o),
(276,-16,c)
);
},
{
closed = 1;
nodes = (
(822,213,o),
(837,440,o),
(882,664,c),
(849,697,o),
(701,724,o),
(643,722,c),
(604,552,o),
(577,278,o),
(577,79,cs),
(577,49,l),
(608,20,o),
(744,-17,o),
(799,-17,cs),
(805,-17,o),
(810,-17,o),
(814,-16,c)
);
}
);
width = 882;
}
);
metricLeft = n;
metricRight = n;
unicode = 77;
},
{
glyphname = N;
kernLeft = N;
kernRight = N;
lastChange = "2024-01-26 21:04:00 +0000";
layers = (
{
anchors = (
{
name = top;
pos = (402,723);
}
);
layerId = "CF9497EE-3EC0-42B6-AB9D-60F0E4A560B4";
name = "Bold Italic";
shapes = (
{
closed = 1;
nodes = (
(284,209,o),
(299,440,o),
(344,664,c),
(311,697,o),
(163,724,o),
(105,723,c),
(65,550,o),
(39,275,o),
(39,76,cs),
(39,45,l),
(69,16,o),
(204,-21,o),
(259,-21,cs),
(266,-21,o),
(272,-20,o),
(276,-19,c)
);
},
{
closed = 1;
nodes = (
(457,79,o),
(473,137,o),
(473,195,cs),
(473,220,o),
(470,245,o),
(463,268,cs),
(430,377,o),
(378,532,o),
(344,664,c),
(316,630,o),
(293,583,o),
(293,521,cs),
(293,508,o),
(294,495,o),
(296,481,cs),
(319,326,o),
(363,216,o),
(437,46,c)
);
},
{
closed = 1;
nodes = (
(682,210,o),
(697,441,o),
(741,665,c),
(708,698,o),
(561,725,o),
(503,723,c),
(463,553,o),
(437,276,o),
(437,77,cs),
(437,46,l),
(467,17,o),
(604,-20,o),
(659,-20,cs),
(665,-20,o),
(670,-20,o),
(674,-19,c)
);
}
);
width = 742;
}
);
metricLeft = n;
metricRight = n;
unicode = 78;
},
{
glyphname = O;
kernLeft = O;
kernRight = O;
lastChange = "2024-01-26 21:12:12 +0000";
layers = (
{
anchors = (
{
name = top;
pos = (404,750);
}
);
layerId = "CF9497EE-3EC0-42B6-AB9D-60F0E4A560B4";
name = "Bold Italic";
shapes = (
{
closed = 1;
nodes = (
(529,-18,o),
(689,172,o),
(689,393,cs),
(689,611,o),
(592,723,o),
(404,723,cs),
(149,723,o),
(28,530,o),
(28,287,cs),
(28,120,o),
(136,-18,o),
(339,-18,cs)
);
},
{
closed = 1;
nodes = (
(323,215,o),
(297,253,o),
(297,315,cs),
(297,421,o),
(333,508,o),
(394,508,cs),
(441,508,o),
(467,451,o),
(467,394,cs),
(467,304,o),
(427,215,o),
(368,215,cs)
);
}
);
width = 697;
}
);
metricLeft = o;
metricRight = o;
unicode = 79;
},
{
glyphname = Oslash;
kernLeft = O;
kernRight = O;
lastChange = "2024-01-26 20:54:05 +0000";
layers = (
{
anchors = (
{
name = top;
pos = (424,750);
}
);
layerId = "CF9497EE-3EC0-42B6-AB9D-60F0E4A560B4";
name = "Bold Italic";
shapes = (
{
closed = 1;
nodes = (
(169,723,o),
(48,530,o),
(48,287,cs),
(48,120,o),
(156,-18,o),
(359,-18,cs),
(549,-18,o),
(709,172,o),
(709,393,cs),
(709,611,o),
(612,723,o),
(424,723,cs)
);
},
{
closed = 1;
nodes = (
(283,113,o),
(239,175,o),
(239,278,cs),
(239,455,o),
(298,598,o),
(399,598,cs),
(475,598,o),
(519,506,o),
(520,413,cs),
(522,233,o),
(471,113,o),
(357,113,cs)
);
},
{
pos = (152,54);
ref = slash;
}
);
width = 736;
}
);
unicode = 216;
},
{
glyphname = P;
lastChange = "2024-01-26 21:12:12 +0000";
layers = (
{
layerId = "CF9497EE-3EC0-42B6-AB9D-60F0E4A560B4";
name = "Bold Italic";
shapes = (
{
closed = 1;
nodes = (
(502,221,o),
(611,366,o),
(611,502,cs),
(611,617,o),
(532,725,o),
(381,725,cs),
(262,725,o),
(152,710,o),
(86,690,c),
(86,640,o),
(105,545,o),
(125,494,c),
(182,528,o),
(242,546,o),
(303,546,cs),
(365,546,o),
(394,503,o),
(394,458,cs),
(394,411,o),
(360,361,o),
(297,361,cs),
(258,361,o),
(243,324,o),
(243,289,cs),
(243,259,o),
(254,232,o),
(270,231,cs)
);
},
{
closed = 1;
nodes = (
(282,19,ls),
(282,159,o),
(295,382,o),
(316,498,c),
(283,531,o),
(138,558,o),
(80,557,c),
(52,386,o),
(45,201,o),
(45,44,c),
(75,15,o),
(188,-22,o),
(258,-22,cs),
(267,-22,o),
(275,-21,o),
(282,-20,c)
);
}
);
width = 607;
}
);
metricLeft = n;
metricRight = o;
unicode = 80;
},
{
glyphname = Thorn;
lastChange = "2024-01-26 21:03:55 +0000";
layers = (
{
layerId = "CF9497EE-3EC0-42B6-AB9D-60F0E4A560B4";
name = "Bold Italic";
shapes = (
{
closed = 1;
nodes = (
(492,98,o),
(601,243,o),
(601,379,cs),
(601,494,o),
(522,602,o),
(371,602,cs),
(252,602,o),
(142,587,o),
(76,567,c),
(76,517,o),
(77,453,o),
(97,402,c),
(124,409,o),
(166,412,o),
(208,412,cs),
(264,412,o),
(319,408,o),
(340,406,cs),
(375,402,o),
(392,372,o),
(392,339,cs),
(392,292,o),
(358,238,o),
(287,238,cs),
(248,238,o),
(233,201,o),
(233,166,cs),
(233,136,o),
(244,109,o),
(260,108,cs)
);
},
{
closed = 1;
nodes = (
(280,116,o),
(306,537,o),
(329,664,c),
(296,697,o),
(151,724,o),
(93,723,c),
(65,552,o),
(46,203,o),
(46,46,c),
(80,14,o),
(225,-18,o),
(283,-18,c)
);
}
);
width = 629;
}
);
unicode = 222;
},
{
glyphname = Q;
lastChange = "2018-01-05 19:17:19 +0000";
layers = (
{
layerId = "CF9497EE-3EC0-42B6-AB9D-60F0E4A560B4";
name = "Bold Italic";
shapes = (
{
closed = 1;
nodes = (
(597,-31,o),
(679,41,o),
(704,80,c),
(597,167,o),
(519,239,o),
(448,336,c),
(412,315,o),
(399,304,o),
(369,278,c),
(417,165,o),
(486,46,o),
(561,-47,c)
);
},
{
ref = O;
}
);
width = 762;
}
);
unicode = 81;
},
{
glyphname = R;
lastChange = "2024-01-26 21:04:00 +0000";
layers = (
{
layerId = "CF9497EE-3EC0-42B6-AB9D-60F0E4A560B4";
name = "Bold Italic";
shapes = (
{
closed = 1;
nodes = (
(499,222,o),
(624,353,o),
(624,483,cs),
(624,632,o),
(511,725,o),
(328,725,cs),
(256,725,o),
(175,711,o),
(85,681,c),
(85,622,o),
(104,534,o),
(129,483,c),
(188,515,o),
(245,531,o),
(292,531,cs),
(356,531,o),
(400,502,o),
(400,445,cs),
(400,383,o),
(358,355,o),
(283,355,cs),
(249,355,o),
(236,326,o),
(236,297,cs),
(236,265,o),
(250,233,o),
(268,232,cs)
);
},
{
closed = 1;
nodes = (
(281,174,o),
(293,339,o),
(324,500,c),
(291,533,o),
(144,560,o),
(86,559,c),
(59,411,o),
(44,242,o),
(44,84,cs),
(44,43,l),
(77,11,o),
(206,-21,o),
(281,-21,c)
);
},
{
closed = 1;
nodes = (
(561,-9,o),
(640,49,o),
(682,92,c),
(622,138,o),
(541,239,o),
(492,324,c),
(308,272,l),
(364,159,o),
(425,55,o),
(492,-35,c)
);
}
);
width = 739;
}
);
unicode = 82;
},
{
glyphname = S;
kernLeft = S;
kernRight = S;
lastChange = "2024-01-26 21:12:12 +0000";
layers = (
{
anchors = (
{
name = top;
pos = (374,750);
}
);
layerId = "CF9497EE-3EC0-42B6-AB9D-60F0E4A560B4";
name = "Bold Italic";
shapes = (
{
closed = 1;
nodes = (
(88,272,o),
(346,286,o),
(346,200,cs),
(346,180,o),
(330,167,o),
(301,167,cs),
(253,167,o),
(176,196,o),
(99,272,c),
(64,233,o),
(24,171,o),
(7,128,c),
(68,39,o),
(187,-19,o),
(339,-19,cs),
(516,-19,o),
(617,46,o),
(617,197,cs),
(617,356,o),
(350,360,o),
(350,497,cs),
(350,534,o),
(372,552,o),
(397,552,cs),
(432,552,o),
(463,525,o),
(469,478,cs),
(476,427,o),
(517,407,o),
(563,407,cs),
(615,407,o),
(668,439,o),
(668,501,cs),
(668,656,o),
(542,724,o),
(407,724,cs),
(192,724,o),
(88,642,o),
(88,517,cs)
);
}
);
width = 663;
}
);
metricLeft = o;
metricRight = o;
unicode = 83;
},
{
glyphname = T;
lastChange = "2024-01-26 21:04:00 +0000";
layers = (
{
layerId = "CF9497EE-3EC0-42B6-AB9D-60F0E4A560B4";
name = "Bold Italic";
shapes = (
{
closed = 1;
nodes = (
(457,128,o),
(470,348,o),
(492,491,c),
(454,521,o),
(314,551,o),
(256,550,c),
(234,417,o),
(217,234,o),
(217,83,cs),
(217,48,l),
(247,19,o),
(382,-18,o),
(437,-18,cs),
(444,-18,o),
(450,-17,o),
(454,-16,c)
);
},
{
closed = 1;
nodes = (
(216,526,o),
(327,534,o),
(445,534,cs),
(520,534,o),
(597,531,o),
(681,523,c),
(684,547,o),
(687,576,o),
(687,606,cs),
(687,640,o),
(684,676,o),
(676,709,c),
(546,724,o),
(404,734,o),
(272,734,cs),
(196,734,o),
(125,731,o),
(60,724,c),
(58,716,o),
(58,705,o),
(58,694,cs),
(58,638,o),
(75,553,o),
(97,514,c)
);
}
);
width = 663;
}
);
metricLeft = x;
metricRight = x;
unicode = 84;
},
{
glyphname = U;
kernLeft = U;
kernRight = U;
lastChange = "2024-01-26 21:03:55 +0000";
layers = (
{
anchors = (
{
name = top;
pos = (428,750);
}
);
layerId = "CF9497EE-3EC0-42B6-AB9D-60F0E4A560B4";
name = "Bold Italic";
shapes = (
{
closed = 1;
nodes = (
(435,124,o),
(399,96,o),
(366,96,cs),
(335,96,o),
(308,121,o),
(310,171,cs),
(319,328,o),
(331,476,o),
(368,665,c),
(307,697,o),
(180,721,o),
(108,723,c),
(67,542,o),
(47,367,o),
(47,202,cs),
(47,58,o),
(207,-19,o),
(367,-19,cs),
(512,-19,o),
(657,44,o),
(683,178,cs),
(715,341,o),
(724,438,o),
(744,655,c),
(710,680,o),
(564,725,o),
(506,724,c),
(487,522,o),
(475,367,o),
(444,178,cs)
);
}
);
width = 743;
}
);
unicode = 85;
},
{
glyphname = V;
kernLeft = V;
kernRight = V;
lastChange = "2024-01-26 21:03:55 +0000";
layers = (
{
layerId = "CF9497EE-3EC0-42B6-AB9D-60F0E4A560B4";
name = "Bold Italic";
shapes = (
{
closed = 1;
nodes = (
(316,-18,o),
(339,-19,o),
(363,-19,cs),
(437,-19,o),
(522,-12,o),
(575,9,c),
(493,181,o),
(375,553,o),
(328,725,c),
(265,728,o),
(138,703,o),
(85,676,c),
(131,453,o),
(215,157,o),
(296,-17,c)
);
},
{
closed = 1;
nodes = (
(630,215,o),
(711,424,o),
(819,614,c),
(771,656,o),
(678,704,o),
(609,726,c),
(515,533,o),
(450,294,o),
(411,89,c),
(450,42,o),
(519,28,o),
(575,9,c)
);
}
);
width = 821;
}
);
unicode = 86;
},
{
glyphname = W;
kernLeft = V;
kernRight = V;
lastChange = "2018-01-05 19:41:32 +0000";
layers = (
{
layerId = "CF9497EE-3EC0-42B6-AB9D-60F0E4A560B4";
name = "Bold Italic";
shapes = (
{
closed = 1;
nodes = (
(402,-21,o),
(505,0,o),
(575,28,c),
(472,241,o),
(379,511,o),
(328,724,c),
(265,727,o),
(138,705,o),
(85,678,c),
(131,455,o),
(229,152,o),
(310,-22,c)
);
},
{
closed = 1;
nodes = (
(585,173,o),
(620,320,o),
(692,428,c),
(632,468,o),
(575,494,o),
(520,514,c),
(481,354,o),
(462,229,o),
(462,76,c),
(504,36,o),
(520,48,o),
(575,28,c)
);
},
{
closed = 1;
nodes = (
(801,-18,o),
(898,0,o),
(969,28,c),
(887,200,o),
(802,402,o),
(755,574,c),
(691,578,o),
(572,541,o),
(520,514,c),
(565,291,o),
(623,152,o),
(704,-22,c)
);
},
{
closed = 1;
nodes = (
(1015,224,o),
(1097,424,o),
(1213,614,c),
(1167,665,o),
(1059,708,o),
(1003,726,c),
(917,515,o),
(854,327,o),
(819,100,c),
(867,62,o),
(913,47,o),
(969,28,c)
);
}
);
width = 1215;
}
);
unicode = 87;
},
{
glyphname = X;
lastChange = "2018-01-05 19:35:27 +0000";
layers = (
{
layerId = "CF9497EE-3EC0-42B6-AB9D-60F0E4A560B4";
name = "Bold Italic";
shapes = (
{
closed = 1;
nodes = (
(588,-15,o),
(691,28,o),
(738,66,c),
(609,221,o),
(384,563,o),
(291,735,c),
(210,723,o),
(107,688,o),
(51,642,c),
(172,417,o),
(403,121,o),
(523,-25,c)
);
},
{
closed = 1;
nodes = (
(299,106,o),
(623,417,o),
(777,603,c),
(738,631,o),
(645,697,o),
(575,731,c),
(420,535,o),
(154,236,o),
(4,88,c),
(55,41,o),
(107,-1,o),
(164,-28,c)
);
}
);
width = 767;
}
);
metricLeft = x;
metricRight = x;
unicode = 88;
},
{
glyphname = Y;
kernLeft = Y;
kernRight = Y;
lastChange = "2024-01-26 21:03:55 +0000";
layers = (
{
anchors = (
{
name = top;
pos = (424,750);
}
);
layerId = "CF9497EE-3EC0-42B6-AB9D-60F0E4A560B4";
name = "Bold Italic";
shapes = (
{
closed = 1;
nodes = (
(356,315,o),
(424,337,o),
(491,373,c),
(427,456,o),
(341,635,o),
(308,728,c),
(250,713,o),
(130,664,o),
(80,635,c),
(117,495,o),
(190,388,o),
(282,297,c)
);
},
{
closed = 1;
nodes = (
(489,119,o),
(496,232,o),
(531,367,c),
(497,388,o),
(349,411,o),
(291,412,c),
(264,327,o),
(248,215,o),
(248,112,cs),
(248,83,o),
(249,55,o),
(252,29,c),
(286,8,o),
(453,-25,o),
(490,-20,c)
);
},
{
closed = 1;
nodes = (
(564,398,o),
(643,484,o),
(757,562,c),
(709,625,o),
(623,696,o),
(574,728,c),
(488,625,o),
(427,479,o),
(390,354,c),
(423,308,o),
(460,297,o),
(509,264,c)
);
}
);
width = 764;
}
);
unicode = 89;
},
{
glyphname = Z;
kernLeft = Z;
kernRight = Z;
lastChange = "2024-01-26 21:03:55 +0000";
layers = (
{
anchors = (
{
name = top;
pos = (425,750);
}
);
layerId = "CF9497EE-3EC0-42B6-AB9D-60F0E4A560B4";
name = "Bold Italic";
shapes = (
{
closed = 1;
nodes = (
(407,291,o),
(533,388,o),
(733,530,c),
(701,541,o),
(643,552,o),
(591,552,cs),
(561,552,o),
(533,548,o),
(512,540,cs),
(360,478,o),
(178,315,o),
(41,180,c),
(76,173,o),
(155,157,o),
(219,157,cs),
(255,157,o),
(286,162,o),
(302,177,c)
);
},
{
closed = 1;
nodes = (
(233,-23,o),
(375,-5,o),
(528,-5,cs),
(578,-5,o),
(630,-7,o),
(684,-12,c),
(688,16,o),
(694,53,o),
(694,89,cs),
(694,119,o),
(690,148,o),
(679,174,c),
(570,187,o),
(445,193,o),
(326,193,cs),
(223,193,o),
(124,188,o),
(41,180,c),
(39,170,o),
(38,155,o),
(38,139,cs),
(38,80,o),
(51,-6,o),
(78,-30,c)
);
},
{
closed = 1;
nodes = (
(283,518,o),
(425,537,o),
(580,537,cs),
(629,537,o),
(680,535,o),
(733,530,c),
(738,558,o),
(744,595,o),
(744,632,cs),
(744,661,o),
(740,690,o),
(729,716,c),
(620,729,o),
(495,735,o),
(376,735,cs),
(273,735,o),
(173,730,o),
(90,722,c),
(88,711,o),
(87,697,o),
(87,681,cs),
(87,621,o),
(100,536,o),
(127,512,c)
);
}
);
width = 753;
}
);
unicode = 90;
},
{
glyphname = a;
kernLeft = a;
lastChange = "2024-01-26 21:04:00 +0000";
layers = (
{
anchors = (
{
name = top;
pos = (348,526);
}
);
layerId = "CF9497EE-3EC0-42B6-AB9D-60F0E4A560B4";
name = "Bold Italic";
shapes = (
{
closed = 1;
nodes = (
(371,195,o),
(357,215,o),
(348,227,c),
(347,167,o),
(318,138,o),
(290,138,cs),
(262,138,o),
(233,168,o),
(233,227,cs),
(233,298,o),
(262,330,o),
(291,330,cs),
(320,330,o),
(348,298,o),
(348,237,cs),
(348,215,o),
(347,195,o),
(347,180,cs),
(347,135,o),
(351,116,o),
(357,116,cs),
(373,116,o),
(405,266,o),
(405,386,cs),
(405,473,o),
(334,524,o),
(252,524,cs),
(144,524,o),
(19,434,o),
(19,215,cs),
(19,64,o),
(126,-15,o),
(225,-15,cs),
(309,-15,o),
(388,43,o),
(388,164,c)
);
},
{
closed = 1;
nodes = (
(559,156,o),
(582,312,o),
(615,469,c),
(565,497,o),
(461,522,o),
(396,522,c),
(365,401,o),
(342,223,o),
(342,71,cs),
(342,51,o),
(342,32,o),
(343,14,c),
(387,-15,o),
(458,-18,o),
(514,-18,cs),
(560,-18,l)
);
}
);
width = 632;
}
);
metricLeft = o;
metricRight = n;
unicode = 97;
},
{
glyphname = b;
lastChange = "2024-01-26 21:12:12 +0000";
layers = (
{
layerId = "CF9497EE-3EC0-42B6-AB9D-60F0E4A560B4";
name = "Bold Italic";
shapes = (
{
closed = 1;
nodes = (
(303,545,o),
(318,627,o),
(335,718,c),
(292,750,o),
(170,773,o),
(116,771,c),
(75,570,o),
(50,424,o),
(50,260,cs),
(50,70,o),
(173,-22,o),
(303,-22,cs),
(449,-22,o),
(604,93,o),
(604,313,cs),
(604,424,o),
(518,518,o),
(418,518,cs),
(377,518,o),
(333,502,o),
(292,463,c)
);
},
{
closed = 1;
nodes = (
(377,148,o),
(340,148,cs),
(307,148,o),
(277,179,o),
(277,242,cs),
(277,322,o),
(317,364,o),
(354,364,cs),
(387,364,o),
(417,333,o),
(417,267,cs),
(417,188,o)
);
}
);
width = 621;
}
);
metricLeft = n;
metricRight = o;
unicode = 98;
},
{
glyphname = c;
kernLeft = c;
kernRight = c;
lastChange = "2024-01-26 21:12:12 +0000";
layers = (
{
anchors = (
{
name = bottom;
pos = (257,0);
}
);
layerId = "CF9497EE-3EC0-42B6-AB9D-60F0E4A560B4";
name = "Bold Italic";
shapes = (
{
closed = 1;
nodes = (
(133,-22,o),
(258,-22,cs),
(340,-22,o),
(427,14,o),
(488,92,c),
(476,124,o),
(461,153,o),
(439,185,c),
(406,165,o),
(374,155,o),
(346,155,cs),
(295,155,o),
(257,188,o),
(257,252,cs),
(257,326,o),
(291,353,o),
(318,353,cs),
(334,353,o),
(347,344,o),
(351,329,cs),
(358,299,o),
(382,285,o),
(408,285,cs),
(450,285,o),
(499,319,o),
(499,376,cs),
(499,468,o),
(413,519,o),
(314,519,cs),
(178,519,o),
(18,424,o),
(18,213,cs),
(18,62,o)
);
}
);
width = 526;
}
);
metricLeft = o;
metricRight = o;
unicode = 99;
},
{
glyphname = d;
lastChange = "2024-01-26 21:03:55 +0000";
layers = (
{
layerId = "CF9497EE-3EC0-42B6-AB9D-60F0E4A560B4";
name = "Bold Italic";
shapes = (
{
closed = 1;
nodes = (
(344,555,o),
(328,266,o),
(324,36,c),
(384,0,o),
(484,-18,o),
(538,-18,c),
(537,226,o),
(580,494,o),
(615,720,c),
(576,750,o),
(450,775,o),
(396,773,c)
);
},
{
closed = 1;
nodes = (
(116,-23,o),
(209,-23,cs),
(292,-23,o),
(370,38,o),
(370,166,c),
(353,197,o),
(339,221,o),
(330,233,c),
(327,191,o),
(297,168,o),
(270,168,cs),
(244,168,o),
(219,188,o),
(219,229,cs),
(219,288,o),
(248,315,o),
(275,315,cs),
(304,315,o),
(333,285,o),
(330,233,cs),
(329,208,o),
(357,285,o),
(388,281,cs),
(398,280,o),
(402,286,o),
(402,296,cs),
(402,317,o),
(387,356,o),
(387,388,cs),
(387,471,o),
(328,515,o),
(257,515,cs),
(150,515,o),
(17,416,o),
(17,198,cs),
(17,54,o)
);
}
);
width = 606;
}
);
metricLeft = o;
metricRight = n;
unicode = 100;
},
{
glyphname = eth;
lastChange = "2024-01-26 21:03:55 +0000";
layers = (
{
layerId = "CF9497EE-3EC0-42B6-AB9D-60F0E4A560B4";
name = "Bold Italic";
shapes = (
{
closed = 1;
nodes = (
(448,-18,o),
(587,176,o),
(587,375,cs),
(587,542,o),
(489,712,o),
(241,773,c),
(207,771,o),
(144,764,o),
(118,750,c),
(325,662,o),
(393,498,o),
(393,363,cs),
(393,246,o),
(341,152,o),
(286,152,cs),
(248,152,o),
(232,187,o),
(232,228,cs),
(232,286,o),
(265,358,o),
(316,358,cs),
(360,358,o),
(393,331,o),
(406,286,c),
(415,298,o),
(417,315,o),
(417,333,cs),
(417,349,o),
(415,365,o),
(415,380,cs),
(415,390,o),
(415,398,o),
(417,406,c),
(399,458,o),
(346,500,o),
(285,500,cs),
(128,500,o),
(38,352,o),
(38,214,cs),
(38,94,o),
(106,-18,o),
(257,-18,cs)
);
},
{
closed = 1;
nodes = (
(336,570,o),
(478,644,o),
(574,710,c),
(558,735,o),
(536,754,o),
(504,770,c),
(380,729,o),
(222,661,o),
(110,592,c),
(139,563,o),
(176,539,o),
(220,525,c)
);
}
);
width = 616;
}
);
unicode = 240;
},
{
glyphname = e;
kernLeft = e;
kernRight = e;
lastChange = "2024-01-26 21:12:12 +0000";
layers = (
{
anchors = (
{
name = top;
pos = (308,523);
}
);
layerId = "CF9497EE-3EC0-42B6-AB9D-60F0E4A560B4";
name = "Bold Italic";
shapes = (
{
closed = 1;
nodes = (
(141,-21,o),
(272,-21,cs),
(354,-21,o),
(440,11,o),
(503,79,c),
(487,108,o),
(460,145,o),
(445,166,c),
(402,133,o),
(360,116,o),
(326,116,cs),
(278,116,o),
(245,150,o),
(245,219,cs),
(245,304,o),
(299,361,o),
(329,361,cs),
(340,361,o),
(348,352,o),
(348,334,cs),
(348,305,o),
(313,262,o),
(233,262,c),
(232,245,o),
(228,224,o),
(228,204,cs),
(228,192,o),
(230,180,o),
(236,171,c),
(385,171,o),
(486,246,o),
(486,356,cs),
(486,464,o),
(399,521,o),
(300,521,cs),
(170,521,o),
(19,423,o),
(19,215,cs),
(19,62,o)
);
}
);
width = 542;
}
);
metricLeft = o;
metricRight = o;
unicode = 101;
},
{
glyphname = f;
lastChange = "2024-01-26 21:12:12 +0000";
layers = (
{
layerId = "CF9497EE-3EC0-42B6-AB9D-60F0E4A560B4";
name = "Bold Italic";
shapes = (
{
closed = 1;
nodes = (
(146,316,o),
(207,321,o),
(277,321,cs),
(332,321,o),
(393,318,o),
(477,311,c),
(479,324,o),
(480,338,o),
(480,353,cs),
(480,389,o),
(474,433,o),
(457,486,c),
(370,494,o),
(304,498,o),
(240,498,cs),
(177,498,o),
(115,494,o),
(35,486,c),
(33,475,o),
(32,462,o),
(32,446,cs),
(32,398,o),
(42,333,o),
(62,306,c)
);
},
{
closed = 1;
nodes = (
(564,731,o),
(498,773,o),
(391,773,cs),
(252,773,o),
(160,678,o),
(134,488,cs),
(114,344,o),
(107,184,o),
(101,41,c),
(151,-4,o),
(265,-18,o),
(318,-18,c),
(321,223,o),
(342,469,o),
(352,566,cs),
(355,594,o),
(368,606,o),
(379,606,cs),
(387,606,o),
(395,600,o),
(398,591,cs),
(411,553,o),
(428,533,o),
(466,533,cs),
(545,533,o),
(564,582,o),
(564,635,cs)
);
}
);
width = 535;
}
);
metricLeft = x;
metricRight = x;
unicode = 102;
},
{
glyphname = g;
lastChange = "2024-01-26 21:04:00 +0000";
layers = (
{
layerId = "CF9497EE-3EC0-42B6-AB9D-60F0E4A560B4";
name = "Bold Italic";
shapes = (
{
closed = 1;
nodes = (
(111,-23,o),
(200,-23,cs),
(277,-23,o),
(351,37,o),
(368,165,c),
(351,196,o),
(332,224,o),
(323,236,c),
(318,170,o),
(290,140,o),
(264,140,cs),
(238,140,o),
(213,169,o),
(213,221,cs),
(213,290,o),
(241,319,o),
(267,319,cs),
(295,319,o),
(323,288,o),
(323,239,cs),
(323,225,o),
(325,222,o),
(333,222,cs),
(340,222,o),
(350,225,o),
(362,225,cs),
(385,225,o),
(389,219,o),
(389,220,c),
(389,220,o),
(384,226,o),
(384,246,cs),
(384,254,ls),
(385,267,o),
(385,279,o),
(385,291,cs),
(385,448,o),
(308,525,o),
(224,525,cs),
(125,525,o),
(19,420,o),
(19,215,cs),
(19,60,o)
);
},
{
closed = 1;
nodes = (
(341,265,o),
(326,-139,o),
(217,-139,cs),
(149,-139,o),
(194,-43,o),
(84,-43,cs),
(45,-43,o),
(14,-74,o),
(14,-121,cs),
(14,-219,o),
(78,-268,o),
(191,-268,cs),
(353,-268,o),
(469,-185,o),
(504,16,cs),
(518,93,o),
(535,260,o),
(553,470,c),
(494,510,o),
(414,524,o),
(351,524,c)
);
}
);
width = 573;
}
);
metricLeft = o;
metricRight = n;
unicode = 103;
},
{
glyphname = h;
lastChange = "2024-01-26 21:03:55 +0000";
layers = (
{
layerId = "CF9497EE-3EC0-42B6-AB9D-60F0E4A560B4";
name = "Bold Italic";
shapes = (
{
closed = 1;
nodes = (
(256,229,o),
(295,494,o),
(330,719,c),
(300,749,o),
(165,774,o),
(112,773,c),
(60,555,o),
(43,274,o),
(39,43,c),
(88,0,o),
(201,-14,o),
(256,-16,c)
);
},
{
closed = 1;
nodes = (
(285,164,o),
(364,350,o),
(439,413,cs),
(458,430,o),
(466,444,o),
(466,458,cs),
(466,477,o),
(453,497,o),
(437,524,c),
(354,486,o),
(285,382,o),
(260,252,cs),
(253,213,o),
(241,135,o),
(241,73,cs),
(241,35,o),
(245,2,o),
(258,-13,c)
);
},
{
closed = 1;
nodes = (
(610,153,o),
(627,331,o),
(655,470,c),
(615,501,o),
(490,525,o),
(437,524,c),
(407,405,o),
(390,251,o),
(390,106,cs),
(390,84,o),
(390,62,o),
(391,41,c),
(442,-4,o),
(555,-18,o),
(609,-18,c)
);
}
);
width = 677;
}
);
metricLeft = n;
metricRight = n;
unicode = 104;
},
{
glyphname = idotless;
kernLeft = i;
kernRight = i;
lastChange = "2018-01-02 13:38:07 +0000";
layers = (
{
anchors = (
{
name = top;
pos = (187,523);
}
);
layerId = "CF9497EE-3EC0-42B6-AB9D-60F0E4A560B4";
name = "Bold Italic";
shapes = (
{
closed = 1;
nodes = (
(252,153,o),
(269,329,o),
(297,468,c),
(257,499,o),
(132,523,o),
(79,522,c),
(48,379,o),
(33,203,o),
(33,41,c),
(84,-4,o),
(197,-18,o),
(250,-18,c)
);
}
);
width = 318;
}
);
metricLeft = n;
metricRight = n;
unicode = 305;
},
{
glyphname = jdotless;
lastChange = "2024-01-26 21:03:55 +0000";
layers = (
{
anchors = (
{
name = top;
pos = (180,517);
}
);
layerId = "CF9497EE-3EC0-42B6-AB9D-60F0E4A560B4";
name = "Bold Italic";
shapes = (
{
closed = 1;
nodes = (
(54,483,o),
(55,449,o),
(55,414,cs),
(55,162,o),
(40,-93,o),
(-63,-119,c),
(-59,-162,o),
(-50,-210,o),
(-29,-242,c),
(189,-214,o),
(260,-83,o),
(305,468,c),
(240,504,o),
(117,517,o),
(54,517,c)
);
}
);
width = 324;
}
);
metricRight = n;
unicode = 567;
},
{
glyphname = k;
lastChange = "2018-01-02 13:38:07 +0000";
layers = (
{
layerId = "CF9497EE-3EC0-42B6-AB9D-60F0E4A560B4";
name = "Bold Italic";
shapes = (
{
closed = 1;
nodes = (
(255,227,o),
(296,494,o),
(332,720,c),
(302,750,o),
(166,775,o),
(113,773,c),
(61,555,o),
(42,272,o),
(38,42,c),
(89,-3,o),
(202,-17,o),
(255,-17,c)
);
},
{
closed = 1;
nodes = (
(489,-2,o),
(568,52,o),
(600,87,c),
(564,138,o),
(502,207,o),
(448,248,c),
(498,288,o),
(546,339,o),
(586,403,c),
(553,440,o),
(490,491,o),
(438,507,c),
(389,436,o),
(302,323,o),
(231,250,c),
(303,182,o),
(382,63,o),
(432,-18,c)
);
}
);
width = 627;
}
);
metricLeft = n;
metricRight = x;
unicode = 107;
},
{
glyphname = l;
lastChange = "2018-01-02 13:38:07 +0000";
layers = (
{
layerId = "CF9497EE-3EC0-42B6-AB9D-60F0E4A560B4";
name = "Bold Italic";
shapes = (
{
closed = 1;
nodes = (
(266,226,o),
(292,494,o),
(333,720,c),
(303,750,o),
(161,775,o),
(108,773,c),
(65,546,o),
(38,271,o),
(34,41,c),
(84,-4,o),
(205,-18,o),
(258,-18,c)
);
}
);
width = 326;
}
);
metricLeft = n;
metricRight = n;
unicode = 108;
},
{
glyphname = lslash;
lastChange = "2017-11-27 15:32:02 +0000";
layers = (
{
layerId = "CF9497EE-3EC0-42B6-AB9D-60F0E4A560B4";
name = "Bold Italic";
shapes = (
{
closed = 1;
nodes = (
(200,256,o),
(338,288,o),
(469,329,c),
(467,378,o),
(460,414,o),
(446,462,c),
(301,428,o),
(176,390,o),
(50,348,c),
(50,306,o),
(55,270,o),
(66,231,c)
);
},
{
pos = (78,0);
ref = l;
}
);
width = 501;
}
);
unicode = 322;
},
{
glyphname = m;
lastChange = "2024-01-26 21:03:55 +0000";
layers = (
{
layerId = "CF9497EE-3EC0-42B6-AB9D-60F0E4A560B4";
name = "Bold Italic";
shapes = (
{
closed = 1;
nodes = (
(592,154,o),
(619,331,o),
(648,470,c),
(608,501,o),
(482,525,o),
(429,524,c),
(398,402,o),
(373,240,o),
(373,92,cs),
(373,74,o),
(373,56,o),
(374,39,c),
(424,-6,o),
(537,-17,o),
(591,-17,c)
);
},
{
closed = 1;
nodes = (
(251,154,o),
(278,331,o),
(307,470,c),
(267,501,o),
(141,525,o),
(88,524,c),
(57,402,o),
(32,240,o),
(32,92,cs),
(32,74,o),
(32,56,o),
(33,39,c),
(83,-6,o),
(196,-17,o),
(250,-17,c)
);
},
{
closed = 1;
nodes = (
(278,160,o),
(357,351,o),
(431,413,cs),
(450,430,o),
(458,444,o),
(458,458,cs),
(458,477,o),
(445,497,o),
(429,524,c),
(346,486,o),
(287,408,o),
(253,248,cs),
(245,211,o),
(233,134,o),
(233,70,cs),
(233,32,o),
(237,-1,o),
(250,-17,c)
);
},
{
closed = 1;
nodes = (
(617,163,o),
(697,351,o),
(771,413,cs),
(790,430,o),
(798,444,o),
(798,458,cs),
(798,477,o),
(785,497,o),
(769,524,c),
(686,486,o),
(627,408,o),
(593,248,cs),
(585,211,o),
(574,135,o),
(574,73,cs),
(574,33,o),
(578,-1,o),
(591,-17,c)
);
},
{
closed = 1;
nodes = (
(932,154,o),
(959,331,o),
(988,470,c),
(948,501,o),
(822,525,o),
(769,524,c),
(738,402,o),
(713,240,o),
(713,92,cs),
(713,74,o),
(713,56,o),
(714,39,c),
(764,-6,o),
(877,-17,o),
(931,-17,c)
);
}
);
width = 1005;
}
);
metricLeft = n;
metricRight = n;
unicode = 109;
},
{
glyphname = n;
kernLeft = n;
kernRight = n;
lastChange = "2024-01-26 21:03:55 +0000";
layers = (
{
anchors = (
{
name = top;
pos = (372,524);
}
);
layerId = "CF9497EE-3EC0-42B6-AB9D-60F0E4A560B4";
name = "Bold Italic";
shapes = (
{
closed = 1;
nodes = (
(256,153,o),
(273,330,o),
(301,469,c),
(260,500,o),
(135,524,o),
(83,523,c),
(53,404,o),
(36,251,o),
(36,106,cs),
(36,84,o),
(36,62,o),
(37,41,c),
(88,-4,o),
(201,-18,o),
(255,-18,c)
);
},
{
closed = 1;
nodes = (
(607,153,o),
(624,328,o),
(652,467,c),
(612,496,o),
(487,520,o),
(434,521,c),
(404,402,o),
(387,250,o),
(387,106,cs),
(387,84,o),
(387,62,o),
(388,41,c),
(439,-4,o),
(552,-18,o),
(606,-18,c)
);
},
{
closed = 1;
nodes = (
(283,165,o),
(362,316,o),
(436,378,cs),
(455,395,o),
(463,415,o),
(463,436,cs),
(463,464,o),
(450,494,o),
(434,521,c),
(351,477,o),
(283,371,o),
(257,252,cs),
(248,214,o),
(237,139,o),
(237,77,cs),
(237,38,o),
(242,3,o),
(255,-13,c)
);
}
);
width = 674;
}
);
unicode = 110;
},
{
glyphname = o;
kernLeft = o;
kernRight = o;
lastChange = "2024-01-26 20:11:07 +0000";
layers = (
{
anchors = (
{
name = top;
pos = (277,533);
}
);
layerId = "CF9497EE-3EC0-42B6-AB9D-60F0E4A560B4";
name = "Bold Italic";
shapes = (
{
closed = 1;
nodes = (
(114,-17,o),
(239,-17,cs),
(397,-17,o),
(498,93,o),
(498,281,cs),
(498,429,o),
(404,518,o),
(286,518,cs),
(155,518,o),
(18,411,o),
(18,211,cs),
(18,75,o)
);
},
{
closed = 1;
nodes = (
(301,167,o),
(271,167,cs),
(248,167,o),
(229,190,o),
(229,239,cs),
(229,309,o),
(265,350,o),
(295,350,cs),
(318,350,o),
(337,328,o),
(337,278,cs),
(337,209,o)
);
}
);
width = 518;
}
);
unicode = 111;
},
{
glyphname = oslash;
kernLeft = o;
kernRight = o;
lastChange = "2024-01-26 21:03:55 +0000";
layers = (
{
layerId = "CF9497EE-3EC0-42B6-AB9D-60F0E4A560B4";
name = "Bold Italic";
shapes = (
{
closed = 1;
nodes = (
(237,109,o),
(359,304,o),
(469,500,c),
(446,521,o),
(417,536,o),
(380,549,c),
(242,368,o),
(129,192,o),
(4,-13,c),
(29,-37,o),
(64,-52,o),
(94,-60,c)
);
},
{
closed = 1;
nodes = (
(99,-19,o),
(209,-19,cs),
(338,-19,o),
(478,83,o),
(478,273,cs),
(478,442,o),
(375,522,o),
(264,522,cs),
(136,522,o),
(-2,415,o),
(-2,211,cs),
(-2,55,o)
);
},
{
closed = 1;
nodes = (
(304,108,o),
(247,108,cs),
(206,108,o),
(171,148,o),
(171,240,cs),
(171,368,o),
(238,445,o),
(294,445,cs),
(335,445,o),
(371,404,o),
(371,313,cs),
(371,185,o)
);
}
);
width = 478;
}
);
unicode = 248;
},
{
glyphname = p;
lastChange = "2024-01-26 21:12:12 +0000";
layers = (
{
layerId = "CF9497EE-3EC0-42B6-AB9D-60F0E4A560B4";
name = "Bold Italic";
shapes = (
{
closed = 1;
nodes = (
(219,-25,o),
(254,251,o),
(289,477,c),
(231,502,o),
(139,519,o),
(85,517,c),
(33,299,o),
(17,20,o),
(13,-210,c),
(63,-255,o),
(166,-269,o),
(220,-269,c)
);
},
{
closed = 1;
nodes = (
(219,11,o),
(282,-20,o),
(344,-20,cs),
(461,-20,o),
(574,90,o),
(574,271,cs),
(574,434,o),
(491,517,o),
(406,517,cs),
(327,517,o),
(246,447,o),
(226,307,cs),
(223,288,o),
(222,272,o),
(222,257,cs),
(222,206,o),
(236,181,o),
(248,181,cs),
(254,181,o),
(260,190,o),
(261,207,cs),
(266,279,o),
(305,318,o),
(338,318,cs),
(364,318,o),
(387,294,o),
(387,243,cs),
(387,238,o),
(386,233,o),
(386,227,cs),
(382,173,o),
(343,143,o),
(309,143,cs),
(282,143,o),
(258,163,o),
(261,207,cs),
(262,217,o),
(261,222,o),
(259,222,cs),
(247,222,o),
(199,87,o),
(171,78,c)
);
}
);
width = 595;
}
);
metricLeft = n;
metricRight = o;
unicode = 112;
},
{
glyphname = thorn;
lastChange = "2024-01-26 21:03:55 +0000";
layers = (
{
layerId = "CF9497EE-3EC0-42B6-AB9D-60F0E4A560B4";
name = "Bold Italic";
shapes = (
{
closed = 1;
nodes = (
(228,-23,o),
(292,499,o),
(327,725,c),
(269,750,o),
(167,775,o),
(113,773,c),
(61,555,o),
(16,22,o),
(12,-208,c),
(62,-253,o),
(175,-267,o),
(229,-267,c)
);
},
{
closed = 1;
nodes = (
(231,11,o),
(297,-19,o),
(360,-19,cs),
(481,-19,o),
(596,90,o),
(596,271,cs),
(596,442,o),
(511,525,o),
(423,525,cs),
(342,525,o),
(260,456,o),
(239,322,cs),
(236,301,o),
(234,282,o),
(234,266,cs),
(234,212,o),
(249,184,o),
(260,184,cs),
(266,184,o),
(270,192,o),
(271,207,cs),
(276,279,o),
(315,318,o),
(348,318,cs),
(374,318,o),
(397,294,o),
(397,243,cs),
(397,168,o),
(355,129,o),
(319,129,cs),
(292,129,o),
(268,153,o),
(271,204,cs),
(272,214,o),
(271,219,o),
(269,219,cs),
(257,219,o),
(209,87,o),
(181,78,c)
);
}
);
width = 636;
}
);
unicode = 254;
},
{
glyphname = q;
lastChange = "2024-01-26 21:03:55 +0000";
layers = (
{
layerId = "CF9497EE-3EC0-42B6-AB9D-60F0E4A560B4";
name = "Bold Italic";
shapes = (
{
closed = 1;
nodes = (
(543,-18,o),
(574,224,o),
(609,450,c),
(579,480,o),
(444,505,o),
(390,503,c),
(338,285,o),
(322,21,o),
(318,-209,c),
(368,-254,o),
(481,-268,o),
(535,-268,c)
);
},
{
closed = 1;
nodes = (
(315,-18,o),
(374,60,o),
(387,162,c),
(370,193,o),
(351,221,o),
(342,233,c),
(337,170,o),
(311,140,o),
(286,140,cs),
(265,140,o),
(245,164,o),
(245,212,cs),
(245,280,o),
(274,313,o),
(299,313,cs),
(322,313,o),
(344,286,o),
(342,233,cs),
(341,208,o),
(374,281,o),
(405,277,cs),
(415,276,o),
(419,282,o),
(419,292,cs),
(419,313,o),
(404,352,o),
(404,384,cs),
(404,456,o),
(351,524,o),
(276,524,cs),
(158,524,o),
(38,396,o),
(38,212,cs),
(38,60,o),
(114,-18,o),
(217,-18,cs)
);
}
);
width = 629;
}
);
unicode = 113;
},
{
glyphname = r;
lastChange = "2024-01-26 21:12:12 +0000";
layers = (
{
layerId = "CF9497EE-3EC0-42B6-AB9D-60F0E4A560B4";
name = "Bold Italic";
shapes = (
{
closed = 1;
nodes = (
(276,136,o),
(319,322,o),
(371,322,cs),
(377,322,o),
(383,319,o),
(390,313,c),
(407,292,o),
(431,283,o),
(456,283,cs),
(513,283,o),
(576,328,o),
(576,385,cs),
(576,474,o),
(533,512,o),
(479,512,cs),
(387,512,o),
(262,402,o),
(261,245,cs),
(261,201,o),
(239,106,o),
(239,41,cs),
(239,16,o),
(243,-5,o),
(252,-17,c)
);
},
{
closed = 1;
nodes = (
(254,153,o),
(276,339,o),
(304,478,c),
(264,509,o),
(139,524,o),
(86,523,c),
(54,402,o),
(34,244,o),
(34,97,cs),
(34,78,o),
(34,59,o),
(35,41,c),
(86,-4,o),
(199,-18,o),
(252,-18,c)
);
}
);
width = 583;
}
);
metricLeft = n;
metricRight = o;
unicode = 114;
},
{
glyphname = s;
kernLeft = s;
kernRight = s;
lastChange = "2024-01-26 21:12:12 +0000";
layers = (
{
anchors = (
{
name = top;
pos = (300,514);
}
);
layerId = "CF9497EE-3EC0-42B6-AB9D-60F0E4A560B4";
name = "Bold Italic";
shapes = (
{
closed = 1;
nodes = (
(263,390,o),
(277,390,cs),
(292,390,o),
(307,377,o),
(307,350,cs),
(307,303,o),
(343,280,o),
(382,280,cs),
(428,280,o),
(477,311,o),
(477,371,cs),
(477,469,o),
(377,518,o),
(275,518,cs),
(164,518,o),
(50,461,o),
(50,348,cs),
(50,223,o),
(212,219,o),
(212,140,cs),
(212,123,o),
(194,110,o),
(166,110,cs),
(135,110,o),
(91,126,o),
(42,169,c),
(22,135,o),
(9,95,o),
(1,66,c),
(55,3,o),
(143,-25,o),
(227,-25,cs),
(345,-25,o),
(455,30,o),
(455,122,cs),
(455,259,o),
(249,268,o),
(249,353,cs),
(249,378,o)
);
}
);
width = 490;
}
);
metricLeft = o;
metricRight = o;
unicode = 115;
},
{
glyphname = germandbls;
lastChange = "2024-01-26 21:03:55 +0000";
layers = (
{
layerId = "CF9497EE-3EC0-42B6-AB9D-60F0E4A560B4";
name = "Bold Italic";
shapes = (
{
closed = 1;
nodes = (
(307,-12,o),
(345,-18,o),
(382,-18,cs),
(525,-18,o),
(599,93,o),
(599,201,cs),
(599,303,o),
(535,401,o),
(403,401,cs),
(368,400,o),
(329,395,o),
(287,383,c),
(281,366,o),
(278,341,o),
(278,320,cs),
(278,310,o),
(279,300,o),
(280,293,c),
(360,293,o),
(400,250,o),
(400,206,cs),
(400,159,o),
(355,111,o),
(268,111,c),
(264,94,o),
(262,74,o),
(262,55,cs),
(262,34,o),
(264,14,o),
(269,0,c)
);
},
{
closed = 1;
nodes = (
(480,328,o),
(570,432,o),
(570,534,cs),
(570,630,o),
(489,724,o),
(344,724,cs),
(126,724,o),
(33,545,o),
(33,18,c),
(76,-7,o),
(184,-18,o),
(243,-18,c),
(240,47,o),
(239,106,o),
(239,159,cs),
(239,435,o),
(276,561,o),
(333,561,cs),
(369,561,o),
(387,535,o),
(387,505,cs),
(387,467,o),
(357,424,o),
(299,424,c),
(287,400,o),
(278,358,o),
(280,328,c)
);
}
);
width = 646;
}
);
unicode = 223;
},
{
glyphname = t;
lastChange = "2024-01-26 21:12:12 +0000";
layers = (
{
layerId = "CF9497EE-3EC0-42B6-AB9D-60F0E4A560B4";
name = "Bold Italic";
shapes = (
{
closed = 1;
nodes = (
(87,301,o),
(87,186,cs),
(87,51,o),
(180,-13,o),
(281,-13,cs),
(334,-13,o),
(389,4,o),
(434,38,c),
(441,66,o),
(440,127,o),
(444,168,c),
(421,147,o),
(395,136,o),
(371,136,cs),
(331,136,o),
(298,166,o),
(298,229,cs),
(298,318,o),
(331,470,o),
(361,591,c),
(315,609,o),
(220,627,o),
(163,632,c),
(116,470,o)
);
},
{
closed = 1;
nodes = (
(84,341,o),
(122,343,o),
(161,343,cs),
(237,343,o),
(321,336,o),
(417,325,c),
(422,365,o),
(427,412,o),
(427,460,cs),
(427,473,o),
(427,487,o),
(426,500,c),
(358,508,o),
(296,512,o),
(235,512,cs),
(173,512,o),
(112,508,o),
(47,500,c),
(42,472,o),
(40,441,o),
(40,412,cs),
(40,385,o),
(42,358,o),
(47,337,c)
);
}
);
width = 467;
}
);
metricLeft = o;
metricRight = x;
unicode = 116;
},
{
glyphname = u;
kernLeft = u;
kernRight = u;
lastChange = "2024-01-26 21:03:55 +0000";
layers = (
{
anchors = (
{
name = top;
pos = (351,524);
}
);
layerId = "CF9497EE-3EC0-42B6-AB9D-60F0E4A560B4";
name = "Bold Italic";
shapes = (
{
closed = 1;
nodes = (
(606,149,o),
(624,329,o),
(652,468,c),
(612,499,o),
(487,523,o),
(434,522,c),
(403,402,o),
(386,246,o),
(386,100,cs),
(386,79,o),
(386,58,o),
(387,37,c),
(438,-8,o),
(551,-22,o),
(605,-22,c)
);
},
{
closed = 1;
nodes = (
(255,149,o),
(273,329,o),
(301,468,c),
(261,499,o),
(136,523,o),
(83,522,c),
(52,402,o),
(35,246,o),
(35,100,cs),
(35,79,o),
(35,58,o),
(36,37,c),
(87,-8,o),
(200,-22,o),
(254,-22,c)
);
},
{
closed = 1;
nodes = (
(337,24,o),
(399,171,o),
(427,306,cs),
(433,338,o),
(439,365,o),
(439,390,cs),
(439,414,o),
(434,435,o),
(418,455,c),
(387,308,o),
(328,193,o),
(257,126,cs),
(237,107,o),
(229,83,o),
(229,59,cs),
(229,32,o),
(239,3,o),
(254,-22,c)
);
}
);
width = 674;
}
);
metricLeft = n;
metricRight = n;
unicode = 117;
},
{
glyphname = v;
kernLeft = v;
kernRight = v;
lastChange = "2018-01-05 19:38:45 +0000";
layers = (
{
layerId = "CF9497EE-3EC0-42B6-AB9D-60F0E4A560B4";
name = "Bold Italic";
shapes = (
{
closed = 1;
nodes = (
(290,-25,o),
(390,-1,o),
(438,24,c),
(336,158,o),
(286,336,o),
(254,521,c),
(197,524,o),
(81,501,o),
(34,477,c),
(67,323,o),
(138,121,o),
(213,-23,c)
);
},
{
closed = 1;
nodes = (
(485,158,o),
(557,276,o),
(645,418,c),
(594,458,o),
(524,499,o),
(459,529,c),
(397,397,o),
(342,270,o),
(314,98,c),
(349,55,o),
(387,41,o),
(438,24,c)
);
}
);
width = 637;
}
);
metricLeft = x;
metricRight = x;
unicode = 118;
},
{
glyphname = w;
kernLeft = v;
kernRight = v;
lastChange = "2018-01-05 19:44:21 +0000";
layers = (
{
layerId = "CF9497EE-3EC0-42B6-AB9D-60F0E4A560B4";
name = "Bold Italic";
shapes = (
{
closed = 1;
nodes = (
(283,-28,o),
(399,-2,o),
(446,23,c),
(363,174,o),
(292,365,o),
(255,527,c),
(197,530,o),
(82,498,o),
(34,474,c),
(60,335,o),
(135,121,o),
(210,-23,c)
);
},
{
closed = 1;
nodes = (
(478,143,o),
(534,254,o),
(616,357,c),
(559,380,o),
(506,388,o),
(446,393,c),
(393,295,o),
(354,203,o),
(327,95,c),
(363,53,o),
(395,40,o),
(446,23,c)
);
},
{
closed = 1;
nodes = (
(647,-28,o),
(759,-9,o),
(806,16,c),
(720,151,o),
(682,214,o),
(616,357,c),
(559,359,o),
(526,325,o),
(479,301,c),
(497,182,o),
(529,79,o),
(574,-23,c)
);
},
{
closed = 1;
nodes = (
(851,175,o),
(898,272,o),
(999,415,c),
(952,467,o),
(875,508,o),
(809,535,c),
(746,415,o),
(699,271,o),
(673,95,c),
(709,53,o),
(755,33,o),
(806,16,c)
);
}
);
width = 992;
}
);
metricLeft = x;
metricRight = x;
unicode = 119;
},
{
glyphname = x;
lastChange = "2018-01-05 19:29:45 +0000";
layers = (
{
layerId = "CF9497EE-3EC0-42B6-AB9D-60F0E4A560B4";
name = "Bold Italic";
shapes = (
{
closed = 1;
nodes = (
(264,90,o),
(425,261,o),
(569,434,c),
(544,459,o),
(487,503,o),
(436,520,c),
(311,360,o),
(155,192,o),
(3,55,c),
(48,13,o),
(89,-5,o),
(140,-21,c)
);
},
{
closed = 1;
nodes = (
(421,206,o),
(313,375,o),
(244,522,c),
(171,512,o),
(88,481,o),
(30,440,c),
(138,250,o),
(238,107,o),
(354,-22,c),
(412,-13,o),
(502,34,o),
(544,67,c)
);
}
);
width = 573;
}
);
unicode = 120;
},
{
glyphname = y;
kernLeft = y;
kernRight = y;
lastChange = "2024-01-26 20:14:36 +0000";
layers = (
{
anchors = (
{
name = top;
pos = (354,524);
}
);
layerId = "CF9497EE-3EC0-42B6-AB9D-60F0E4A560B4";
name = "Bold Italic";
shapes = (
{
closed = 1;
nodes = (
(394,-152,o),
(582,240,o),
(635,408,c),
(591,446,o),
(513,496,o),
(454,517,c),
(403,237,o),
(255,12,o),
(112,-173,c),
(154,-209,o),
(256,-257,o),
(312,-267,c)
);
},
{
closed = 1;
nodes = (
(259,31,o),
(346,50,o),
(403,81,c),
(342,248,o),
(299,364,o),
(269,517,c),
(212,522,o),
(82,501,o),
(34,479,c),
(54,339,o),
(112,176,o),
(180,28,c)
);
}
);
width = 628;
}
);
metricLeft = x;
metricRight = x;
unicode = 121;
},
{
glyphname = z;
kernLeft = z;
kernRight = z;
lastChange = "2024-01-26 21:03:55 +0000";
layers = (
{
anchors = (
{
name = top;
pos = (321,524);
}
);
layerId = "CF9497EE-3EC0-42B6-AB9D-60F0E4A560B4";
name = "Bold Italic";
shapes = (
{
closed = 1;
nodes = (
(315,196,o),
(388,262,o),
(544,331,c),
(536,360,o),
(403,371,o),
(388,384,c),
(217,309,o),
(183,250,o),
(35,162,c),
(52,103,o),
(191,117,o),
(205,104,c)
);
},
{
closed = 1;
nodes = (
(525,1,o),
(528,25,o),
(528,52,cs),
(528,87,o),
(523,126,o),
(505,160,c),
(420,170,o),
(343,175,o),
(268,175,cs),
(189,175,o),
(113,170,o),
(35,162,c),
(33,153,o),
(32,140,o),
(32,125,cs),
(32,74,o),
(43,3,o),
(66,-18,c),
(168,-13,o),
(243,-8,o),
(324,-8,cs),
(383,-8,o),
(444,-11,o),
(522,-18,c)
);
},
{
closed = 1;
nodes = (
(546,344,o),
(547,361,o),
(547,379,cs),
(547,421,o),
(541,472,o),
(519,510,c),
(436,520,o),
(364,524,o),
(294,524,cs),
(219,524,o),
(147,519,o),
(68,511,c),
(65,494,o),
(63,467,o),
(63,439,cs),
(63,395,o),
(68,348,o),
(86,332,c),
(187,336,o),
(262,341,o),
(343,341,cs),
(402,341,o),
(465,338,o),
(544,331,c)
);
}
);
width = 591;
}
);
unicode = 122;
},
{
glyphname = "Be-cy";
lastChange = "2024-01-26 21:11:57 +0000";
layers = (
{
layerId = "CF9497EE-3EC0-42B6-AB9D-60F0E4A560B4";
name = "Bold Italic";
shapes = (
{
closed = 1;
nodes = (
(141,6,o),
(237,-18,o),
(327,-18,cs),
(491,-18,o),
(637,60,o),
(637,201,cs),
(637,334,o),
(556,424,o),
(426,424,cs),
(391,424,o),
(352,418,o),
(311,404,cs),
(247,383,o),
(224,358,o),
(224,337,cs),
(224,309,o),
(262,288,o),
(300,289,cs),
(351,291,o),
(386,250,o),
(386,206,cs),
(386,166,o),
(358,124,o),
(287,109,cs),
(209,92,o),
(101,70,o),
(61,54,c)
);
},
{
closed = 1;
nodes = (
(290,222,o),
(305,422,o),
(350,653,c),
(317,686,o),
(169,713,o),
(111,712,c),
(70,533,o),
(42,257,o),
(45,57,c),
(76,28,o),
(212,-9,o),
(267,-9,cs),
(273,-9,o),
(278,-8,o),
(282,-7,c)
);
},
{
closed = 1;
nodes = (
(250,513,o),
(381,522,o),
(521,522,cs),
(551,522,o),
(581,522,o),
(612,521,c),
(613,537,o),
(614,556,o),
(614,575,cs),
(614,618,o),
(610,665,o),
(600,704,c),
(514,717,o),
(416,723,o),
(321,723,cs),
(237,723,o),
(156,718,o),
(89,709,c),
(87,698,o),
(86,683,o),
(86,666,cs),
(86,607,o),
(97,523,o),
(118,499,c)
);
}
);
width = 664;
}
);
metricLeft = n;
metricRight = o;
unicode = 1041;
},
{
glyphname = "Ge-cy";
kernLeft = "Ge-cy";
kernRight = "Ge-cy";
lastChange = "2024-01-26 21:03:55 +0000";
layers = (
{
anchors = (
{
name = top;
pos = (355,723);
}
);
layerId = "CF9497EE-3EC0-42B6-AB9D-60F0E4A560B4";
name = "Bold Italic";
shapes = (
{
closed = 1;
nodes = (
(328,208,o),
(345,427,o),
(389,651,c),
(357,684,o),
(209,711,o),
(151,710,c),
(110,531,o),
(80,243,o),
(83,43,c),
(114,14,o),
(250,-23,o),
(305,-23,cs),
(311,-23,o),
(316,-22,o),
(320,-21,c)
);
},
{
closed = 1;
nodes = (
(241,510,o),
(360,518,o),
(489,518,cs),
(526,518,o),
(564,517,o),
(603,516,c),
(606,544,o),
(611,580,o),
(611,617,cs),
(611,646,o),
(608,676,o),
(599,702,c),
(513,715,o),
(415,721,o),
(320,721,cs),
(236,721,o),
(155,716,o),
(88,707,c),
(86,696,o),
(85,681,o),
(85,664,cs),
(85,605,o),
(96,521,o),
(117,497,c)
);
}
);
width = 585;
}
);
metricLeft = n;
metricRight = x;
unicode = 1043;
},
{
glyphname = "Gheupturn-cy";
kernLeft = "Ge-cy";
kernRight = "Ge-cy";
lastChange = "2024-01-26 21:03:55 +0000";
layers = (
{
layerId = "CF9497EE-3EC0-42B6-AB9D-60F0E4A560B4";
name = "Bold Italic";
shapes = (
{
closed = 1;
nodes = (
(612,688,o),
(617,755,o),
(630,824,c),
(580,837,o),
(535,842,o),
(481,842,c),
(477,814,o),
(475,787,o),
(475,759,cs),
(475,705,o),
(482,651,o),
(494,601,c),
(611,604,l)
);
},
{
ref = "Ge-cy";
},
{
ref = "Ge-cy";
}
);
width = 615;
}
);
unicode = 1168;
},
{
glyphname = "De-cy";
lastChange = "2024-01-26 21:03:55 +0000";
layers = (
{
layerId = "CF9497EE-3EC0-42B6-AB9D-60F0E4A560B4";
name = "Bold Italic";
shapes = (
{
closed = 1;
nodes = (
(595,-11,o),
(722,15,o),
(774,41,c),
(679,265,o),
(612,484,o),
(563,725,c),
(541,727,o),
(517,728,o),
(493,728,cs),
(431,728,o),
(367,721,o),
(316,700,c),
(373,486,o),
(435,230,o),
(531,-8,c)
);
},
{
closed = 1;
nodes = (
(169,-32,o),
(179,16,o),
(178,128,c),
(134,140,o),
(75,159,o),
(19,161,c),
(11,45,o),
(-3,-27,o),
(-30,-129,c),
(-7,-136,o),
(31,-139,o),
(68,-139,cs),
(101,-139,o),
(133,-137,o),
(155,-133,c)
);
},
{
closed = 1;
nodes = (
(195,-7,o),
(295,-5,o),
(398,-5,cs),
(501,-5,o),
(607,-7,o),
(732,-10,c),
(736,14,o),
(743,45,o),
(743,77,cs),
(743,103,o),
(739,128,o),
(726,151,c),
(598,163,o),
(465,168,o),
(336,168,cs),
(231,168,o),
(130,164,o),
(39,158,c),
(37,149,o),
(36,138,o),
(36,125,cs),
(36,76,o),
(51,7,o),
(81,-14,c)
);
},
{
closed = 1;
nodes = (
(339,217,o),
(409,415,o),
(448,620,c),
(409,666,o),
(373,681,o),
(316,700,c),
(257,480,o),
(166,279,o),
(40,106,c),
(95,44,o),
(165,42,o),
(221,25,c)
);
},
{
closed = 1;
nodes = (
(775,-56,o),
(782,-2,o),
(803,137,c),
(757,150,o),
(692,161,o),
(633,161,c),
(597,52,o),
(580,-44,o),
(580,-154,c),
(605,-162,o),
(647,-167,o),
(688,-167,cs),
(721,-167,o),
(753,-164,o),
(775,-156,c)
);
}
);
width = 828;
}
);
metricLeft = x;
metricRight = x;
unicode = 1044;
},
{
glyphname = "Io-cy";
lastChange = "2017-11-27 15:32:02 +0000";
layers = (
{
layerId = "CF9497EE-3EC0-42B6-AB9D-60F0E4A560B4";
name = "Bold Italic";
shapes = (
{
closed = 1;
nodes = (
(536,763,o),
(573,804,o),
(573,845,cs),
(573,899,o),
(547,957,o),
(498,957,cs),
(449,957,o),
(394,926,o),
(394,872,cs),
(394,818,o),
(421,763,o),
(470,763,cs)
);
},
{
closed = 1;
nodes = (
(309,775,o),
(346,816,o),
(346,858,cs),
(346,911,o),
(320,970,o),
(271,970,cs),
(222,970,o),
(167,938,o),
(167,884,cs),
(167,831,o),
(194,775,o),
(243,775,cs)
);
},
{
ref = E;
}
);
width = 640;
}
);
unicode = 1025;
},
{
glyphname = "Zhe-cy";
lastChange = "2024-01-26 21:03:55 +0000";
layers = (
{
layerId = "CF9497EE-3EC0-42B6-AB9D-60F0E4A560B4";
name = "Bold Italic";
shapes = (
{
closed = 1;
nodes = (
(889,-2,o),
(981,62,o),
(1018,102,c),
(978,170,o),
(912,280,o),
(847,340,c),
(913,401,o),
(1002,536,o),
(1047,623,c),
(1006,656,o),
(912,700,o),
(852,718,c),
(792,612,o),
(677,433,o),
(595,348,c),
(678,269,o),
(765,74,o),
(824,-20,c)
);
},
{
closed = 1;
nodes = (
(250,105,o),
(336,225,o),
(439,352,c),
(368,479,o),
(300,618,o),
(264,725,c),
(196,708,o),
(104,661,o),
(62,623,c),
(94,527,o),
(137,422,o),
(191,340,c),
(125,285,o),
(55,190,o),
(-4,115,c),
(28,71,o),
(119,7,o),
(182,-18,c)
);
},
{
closed = 1;
nodes = (
(620,181,o),
(656,474,o),
(688,659,c),
(653,694,o),
(496,723,o),
(435,721,c),
(398,577,o),
(368,296,o),
(368,105,cs),
(368,85,o),
(368,66,o),
(369,49,c),
(428,-4,o),
(559,-20,o),
(621,-20,c)
);
}
);
width = 1044;
}
);
metricLeft = x;
metricRight = x;
unicode = 1046;
},
{
glyphname = "Ze-cy";
lastChange = "2024-01-26 21:12:04 +0000";
layers = (
{
layerId = "CF9497EE-3EC0-42B6-AB9D-60F0E4A560B4";
name = "Bold Italic";
shapes = (
{
closed = 1;
nodes = (
(60,33,o),
(168,-20,o),
(273,-20,cs),
(447,-20,o),
(543,100,o),
(543,212,cs),
(543,310,o),
(469,403,o),
(309,403,cs),
(297,403,o),
(287,401,o),
(276,401,cs),
(267,401,o),
(258,402,o),
(246,406,c),
(248,396,o),
(249,388,o),
(249,380,cs),
(249,353,o),
(233,319,o),
(227,290,c),
(291,290,o),
(322,258,o),
(322,227,cs),
(322,198,o),
(294,169,o),
(238,169,cs),
(197,169,o),
(140,185,o),
(67,228,c),
(44,202,o),
(26,179,o),
(9,150,c)
);
},
{
closed = 1;
nodes = (
(445,288,o),
(550,417,o),
(550,535,cs),
(550,633,o),
(477,723,o),
(335,723,cs),
(181,723,o),
(95,658,o),
(95,581,cs),
(95,523,o),
(129,486,o),
(178,486,cs),
(240,486,o),
(248,535,o),
(302,535,cs),
(343,535,o),
(361,516,o),
(361,493,cs),
(361,455,o),
(315,406,o),
(246,406,c),
(237,372,o),
(230,316,o),
(227,290,c)
);
}
);
width = 569;
}
);
metricLeft = o;
metricRight = o;
unicode = 1047;
},
{
glyphname = "Ii-cy";
lastChange = "2024-01-26 21:03:55 +0000";
layers = (
{
anchors = (
{
name = top;
pos = (418,723);
}
);
layerId = "CF9497EE-3EC0-42B6-AB9D-60F0E4A560B4";
name = "Bold Italic";
shapes = (
{
closed = 1;
nodes = (
(282,209,o),
(300,439,o),
(345,663,c),
(312,696,o),
(164,723,o),
(106,722,c),
(64,540,o),
(34,245,o),
(37,45,c),
(67,16,o),
(202,-21,o),
(257,-21,cs),
(264,-21,o),
(270,-20,o),
(274,-19,c)
);
},
{
closed = 1;
nodes = (
(345,80,o),
(406,207,o),
(460,315,cs),
(480,356,o),
(513,552,o),
(513,659,cs),
(513,689,o),
(510,712,o),
(504,722,c),
(419,555,o),
(342,392,o),
(295,326,cs),
(272,295,o),
(256,182,o),
(256,93,cs),
(256,40,o),
(262,-4,o),
(274,-19,c)
);
},
{
closed = 1;
nodes = (
(680,210,o),
(698,440,o),
(742,664,c),
(709,697,o),
(562,724,o),
(504,722,c),
(462,543,o),
(432,246,o),
(435,46,c),
(465,17,o),
(602,-20,o),
(657,-20,cs),
(663,-20,o),
(668,-20,o),
(672,-19,c)
);
}
);
width = 740;
}
);
metricLeft = n;
metricRight = n;
unicode = 1048;
},
{
glyphname = "El-cy";
lastChange = "2024-01-26 21:03:55 +0000";
layers = (
{
layerId = "CF9497EE-3EC0-42B6-AB9D-60F0E4A560B4";
name = "Bold Italic";
shapes = (
{
closed = 1;
nodes = (
(551,-20,o),
(678,6,o),
(730,32,c),
(685,256,o),
(600,550,o),
(519,723,c),
(499,725,o),
(475,725,o),
(450,725,cs),
(378,725,o),
(293,718,o),
(240,697,c),
(322,525,o),
(440,155,o),
(487,-17,c)
);
},
{
closed = 1;
nodes = (
(300,174,o),
(354,331,o),
(393,535,c),
(355,582,o),
(313,577,o),
(257,595,c),
(209,437,o),
(122,287,o),
(-4,114,c),
(51,52,o),
(150,-1,o),
(206,-18,c)
);
}
);
width = 763;
}
);
metricLeft = x;
metricRight = x;
unicode = 1051;
},
{
glyphname = "Pe-cy";
lastChange = "2024-01-26 21:03:55 +0000";
layers = (
{
layerId = "CF9497EE-3EC0-42B6-AB9D-60F0E4A560B4";
name = "Bold Italic";
shapes = (
{
closed = 1;
nodes = (
(294,209,o),
(310,400,o),
(354,624,c),
(321,657,o),
(174,684,o),
(116,683,c),
(74,502,o),
(46,244,o),
(49,44,c),
(79,15,o),
(215,-22,o),
(271,-22,cs),
(277,-22,o),
(282,-21,o),
(286,-20,c)
);
},
{
closed = 1;
nodes = (
(691,210,o),
(707,401,o),
(752,625,c),
(719,658,o),
(571,685,o),
(513,684,c),
(472,505,o),
(443,245,o),
(446,45,c),
(477,16,o),
(613,-21,o),
(668,-21,cs),
(674,-21,o),
(679,-20,o),
(683,-19,c)
);
},
{
closed = 1;
nodes = (
(281,513,o),
(423,531,o),
(576,531,cs),
(626,531,o),
(678,529,o),
(732,524,c),
(737,552,o),
(743,589,o),
(743,627,cs),
(743,655,o),
(739,685,o),
(728,710,c),
(617,723,o),
(491,729,o),
(370,729,cs),
(268,729,o),
(170,725,o),
(89,717,c),
(87,706,o),
(86,692,o),
(86,676,cs),
(86,616,o),
(99,531,o),
(126,506,c)
);
}
);
width = 753;
}
);
metricLeft = n;
metricRight = n;
unicode = 1055;
},
{
glyphname = "U-cy";
lastChange = "2018-01-05 18:53:42 +0000";
layers = (
{
anchors = (
{
name = top;
pos = (393,723);
}
);
layerId = "CF9497EE-3EC0-42B6-AB9D-60F0E4A560B4";
name = "Bold Italic";
shapes = (
{
closed = 1;
nodes = (
(540,165,o),
(636,384,o),
(705,631,c),
(647,674,o),
(564,706,o),
(484,723,c),
(426,454,o),
(326,262,o),
(173,96,c),
(215,46,o),
(352,-14,o),
(403,-30,c)
);
},
{
closed = 1;
nodes = (
(357,238,o),
(380,262,o),
(451,291,c),
(371,460,o),
(333,572,o),
(308,723,c),
(244,726,o),
(107,690,o),
(54,664,c),
(111,477,o),
(173,370,o),
(277,244,c)
);
}
);
width = 675;
}
);
metricLeft = x;
metricRight = x;
unicode = 1059;
},
{
glyphname = "Ef-cy";
lastChange = "2024-01-26 21:04:00 +0000";
layers = (
{
layerId = "CF9497EE-3EC0-42B6-AB9D-60F0E4A560B4";
name = "Bold Italic";
shapes = (
{
closed = 1;
nodes = (
(405,272,l),
(319,279,o),
(283,321,o),
(283,365,cs),
(283,416,o),
(333,469,o),
(416,469,cs),
(422,469,o),
(427,468,o),
(433,468,c),
(440,639,l),
(428,640,o),
(417,640,o),
(406,640,cs),
(187,640,o),
(51,487,o),
(51,341,cs),
(51,221,o),
(145,107,o),
(361,93,c)
);
},
{
closed = 1;
nodes = (
(594,209,o),
(609,440,o),
(653,664,c),
(605,692,o),
(473,724,o),
(414,723,c),
(376,553,o),
(349,301,o),
(349,105,cs),
(349,66,l),
(378,19,o),
(513,-21,o),
(569,-21,cs),
(575,-21,o),
(581,-20,o),
(585,-19,c)
);
},
{
closed = 1;
nodes = (
(550,66,o),
(561,66,o),
(572,66,cs),
(774,66,o),
(902,225,o),
(902,373,cs),
(902,493,o),
(818,606,o),
(623,622,c),
(609,465,l),
(675,460,o),
(704,417,o),
(704,372,cs),
(704,319,o),
(661,263,o),
(588,269,c),
(538,67,l)
);
}
);
width = 930;
}
);
unicode = 1060;
},
{
glyphname = "Che-cy";
lastChange = "2024-01-26 21:03:55 +0000";
layers = (
{
layerId = "CF9497EE-3EC0-42B6-AB9D-60F0E4A560B4";
name = "Bold Italic";
shapes = (
{
closed = 1;
nodes = (
(453,344,o),
(463,382,o),
(463,409,cs),
(463,425,o),
(460,438,o),
(449,441,c),
(423,408,o),
(395,392,o),
(371,392,cs),
(330,392,o),
(298,435,o),
(298,515,cs),
(298,555,o),
(306,605,o),
(325,663,c),
(292,696,o),
(144,723,o),
(86,722,c),
(61,635,o),
(49,560,o),
(49,497,cs),
(49,318,o),
(140,235,o),
(250,235,cs),
(316,235,o),
(389,265,o),
(453,322,c)
);
},
{
closed = 1;
nodes = (
(664,210,o),
(685,439,o),
(730,663,c),
(697,696,o),
(549,723,o),
(491,722,c),
(449,540,o),
(416,246,o),
(419,46,c),
(449,17,o),
(584,-20,o),
(639,-20,cs),
(646,-20,o),
(652,-19,o),
(656,-18,c)
);
}
);
width = 727;
}
);
metricLeft = o;
metricRight = n;
unicode = 1063;
},
{
glyphname = "Tse-cy";
lastChange = "2024-01-26 21:04:00 +0000";
layers = (
{
layerId = "CF9497EE-3EC0-42B6-AB9D-60F0E4A560B4";
name = "Bold Italic";
shapes = (
{
closed = 1;
nodes = (
(283,222,o),
(300,439,o),
(344,663,c),
(312,696,o),
(164,723,o),
(106,722,c),
(64,540,o),
(35,258,o),
(38,58,c),
(67,29,o),
(202,-8,o),
(258,-8,cs),
(265,-8,o),
(271,-7,o),
(275,-6,c)
);
},
{
closed = 1;
nodes = (
(271,-14,o),
(396,-8,o),
(552,-8,cs),
(608,-8,o),
(667,-8,o),
(734,-10,c),
(738,14,o),
(745,45,o),
(745,77,cs),
(745,102,o),
(741,128,o),
(728,150,c),
(596,162,o),
(467,168,o),
(342,168,cs),
(243,168,o),
(147,164,o),
(55,158,c),
(53,149,o),
(52,137,o),
(52,124,cs),
(52,72,o),
(67,-3,o),
(99,-24,c)
);
},
{
closed = 1;
nodes = (
(755,-56,o),
(762,13,o),
(785,164,c),
(735,178,o),
(665,189,o),
(600,190,c),
(561,71,o),
(543,-43,o),
(543,-162,c),
(570,-171,o),
(617,-177,o),
(663,-177,cs),
(697,-177,o),
(731,-173,o),
(755,-165,c)
);
},
{
closed = 1;
nodes = (
(681,223,o),
(698,440,o),
(742,664,c),
(709,697,o),
(562,724,o),
(503,722,c),
(464,554,o),
(436,293,o),
(436,96,cs),
(436,59,l),
(466,30,o),
(602,-7,o),
(657,-7,cs),
(663,-7,o),
(668,-7,o),
(672,-6,c)
);
}
);
width = 839;
}
);
unicode = 1062;
},
{
glyphname = "Sha-cy";
lastChange = "2024-01-26 21:03:55 +0000";
layers = (
{
layerId = "CF9497EE-3EC0-42B6-AB9D-60F0E4A560B4";
name = "Bold Italic";
shapes = (
{
closed = 1;
nodes = (
(634,223,o),
(652,439,o),
(696,663,c),
(664,696,o),
(516,723,o),
(458,722,c),
(416,541,o),
(386,258,o),
(389,58,c),
(420,29,o),
(556,-8,o),
(611,-8,cs),
(617,-8,o),
(622,-7,o),
(626,-6,c)
);
},
{
closed = 1;
nodes = (
(283,224,o),
(301,440,o),
(346,664,c),
(313,697,o),
(165,724,o),
(107,723,c),
(66,544,o),
(35,259,o),
(38,59,c),
(69,30,o),
(205,-7,o),
(260,-7,cs),
(266,-7,o),
(271,-6,o),
(275,-5,c)
);
},
{
closed = 1;
nodes = (
(283,-12,o),
(511,-6,o),
(726,-6,cs),
(812,-6,o),
(897,-7,o),
(975,-9,c),
(979,15,o),
(986,46,o),
(986,77,cs),
(986,103,o),
(982,129,o),
(969,152,c),
(819,166,o),
(645,172,o),
(478,172,cs),
(325,172,o),
(178,167,o),
(60,158,c),
(58,149,o),
(57,136,o),
(57,122,cs),
(57,71,o),
(71,-2,o),
(100,-24,c)
);
},
{
closed = 1;
nodes = (
(990,224,o),
(1009,440,o),
(1053,664,c),
(1020,697,o),
(872,724,o),
(814,723,c),
(773,544,o),
(742,259,o),
(745,59,c),
(776,30,o),
(912,-7,o),
(967,-7,cs),
(973,-7,o),
(978,-6,o),
(982,-5,c)
);
}
);
width = 1049;
}
);
metricLeft = n;
metricRight = n;
unicode = 1064;
},
{
glyphname = "Shcha-cy";
lastChange = "2024-01-26 21:03:55 +0000";
layers = (
{
layerId = "CF9497EE-3EC0-42B6-AB9D-60F0E4A560B4";
name = "Bold Italic";
shapes = (
{
closed = 1;
nodes = (
(633,222,o),
(651,438,o),
(695,662,c),
(662,695,o),
(514,722,o),
(456,721,c),
(415,540,o),
(385,257,o),
(388,57,c),
(419,28,o),
(555,-9,o),
(610,-9,cs),
(616,-9,o),
(621,-8,o),
(625,-7,c)
);
},
{
closed = 1;
nodes = (
(283,223,o),
(300,439,o),
(344,663,c),
(311,696,o),
(164,723,o),
(106,722,c),
(64,543,o),
(35,258,o),
(38,58,c),
(68,29,o),
(204,-8,o),
(260,-8,cs),
(266,-8,o),
(271,-7,o),
(275,-6,c)
);
},
{
closed = 1;
nodes = (
(299,-13,o),
(533,-8,o),
(755,-8,cs),
(855,-8,o),
(953,-9,o),
(1043,-11,c),
(1047,13,o),
(1054,45,o),
(1054,77,cs),
(1054,102,o),
(1050,127,o),
(1037,150,c),
(873,164,o),
(682,171,o),
(500,171,cs),
(341,171,o),
(187,166,o),
(64,157,c),
(62,148,o),
(61,136,o),
(61,123,cs),
(61,72,o),
(76,-3,o),
(108,-25,c)
);
},
{
closed = 1;
nodes = (
(1064,-56,o),
(1071,12,o),
(1094,163,c),
(1044,178,o),
(974,189,o),
(910,190,c),
(870,70,o),
(852,-44,o),
(852,-163,c),
(879,-172,o),
(926,-178,o),
(972,-178,cs),
(1006,-178,o),
(1040,-174,o),
(1064,-166,c)
);
},
{
closed = 1;
nodes = (
(990,223,o),
(1007,439,o),
(1051,663,c),
(1018,696,o),
(871,723,o),
(813,722,c),
(771,543,o),
(742,258,o),
(745,58,c),
(775,29,o),
(911,-8,o),
(967,-8,cs),
(973,-8,o),
(978,-7,o),
(982,-6,c)
);
}
);
width = 1148;
}
);
unicode = 1065;
},
{
glyphname = "Dzhe-cy";
lastChange = "2024-01-26 21:04:00 +0000";
layers = (
{
layerId = "CF9497EE-3EC0-42B6-AB9D-60F0E4A560B4";
name = "Bold Italic";
shapes = (
{
closed = 1;
nodes = (
(284,224,o),
(299,439,o),
(343,663,c),
(311,696,o),
(163,723,o),
(105,722,c),
(65,549,o),
(39,288,o),
(39,91,cs),
(39,60,l),
(68,31,o),
(203,-6,o),
(259,-6,cs),
(266,-6,o),
(272,-5,o),
(276,-4,c)
);
},
{
closed = 1;
nodes = (
(279,-12,o),
(357,-6,o),
(490,-6,cs),
(536,-6,o),
(590,-6,o),
(657,-8,c),
(661,16,o),
(668,47,o),
(668,79,cs),
(668,104,o),
(664,130,o),
(651,152,c),
(519,164,o),
(416,170,o),
(315,170,cs),
(235,170,o),
(155,166,o),
(63,160,c),
(61,151,o),
(60,139,o),
(60,126,cs),
(60,74,o),
(75,-1,o),
(107,-22,c)
);
},
{
closed = 1;
nodes = (
(458,-98,o),
(465,-29,o),
(488,122,c),
(438,136,o),
(368,147,o),
(303,148,c),
(264,29,o),
(246,-85,o),
(246,-204,c),
(273,-213,o),
(320,-219,o),
(366,-219,cs),
(400,-219,o),
(434,-215,o),
(458,-207,c)
);
},
{
closed = 1;
nodes = (
(682,225,o),
(697,440,o),
(741,664,c),
(708,697,o),
(561,724,o),
(502,722,c),
(464,554,o),
(437,297,o),
(437,100,cs),
(437,61,l),
(467,32,o),
(603,-5,o),
(658,-5,cs),
(664,-5,o),
(669,-5,o),
(673,-4,c)
);
}
);
width = 740;
}
);
unicode = 1039;
},
{
glyphname = "Softsign-cy";
lastChange = "2024-01-26 21:12:04 +0000";
layers = (
{
layerId = "CF9497EE-3EC0-42B6-AB9D-60F0E4A560B4";
name = "Bold Italic";
shapes = (
{
closed = 1;
nodes = (
(104,6,o),
(201,-19,o),
(302,-19,cs),
(462,-19,o),
(632,44,o),
(632,201,cs),
(632,328,o),
(546,412,o),
(408,412,cs),
(375,412,o),
(339,407,o),
(300,397,cs),
(236,379,o),
(214,353,o),
(214,328,cs),
(214,295,o),
(254,266,o),
(292,268,cs),
(363,271,o),
(398,224,o),
(398,178,cs),
(398,142,o),
(375,106,o),
(330,97,cs),
(251,82,o),
(96,63,o),
(55,47,c)
);
},
{
closed = 1;
nodes = (
(284,215,o),
(299,424,o),
(344,666,c),
(311,699,o),
(163,726,o),
(105,724,c),
(66,554,o),
(39,280,o),
(39,81,cs),
(39,51,l),
(70,21,o),
(206,-16,o),
(261,-16,cs),
(267,-16,o),
(272,-15,o),
(276,-14,c)
);
}
);
width = 659;
}
);
metricLeft = n;
metricRight = o;
unicode = 1068;
},
{
glyphname = "Hardsign-cy";
lastChange = "2024-01-26 21:03:55 +0000";
layers = (
{
layerId = "CF9497EE-3EC0-42B6-AB9D-60F0E4A560B4";
name = "Bold Italic";
shapes = (
{
closed = 1;
nodes = (
(212,563,o),
(296,577,o),
(406,577,cs),
(421,577,o),
(436,576,o),
(451,576,c),
(456,619,o),
(311,674,o),
(296,724,c),
(283,725,o),
(270,725,o),
(256,725,cs),
(214,725,o),
(164,721,o),
(89,711,c),
(88,701,o),
(87,688,o),
(87,673,cs),
(87,622,o),
(95,551,o),
(111,530,c)
);
},
{
pos = (191,0);
ref = "Softsign-cy";
}
);
width = 869;
}
);
unicode = 1066;
},
{
glyphname = "Lje-cy";
lastChange = "2017-11-27 15:32:02 +0000";
layers = (
{
layerId = "CF9497EE-3EC0-42B6-AB9D-60F0E4A560B4";
name = "Bold Italic";
shapes = (
{
closed = 1;
nodes = (
(538,46,o),
(585,43,o),
(631,43,cs),
(682,43,o),
(733,46,o),
(760,60,c),
(743,292,o),
(713,517,o),
(675,723,c),
(656,724,o),
(635,725,o),
(613,725,cs),
(539,725,o),
(451,717,o),
(396,697,c),
(456,511,o),
(493,284,o),
(508,47,c)
);
},
{
closed = 1;
nodes = (
(380,181,o),
(435,356,o),
(500,543,c),
(462,574,o),
(420,592,o),
(364,603,c),
(288,445,o),
(180,283,o),
(26,114,c),
(81,52,o),
(207,-1,o),
(263,-18,c)
);
},
{
closed = 1;
nodes = (
(564,3,o),
(654,-20,o),
(746,-20,cs),
(934,-20,o),
(1085,56,o),
(1085,219,cs),
(1085,352,o),
(987,432,o),
(848,432,cs),
(723,432,o),
(648,388,o),
(648,350,cs),
(648,315,o),
(698,282,o),
(738,282,cs),
(812,282,o),
(845,241,o),
(845,199,cs),
(845,158,o),
(812,116,o),
(755,116,cs),
(675,116,o),
(549,63,o),
(508,47,c)
);
}
);
width = 1130;
}
);
unicode = 1033;
},
{
glyphname = "Nje-cy";
lastChange = "2024-01-26 21:04:00 +0000";
layers = (
{
layerId = "CF9497EE-3EC0-42B6-AB9D-60F0E4A560B4";
name = "Bold Italic";
shapes = (
{
closed = 1;
nodes = (
(284,211,o),
(298,442,o),
(344,663,c),
(311,696,o),
(163,723,o),
(105,722,c),
(65,549,o),
(39,275,o),
(39,77,cs),
(39,46,l),
(98,14,o),
(202,-12,o),
(276,-18,c)
);
},
{
closed = 1;
nodes = (
(359,246,o),
(419,252,o),
(459,252,cs),
(468,252,o),
(477,252,o),
(483,251,c),
(483,279,o),
(485,309,o),
(485,340,cs),
(485,375,o),
(483,409,o),
(471,440,c),
(442,444,o),
(361,452,o),
(305,452,cs),
(294,452,o),
(284,452,o),
(276,451,c),
(284,386,o),
(297,280,o),
(321,238,c)
);
},
{
closed = 1;
nodes = (
(501,6,o),
(598,-19,o),
(699,-19,cs),
(859,-19,o),
(1029,44,o),
(1029,201,cs),
(1029,328,o),
(943,412,o),
(805,412,cs),
(772,412,o),
(736,407,o),
(697,397,cs),
(633,379,o),
(611,353,o),
(611,328,cs),
(611,295,o),
(651,266,o),
(689,268,cs),
(760,271,o),
(795,224,o),
(795,178,cs),
(795,142,o),
(772,106,o),
(727,97,cs),
(648,82,o),
(493,63,o),
(452,47,c)
);
},
{
closed = 1;
nodes = (
(681,215,o),
(696,424,o),
(741,666,c),
(708,699,o),
(560,726,o),
(502,724,c),
(463,554,o),
(436,280,o),
(436,81,cs),
(436,51,l),
(467,21,o),
(603,-16,o),
(658,-16,cs),
(664,-16,o),
(669,-15,o),
(673,-14,c)
);
}
);
width = 1075;
}
);
unicode = 1034;
},
{
glyphname = "E-cy";
lastChange = "2024-01-26 21:03:55 +0000";
layers = (
{
layerId = "CF9497EE-3EC0-42B6-AB9D-60F0E4A560B4";
name = "Bold Italic";
shapes = (
{
closed = 1;
nodes = (
(417,287,o),
(424,340,o),
(424,378,cs),
(424,390,o),
(423,400,o),
(422,408,c),
(352,415,o),
(304,418,o),
(265,418,cs),
(251,418,o),
(239,418,o),
(227,417,c),
(213,379,o),
(76,338,o),
(80,305,c),
(99,306,o),
(117,306,o),
(134,306,cs),
(233,306,o),
(309,296,o),
(402,272,c)
);
},
{
ref = C;
}
);
width = 699;
}
);
unicode = 1028;
},
{
glyphname = "Ereversed-cy";
lastChange = "2024-01-26 21:03:55 +0000";
layers = (
{
layerId = "CF9497EE-3EC0-42B6-AB9D-60F0E4A560B4";
name = "Bold Italic";
shapes = (
{
closed = 1;
nodes = (
(548,-18,o),
(679,187,o),
(679,381,cs),
(679,556,o),
(573,723,o),
(332,723,cs),
(176,723,o),
(99,657,o),
(99,588,cs),
(99,528,o),
(131,489,o),
(180,489,cs),
(253,489,o),
(266,536,o),
(317,536,cs),
(389,536,o),
(423,455,o),
(423,366,cs),
(423,261,o),
(374,146,o),
(279,146,cs),
(215,146,o),
(143,192,o),
(101,242,c),
(80,217,o),
(40,149,o),
(27,126,c),
(103,25,o),
(209,-18,o),
(326,-18,cs)
);
},
{
closed = 1;
nodes = (
(379,296,o),
(455,306,o),
(554,306,cs),
(571,306,o),
(589,306,o),
(608,305,c),
(612,338,o),
(475,379,o),
(461,417,c),
(449,418,o),
(437,418,o),
(423,418,cs),
(384,418,o),
(336,415,o),
(266,408,c),
(265,400,o),
(264,390,o),
(264,378,cs),
(264,340,o),
(271,287,o),
(286,272,c)
);
}
);
width = 707;
}
);
unicode = 1069;
},
{
glyphname = "Tshe-cy";
lastChange = "2024-01-26 21:04:00 +0000";
layers = (
{
layerId = "CF9497EE-3EC0-42B6-AB9D-60F0E4A560B4";
name = "Bold Italic";
shapes = (
{
closed = 1;
nodes = (
(487,128,o),
(500,348,o),
(522,491,c),
(484,521,o),
(344,551,o),
(286,550,c),
(264,417,o),
(247,234,o),
(247,83,cs),
(247,48,l),
(277,19,o),
(412,-18,o),
(467,-18,cs),
(474,-18,o),
(480,-17,o),
(484,-16,c)
);
},
{
closed = 1;
nodes = (
(246,526,o),
(357,534,o),
(475,534,cs),
(550,534,o),
(627,531,o),
(711,523,c),
(714,547,o),
(717,576,o),
(717,606,cs),
(717,640,o),
(714,676,o),
(706,709,c),
(576,724,o),
(434,734,o),
(302,734,cs),
(226,734,o),
(155,731,o),
(90,724,c),
(88,716,o),
(88,705,o),
(88,694,cs),
(88,638,o),
(105,553,o),
(127,514,c)
);
},
{
closed = 1;
nodes = (
(460,287,o),
(468,285,o),
(498,279,c),
(517,313,o),
(546,327,o),
(575,327,cs),
(618,327,o),
(658,295,o),
(657,247,cs),
(654,148,o),
(652,108,o),
(647,17,c),
(678,-4,o),
(788,-19,o),
(853,-19,cs),
(863,-19,o),
(871,-19,o),
(878,-18,c),
(888,48,o),
(896,116,o),
(900,213,cs),
(907,349,o),
(789,454,o),
(659,454,cs),
(570,454,o),
(476,406,o),
(410,287,c)
);
}
);
width = 949;
}
);
unicode = 1035;
},
{
glyphname = "Iu-cy";
lastChange = "2024-01-26 21:03:55 +0000";
layers = (
{
layerId = "CF9497EE-3EC0-42B6-AB9D-60F0E4A560B4";
name = "Bold Italic";
shapes = (
{
closed = 1;
nodes = (
(310,273,o),
(392,288,o),
(500,288,cs),
(516,288,o),
(533,288,o),
(550,287,c),
(555,330,o),
(425,385,o),
(410,435,c),
(396,436,o),
(381,437,o),
(364,437,cs),
(318,437,o),
(260,432,o),
(188,423,c),
(187,414,o),
(186,401,o),
(186,387,cs),
(186,335,o),
(194,262,o),
(210,241,c)
);
},
{
pos = (321,0);
ref = O;
},
{
ref = I;
}
);
width = 1057;
}
);
unicode = 1070;
},
{
glyphname = "Ia-cy";
lastChange = "2024-01-26 21:04:00 +0000";
layers = (
{
layerId = "CF9497EE-3EC0-42B6-AB9D-60F0E4A560B4";
name = "Bold Italic";
shapes = (
{
closed = 1;
nodes = (
(421,243,o),
(534,265,o),
(578,324,c),
(559,352,o),
(520,408,o),
(511,419,c),
(478,402,o),
(447,394,o),
(420,394,cs),
(366,394,o),
(328,427,o),
(328,487,cs),
(328,545,o),
(359,573,o),
(387,573,cs),
(423,573,o),
(445,536,o),
(445,515,cs),
(445,502,o),
(445,501,o),
(453,501,cs),
(470,501,ls),
(474,501,o),
(479,501,o),
(485,500,cs),
(516,496,o),
(526,513,o),
(526,551,cs),
(526,646,o),
(471,722,o),
(362,722,cs),
(196,722,o),
(107,593,o),
(107,470,cs),
(107,354,o),
(184,243,o),
(346,243,cs)
);
},
{
closed = 1;
nodes = (
(283,69,o),
(334,159,o),
(390,272,c),
(207,324,l),
(158,239,o),
(86,152,o),
(25,106,c),
(62,66,o),
(146,5,o),
(216,-21,c)
);
},
{
closed = 1;
nodes = (
(654,211,o),
(676,440,o),
(720,664,c),
(687,697,o),
(540,724,o),
(482,723,c),
(440,544,o),
(406,246,o),
(409,46,c),
(448,17,o),
(564,-20,o),
(627,-20,cs),
(634,-20,o),
(640,-19,o),
(646,-18,c)
);
}
);
width = 716;
}
);
unicode = 1071;
},
{
glyphname = "Dje-cy";
lastChange = "2024-01-26 21:04:00 +0000";
layers = (
{
layerId = "CF9497EE-3EC0-42B6-AB9D-60F0E4A560B4";
name = "Bold Italic";
shapes = (
{
closed = 1;
nodes = (
(487,128,o),
(500,348,o),
(522,491,c),
(484,521,o),
(344,551,o),
(286,550,c),
(264,417,o),
(247,234,o),
(247,83,cs),
(247,48,l),
(277,19,o),
(412,-18,o),
(467,-18,cs),
(474,-18,o),
(480,-17,o),
(484,-16,c)
);
},
{
closed = 1;
nodes = (
(246,526,o),
(357,534,o),
(475,534,cs),
(550,534,o),
(627,531,o),
(711,523,c),
(714,547,o),
(717,576,o),
(717,606,cs),
(717,640,o),
(714,676,o),
(706,709,c),
(576,724,o),
(434,734,o),
(302,734,cs),
(226,734,o),
(155,731,o),
(90,724,c),
(88,716,o),
(88,705,o),
(88,694,cs),
(88,638,o),
(105,553,o),
(127,514,c)
);
},
{
closed = 1;
nodes = (
(460,287,o),
(468,285,o),
(498,279,c),
(517,313,o),
(546,327,o),
(574,327,cs),
(617,327,o),
(657,295,o),
(657,247,cs),
(657,150,o),
(624,33,o),
(557,-69,c),
(576,-93,o),
(592,-125,o),
(616,-156,c),
(790,-69,o),
(891,67,o),
(900,213,cs),
(908,349,o),
(791,454,o),
(660,454,cs),
(571,454,o),
(476,406,o),
(410,287,c)
);
}
);
width = 944;
}
);
unicode = 1026;
},
{
glyphname = "Yat-cy";
lastChange = "2024-01-26 21:04:00 +0000";
layers = (
{
layerId = "CF9497EE-3EC0-42B6-AB9D-60F0E4A560B4";
name = "Bold Italic";
shapes = (
{
closed = 1;
nodes = (
(197,6,o),
(294,-19,o),
(395,-19,cs),
(555,-19,o),
(725,44,o),
(725,201,cs),
(725,328,o),
(639,412,o),
(501,412,cs),
(468,412,o),
(432,407,o),
(393,397,cs),
(329,379,o),
(307,353,o),
(307,328,cs),
(307,295,o),
(347,266,o),
(385,268,cs),
(456,271,o),
(491,224,o),
(491,178,cs),
(491,142,o),
(468,106,o),
(423,97,cs),
(344,82,o),
(189,63,o),
(148,47,c)
);
},
{
closed = 1;
nodes = (
(377,215,o),
(392,424,o),
(437,666,c),
(404,699,o),
(256,726,o),
(198,724,c),
(159,554,o),
(132,280,o),
(132,81,cs),
(132,51,l),
(163,21,o),
(299,-16,o),
(354,-16,cs),
(360,-16,o),
(365,-15,o),
(369,-14,c)
);
},
{
closed = 1;
nodes = (
(75,594,o),
(70,557,o),
(70,506,c),
(107,506,ls),
(257,506,o),
(411,490,o),
(562,467,c),
(574,520,o),
(579,573,o),
(579,637,c),
(494,644,o),
(410,647,o),
(328,647,cs),
(248,647,o),
(169,644,o),
(89,638,c)
);
}
);
width = 771;
}
);
unicode = 1122;
},
{
glyphname = "Fita-cy";
lastChange = "2024-01-26 21:03:55 +0000";
layers = (
{
layerId = "CF9497EE-3EC0-42B6-AB9D-60F0E4A560B4";
name = "Bold Italic";
shapes = (
{
closed = 1;
nodes = (
(169,723,o),
(48,530,o),
(48,287,cs),
(48,120,o),
(156,-18,o),
(359,-18,cs),
(549,-18,o),
(709,172,o),
(709,393,cs),
(709,611,o),
(612,723,o),
(424,723,cs)
);
},
{
closed = 1;
nodes = (
(336,155,o),
(298,210,o),
(298,299,cs),
(298,451,o),
(349,577,o),
(437,577,cs),
(504,577,o),
(543,495,o),
(543,413,cs),
(543,282,o),
(486,155,o),
(401,155,cs)
);
},
{
closed = 1;
nodes = (
(279,267,o),
(314,275,o),
(347,275,cs),
(391,275,o),
(430,260,o),
(473,260,cs),
(508,260,o),
(546,271,o),
(592,308,cs),
(624,334,o),
(643,389,o),
(643,428,cs),
(643,455,o),
(635,475,o),
(616,475,cs),
(607,475,o),
(594,470,o),
(579,457,cs),
(547,430,o),
(519,421,o),
(493,421,cs),
(443,421,o),
(400,453,o),
(340,453,cs),
(310,453,o),
(277,445,o),
(237,422,cs),
(210,405,o),
(186,332,o),
(186,280,cs),
(186,252,o),
(194,230,o),
(212,230,cs),
(219,230,o),
(227,232,o),
(237,239,cs)
);
}
);
width = 736;
}
);
unicode = 1138;
},
{
glyphname = "Izhitsa-cy";
lastChange = "2024-01-26 21:03:55 +0000";
layers = (
{
layerId = "CF9497EE-3EC0-42B6-AB9D-60F0E4A560B4";
name = "Bold Italic";
shapes = (
{
closed = 1;
nodes = (
(316,-18,o),
(339,-19,o),
(363,-19,cs),
(437,-19,o),
(522,-12,o),
(575,9,c),
(493,181,o),
(375,553,o),
(328,725,c),
(265,728,o),
(138,703,o),
(85,676,c),
(131,453,o),
(215,157,o),
(296,-17,c)
);
},
{
closed = 1;
nodes = (
(706,524,o),
(786,604,o),
(893,614,c),
(900,640,o),
(905,670,o),
(905,701,cs),
(905,713,o),
(904,726,o),
(902,738,c),
(858,749,o),
(817,755,o),
(778,755,cs),
(590,755,o),
(465,605,o),
(411,89,c),
(450,42,o),
(492,29,o),
(575,9,c)
);
}
);
width = 899;
}
);
unicode = 1140;
},
{
glyphname = "De-cy.ss01";
lastChange = "2024-01-26 21:04:00 +0000";
layers = (
{
layerId = "CF9497EE-3EC0-42B6-AB9D-60F0E4A560B4";
name = "Bold Italic";
shapes = (
{
closed = 1;
nodes = (
(376,187,o),
(435,410,o),
(471,631,c),
(432,677,o),
(390,672,o),
(310,707,c),
(279,456,o),
(218,282,o),
(62,106,c),
(118,44,o),
(225,12,o),
(281,-5,c)
);
},
{
closed = 1;
nodes = (
(211,-60,o),
(221,2,o),
(220,123,c),
(173,136,o),
(109,156,o),
(49,158,c),
(41,33,o),
(26,-54,o),
(-4,-164,c),
(23,-172,o),
(70,-178,o),
(114,-178,cs),
(145,-178,o),
(174,-175,o),
(195,-169,c)
);
},
{
closed = 1;
nodes = (
(259,-14,o),
(397,-8,o),
(559,-8,cs),
(616,-8,o),
(676,-8,o),
(742,-10,c),
(746,14,o),
(753,45,o),
(753,77,cs),
(753,103,o),
(749,128,o),
(736,151,c),
(607,163,o),
(472,168,o),
(342,168,cs),
(239,168,o),
(139,165,o),
(49,158,c),
(52,109,o),
(53,3,o),
(91,-24,c)
);
},
{
closed = 1;
nodes = (
(808,-56,o),
(815,0,o),
(838,151,c),
(788,165,o),
(718,171,o),
(653,173,c),
(614,53,o),
(596,-43,o),
(596,-162,c),
(623,-171,o),
(670,-177,o),
(716,-177,cs),
(750,-177,o),
(784,-173,o),
(808,-165,c)
);
},
{
closed = 1;
nodes = (
(726,224,o),
(741,431,o),
(785,655,c),
(752,688,o),
(605,715,o),
(546,714,c),
(508,546,o),
(481,294,o),
(481,98,cs),
(481,59,l),
(511,30,o),
(647,-7,o),
(703,-7,cs),
(709,-7,o),
(714,-6,o),
(718,-5,c)
);
},
{
closed = 1;
nodes = (
(411,549,o),
(473,555,o),
(542,555,cs),
(579,555,o),
(617,553,o),
(661,551,c),
(663,571,o),
(664,594,o),
(664,618,cs),
(664,644,o),
(663,672,o),
(658,700,c),
(597,714,o),
(536,719,o),
(476,719,cs),
(421,719,o),
(366,715,o),
(310,707,c),
(309,698,o),
(308,685,o),
(308,671,cs),
(308,622,o),
(316,555,o),
(331,535,c)
);
}
);
width = 892;
}
);
},
{
glyphname = "El-cy.ss01";
lastChange = "2024-01-26 21:04:00 +0000";
layers = (
{
layerId = "CF9497EE-3EC0-42B6-AB9D-60F0E4A560B4";
name = "Bold Italic";
shapes = (
{
closed = 1;
nodes = (
(337,169,o),
(393,434,o),
(432,639,c),
(393,685,o),
(351,680,o),
(295,699,c),
(236,479,o),
(150,257,o),
(23,85,c),
(79,22,o),
(186,-7,o),
(242,-24,c)
);
},
{
closed = 1;
nodes = (
(719,208,o),
(734,439,o),
(778,663,c),
(745,696,o),
(598,723,o),
(540,722,c),
(500,552,o),
(474,273,o),
(474,74,cs),
(474,43,l),
(504,14,o),
(640,-23,o),
(696,-23,cs),
(702,-23,o),
(707,-22,o),
(711,-21,c)
);
},
{
closed = 1;
nodes = (
(392,558,o),
(467,564,o),
(556,564,cs),
(591,564,o),
(628,563,o),
(670,561,c),
(672,576,o),
(673,593,o),
(673,611,cs),
(673,641,o),
(670,673,o),
(664,706,c),
(602,721,o),
(536,726,o),
(471,726,cs),
(402,726,o),
(334,721,o),
(271,715,c),
(270,706,o),
(269,695,o),
(269,682,cs),
(269,634,o),
(278,565,o),
(295,545,c)
);
}
);
width = 779;
}
);
},
{
glyphname = "be-cy";
lastChange = "2024-01-26 21:12:04 +0000";
layers = (
{
layerId = "CF9497EE-3EC0-42B6-AB9D-60F0E4A560B4";
name = "Bold Italic";
shapes = (
{
closed = 1;
nodes = (
(397,482,o),
(307,482,cs),
(265,482,o),
(227,469,o),
(207,449,c),
(276,531,o),
(380,517,o),
(543,576,c),
(541,631,o),
(517,708,o),
(487,759,c),
(354,689,o),
(246,694,o),
(147,595,cs),
(72,520,o),
(25,411,o),
(25,269,cs),
(25,83,o),
(114,-22,o),
(255,-22,cs),
(408,-22,o),
(506,101,o),
(506,270,cs),
(506,426,o)
);
},
{
closed = 1;
nodes = (
(254,188,o),
(242,223,o),
(242,255,cs),
(242,302,o),
(267,357,o),
(300,357,cs),
(329,357,o),
(342,326,o),
(342,291,cs),
(342,244,o),
(323,188,o),
(284,188,cs)
);
}
);
width = 530;
}
);
metricLeft = o;
metricRight = o;
unicode = 1073;
},
{
glyphname = "ve-cy";
lastChange = "2024-01-26 21:12:12 +0000";
layers = (
{
layerId = "CF9497EE-3EC0-42B6-AB9D-60F0E4A560B4";
name = "Bold Italic";
shapes = (
{
closed = 1;
nodes = (
(261,218,o),
(271,218,o),
(281,218,cs),
(422,218,o),
(496,291,o),
(496,366,cs),
(496,481,o),
(401,517,o),
(287,517,cs),
(210,517,o),
(128,498,o),
(67,470,c),
(69,422,o),
(96,391,o),
(126,350,c),
(167,378,o),
(226,398,o),
(271,398,cs),
(311,398,o),
(336,384,o),
(336,348,cs),
(336,320,o),
(311,291,o),
(265,291,cs),
(235,291,o),
(222,195,o),
(222,140,cs),
(222,118,o),
(224,103,o),
(228,103,cs),
(233,103,o),
(241,133,o),
(251,219,c)
);
},
{
closed = 1;
nodes = (
(247,125,o),
(255,283,o),
(276,401,c),
(240,425,o),
(130,465,o),
(68,471,c),
(49,371,o),
(40,268,o),
(40,146,cs),
(40,118,o),
(40,88,o),
(41,58,c),
(100,27,o),
(196,0,o),
(247,0,c)
);
},
{
closed = 1;
nodes = (
(111,7,o),
(204,-19,o),
(290,-19,cs),
(412,-19,o),
(518,32,o),
(518,132,cs),
(518,209,o),
(451,281,o),
(327,281,cs),
(301,281,o),
(271,278,o),
(240,271,cs),
(193,260,o),
(176,248,o),
(176,237,cs),
(176,220,o),
(221,205,o),
(256,205,cs),
(297,205,o),
(323,173,o),
(323,143,cs),
(323,119,o),
(307,96,o),
(269,90,cs),
(204,79,o),
(75,69,o),
(42,58,c)
);
}
);
width = 552;
}
);
metricLeft = n;
metricRight = o;
unicode = 1074;
},
{
glyphname = "ge-cy";
lastChange = "2024-01-26 21:03:55 +0000";
layers = (
{
anchors = (
{
name = top;
pos = (264,524);
}
);
layerId = "CF9497EE-3EC0-42B6-AB9D-60F0E4A560B4";
name = "Bold Italic";
shapes = (
{
closed = 1;
nodes = (
(241,88,o),
(252,228,o),
(280,326,c),
(251,356,o),
(119,381,o),
(68,379,c),
(44,267,o),
(28,135,o),
(30,40,c),
(79,-5,o),
(189,-18,o),
(241,-18,c)
);
},
{
closed = 1;
nodes = (
(163,339,o),
(217,342,o),
(274,342,cs),
(330,342,o),
(388,339,o),
(462,332,c),
(464,349,o),
(465,374,o),
(465,400,cs),
(465,437,o),
(463,478,o),
(457,510,c),
(391,519,o),
(326,523,o),
(263,523,cs),
(197,523,o),
(133,519,o),
(68,511,c),
(66,502,o),
(66,489,o),
(66,474,cs),
(66,424,o),
(75,352,o),
(94,332,c)
);
}
);
width = 463;
}
);
metricLeft = n;
metricRight = x;
unicode = 1075;
},
{
glyphname = "gheupturn-cy";
lastChange = "2024-01-26 21:03:55 +0000";
layers = (
{
layerId = "CF9497EE-3EC0-42B6-AB9D-60F0E4A560B4";
name = "Bold Italic";
shapes = (
{
closed = 1;
nodes = (
(452,437,o),
(450,469,o),
(450,501,cs),
(450,552,o),
(455,603,o),
(465,654,c),
(437,660,o),
(408,662,o),
(380,662,cs),
(358,662,o),
(337,661,o),
(316,658,c),
(315,638,o),
(315,619,o),
(315,600,cs),
(315,539,o),
(320,482,o),
(338,423,c),
(456,404,l)
);
},
{
ref = "ge-cy";
}
);
width = 504;
}
);
unicode = 1169;
},
{
glyphname = "de-cy";
lastChange = "2024-01-26 21:12:12 +0000";
layers = (
{
layerId = "CF9497EE-3EC0-42B6-AB9D-60F0E4A560B4";
name = "Bold Italic";
shapes = (
{
closed = 1;
nodes = (
(426,-20,o),
(529,150,o),
(529,397,cs),
(529,600,o),
(415,799,o),
(127,799,c),
(99,772,o),
(81,700,o),
(81,645,cs),
(81,631,o),
(82,619,o),
(84,609,c),
(299,597,o),
(368,481,o),
(368,374,cs),
(368,265,o),
(328,191,o),
(258,191,cs),
(221,191,o),
(199,218,o),
(199,261,cs),
(199,317,o),
(229,376,o),
(280,376,cs),
(326,376,o),
(351,343,o),
(351,256,cs),
(351,221,o),
(381,362,o),
(389,397,c),
(360,474,o),
(329,515,o),
(229,515,cs),
(102,515,o),
(19,374,o),
(19,223,cs),
(19,98,o),
(88,-20,o),
(237,-20,cs)
);
}
);
width = 539;
}
);
metricLeft = o;
metricRight = o;
unicode = 1076;
},
{
glyphname = "zhe-cy";
lastChange = "2024-01-26 21:03:55 +0000";
layers = (
{
layerId = "CF9497EE-3EC0-42B6-AB9D-60F0E4A560B4";
name = "Bold Italic";
shapes = (
{
closed = 1;
nodes = (
(736,-2,o),
(815,53,o),
(847,88,c),
(811,134,o),
(749,205,o),
(696,245,c),
(746,285,o),
(804,356,o),
(844,421,c),
(812,457,o),
(748,509,o),
(696,524,c),
(647,442,o),
(550,320,o),
(479,248,c),
(551,179,o),
(629,63,o),
(680,-18,c)
);
},
{
closed = 1;
nodes = (
(230,64,o),
(308,181,o),
(379,250,c),
(307,322,o),
(225,453,o),
(176,524,c),
(123,508,o),
(61,457,o),
(28,419,c),
(69,355,o),
(112,286,o),
(162,246,c),
(109,205,o),
(34,127,o),
(-1,76,c),
(40,42,o),
(124,-2,o),
(180,-18,c)
);
},
{
closed = 1;
nodes = (
(520,155,o),
(545,311,o),
(573,470,c),
(543,500,o),
(408,525,o),
(354,524,c),
(323,403,o),
(303,244,o),
(303,97,cs),
(303,78,o),
(303,60,o),
(304,41,c),
(354,-4,o),
(468,-18,o),
(521,-18,c)
);
}
);
width = 874;
}
);
metricLeft = x;
metricRight = x;
unicode = 1078;
},
{
glyphname = "ze-cy";
lastChange = "2024-01-26 21:12:12 +0000";
layers = (
{
layerId = "CF9497EE-3EC0-42B6-AB9D-60F0E4A560B4";
name = "Bold Italic";
shapes = (
{
closed = 1;
nodes = (
(64,13,o),
(158,-18,o),
(248,-18,cs),
(375,-18,o),
(492,43,o),
(492,158,cs),
(492,251,o),
(418,297,o),
(259,297,cs),
(247,297,o),
(235,296,o),
(223,296,c),
(219,275,o),
(217,260,o),
(217,244,cs),
(217,232,o),
(218,219,o),
(221,203,c),
(260,203,o),
(281,182,o),
(281,162,cs),
(281,142,o),
(260,122,o),
(217,122,cs),
(183,122,o),
(133,135,o),
(68,172,c),
(33,131,o),
(15,105,o),
(2,75,c)
);
},
{
closed = 1;
nodes = (
(379,527,o),
(273,527,cs),
(163,527,o),
(53,476,o),
(53,378,cs),
(53,327,o),
(83,288,o),
(132,288,cs),
(242,288,o),
(170,395,o),
(269,395,cs),
(299,395,o),
(315,378,o),
(315,357,cs),
(315,331,o),
(287,300,o),
(223,296,c),
(223,251,o),
(223,237,o),
(221,203,c),
(392,205,o),
(484,295,o),
(484,378,cs),
(484,478,o)
);
}
);
width = 524;
}
);
metricLeft = o;
metricRight = o;
unicode = 1079;
},
{
glyphname = "ii-cy";
kernLeft = "ii-cy";
kernRight = "ii-cy";
lastChange = "2024-01-26 21:03:55 +0000";
layers = (
{
anchors = (
{
name = top;
pos = (339,524);
}
);
layerId = "CF9497EE-3EC0-42B6-AB9D-60F0E4A560B4";
name = "Bold Italic";
shapes = (
{
closed = 1;
nodes = (
(605,153,o),
(622,331,o),
(650,470,c),
(610,501,o),
(485,525,o),
(432,524,c),
(402,405,o),
(385,251,o),
(385,106,cs),
(385,84,o),
(385,62,o),
(386,41,c),
(437,-4,o),
(550,-18,o),
(604,-18,c)
);
},
{
closed = 1;
nodes = (
(252,155,o),
(271,316,o),
(299,475,c),
(269,505,o),
(139,527,o),
(86,526,c),
(55,404,o),
(34,247,o),
(34,100,cs),
(34,82,o),
(34,64,o),
(35,46,c),
(86,1,o),
(199,-18,o),
(253,-18,c)
);
},
{
closed = 1;
nodes = (
(309,69,o),
(406,280,o),
(430,345,cs),
(441,376,o),
(450,414,o),
(450,449,cs),
(450,477,o),
(445,503,o),
(432,524,c),
(377,401,o),
(316,302,o),
(266,238,cs),
(244,210,o),
(232,143,o),
(232,83,cs),
(232,39,o),
(239,-1,o),
(253,-18,c)
);
}
);
width = 672;
}
);
metricLeft = n;
metricRight = n;
unicode = 1080;
},
{
glyphname = "ka-cy";
lastChange = "2024-01-26 21:03:55 +0000";
layers = (
{
anchors = (
{
name = top;
pos = (330,500);
}
);
layerId = "CF9497EE-3EC0-42B6-AB9D-60F0E4A560B4";
name = "Bold Italic";
shapes = (
{
closed = 1;
nodes = (
(478,-3,o),
(557,52,o),
(589,87,c),
(553,138,o),
(500,205,o),
(447,245,c),
(497,286,o),
(549,350,o),
(589,415,c),
(556,452,o),
(493,503,o),
(440,518,c),
(391,447,o),
(301,320,o),
(230,248,c),
(302,180,o),
(371,63,o),
(422,-18,c)
);
},
{
closed = 1;
nodes = (
(250,155,o),
(276,304,o),
(304,463,c),
(274,494,o),
(139,518,o),
(86,517,c),
(54,395,o),
(33,242,o),
(33,95,cs),
(33,77,o),
(33,59,o),
(34,41,c),
(85,-4,o),
(198,-18,o),
(251,-18,c)
);
}
);
width = 616;
}
);
metricLeft = n;
metricRight = x;
unicode = 1082;
},
{
glyphname = "el-cy";
lastChange = "2024-01-26 21:03:55 +0000";
layers = (
{
layerId = "CF9497EE-3EC0-42B6-AB9D-60F0E4A560B4";
name = "Bold Italic";
shapes = (
{
closed = 1;
nodes = (
(441,-21,o),
(556,7,o),
(604,31,c),
(578,170,o),
(514,371,o),
(439,515,c),
(426,516,o),
(411,516,o),
(395,516,cs),
(326,516,o),
(239,507,o),
(186,491,c),
(260,335,o),
(341,138,o),
(383,-18,c)
);
},
{
closed = 1;
nodes = (
(230,102,o),
(275,225,o),
(305,379,c),
(270,421,o),
(237,474,o),
(186,491,c),
(146,335,o),
(97,220,o),
(-7,90,c),
(34,43,o),
(116,-2,o),
(167,-18,c)
);
}
);
width = 637;
}
);
metricLeft = x;
metricRight = x;
unicode = 1083;
},
{
glyphname = "em-cy";
lastChange = "2024-01-26 21:03:55 +0000";
layers = (
{
layerId = "CF9497EE-3EC0-42B6-AB9D-60F0E4A560B4";
name = "Bold Italic";
shapes = (
{
closed = 1;
nodes = (
(527,248,o),
(600,351,o),
(727,445,c),
(688,481,o),
(603,504,o),
(531,517,c),
(455,434,o),
(421,322,o),
(360,193,c),
(399,158,o),
(374,126,o),
(430,114,c)
);
},
{
closed = 1;
nodes = (
(347,113,o),
(369,111,o),
(390,111,cs),
(406,111,o),
(421,112,o),
(430,114,c),
(379,181,o),
(332,320,o),
(300,462,c),
(254,437,o),
(210,417,o),
(182,369,c),
(223,268,o),
(266,184,o),
(336,117,c)
);
},
{
closed = 1;
nodes = (
(705,149,o),
(723,312,o),
(750,475,c),
(710,500,o),
(584,518,o),
(531,517,c),
(500,395,o),
(484,252,o),
(484,103,cs),
(484,87,o),
(485,70,o),
(485,53,c),
(535,9,o),
(648,-4,o),
(703,-6,c)
);
},
{
closed = 1;
nodes = (
(253,154,o),
(272,303,o),
(300,462,c),
(270,492,o),
(135,517,o),
(82,516,c),
(52,397,o),
(35,248,o),
(35,105,cs),
(35,83,o),
(35,61,o),
(36,40,c),
(87,-5,o),
(200,-19,o),
(254,-19,c)
);
}
);
width = 770;
}
);
metricLeft = n;
metricRight = n;
unicode = 1084;
},
{
glyphname = "en-cy";
lastChange = "2024-01-26 21:03:55 +0000";
layers = (
{
layerId = "CF9497EE-3EC0-42B6-AB9D-60F0E4A560B4";
name = "Bold Italic";
shapes = (
{
closed = 1;
nodes = (
(603,154,o),
(623,303,o),
(651,463,c),
(621,493,o),
(485,518,o),
(432,517,c),
(402,398,o),
(385,249,o),
(385,106,cs),
(385,84,o),
(385,62,o),
(386,41,c),
(436,-3,o),
(549,-16,o),
(604,-18,c)
);
},
{
closed = 1;
nodes = (
(253,154,o),
(272,303,o),
(300,462,c),
(270,492,o),
(135,517,o),
(82,516,c),
(52,397,o),
(35,248,o),
(35,105,cs),
(35,83,o),
(35,61,o),
(36,40,c),
(87,-5,o),
(200,-19,o),
(254,-19,c)
);
},
{
closed = 1;
nodes = (
(357,196,o),
(426,202,o),
(496,202,cs),
(553,202,o),
(576,267,o),
(598,318,c),
(562,321,o),
(526,322,o),
(491,322,cs),
(405,322,o),
(325,315,o),
(264,311,c),
(264,258,o),
(270,216,o),
(283,187,c)
);
}
);
width = 672;
}
);
metricLeft = n;
metricRight = n;
unicode = 1085;
},
{
glyphname = "pe-cy";
lastChange = "2024-01-26 21:12:04 +0000";
layers = (
{
layerId = "CF9497EE-3EC0-42B6-AB9D-60F0E4A560B4";
name = "Bold Italic";
shapes = (
{
closed = 1;
nodes = (
(585,156,o),
(594,261,o),
(622,419,c),
(592,449,o),
(468,501,o),
(414,500,c),
(384,382,o),
(368,247,o),
(368,108,cs),
(368,86,o),
(368,63,o),
(369,41,c),
(420,-4,o),
(533,-18,o),
(586,-18,c)
);
},
{
closed = 1;
nodes = (
(269,80,o),
(281,236,o),
(295,318,c),
(265,348,o),
(129,375,o),
(76,374,c),
(61,294,o),
(53,173,o),
(53,74,cs),
(53,41,l),
(103,-4,o),
(216,-18,o),
(270,-18,c)
);
},
{
closed = 1;
nodes = (
(211,333,o),
(318,340,o),
(428,340,cs),
(494,340,o),
(561,337,o),
(630,331,c),
(633,390,o),
(628,449,o),
(604,500,c),
(504,512,o),
(391,517,o),
(284,517,cs),
(207,517,o),
(132,514,o),
(68,508,c),
(66,499,o),
(65,487,o),
(65,474,cs),
(65,423,o),
(77,350,o),
(100,329,c)
);
}
);
width = 661;
}
);
metricLeft = n;
metricRight = n;
unicode = 1087;
},
{
glyphname = "te-cy";
lastChange = "2024-01-26 21:03:55 +0000";
layers = (
{
layerId = "CF9497EE-3EC0-42B6-AB9D-60F0E4A560B4";
name = "Bold Italic";
shapes = (
{
closed = 1;
nodes = (
(371,-7,o),
(370,4,o),
(370,17,cs),
(370,104,o),
(379,233,o),
(396,313,c),
(367,343,o),
(227,355,o),
(175,353,c),
(156,270,o),
(148,157,o),
(148,79,cs),
(148,65,o),
(149,52,o),
(149,40,c),
(198,-5,o),
(319,-18,o),
(371,-18,c)
);
},
{
closed = 1;
nodes = (
(555,370,o),
(542,456,o),
(515,500,c),
(421,511,o),
(333,517,o),
(248,517,cs),
(176,517,o),
(106,513,o),
(37,506,c),
(36,499,o),
(35,490,o),
(35,481,cs),
(35,433,o),
(50,360,o),
(68,326,c),
(157,330,o),
(233,333,o),
(310,333,cs),
(385,333,o),
(461,330,o),
(552,322,c)
);
}
);
width = 554;
}
);
metricLeft = x;
metricRight = x;
unicode = 1090;
},
{
glyphname = "ef-cy";
lastChange = "2024-01-26 21:12:04 +0000";
layers = (
{
layerId = "CF9497EE-3EC0-42B6-AB9D-60F0E4A560B4";
name = "Bold Italic";
shapes = (
{
closed = 1;
nodes = (
(509,-18,o),
(579,493,o),
(622,720,c),
(592,750,o),
(477,775,o),
(423,773,c),
(372,552,o),
(314,48,o),
(307,-208,c),
(357,-253,o),
(450,-267,o),
(504,-267,c)
);
},
{
closed = 1;
nodes = (
(117,-20,o),
(209,-20,cs),
(288,-20,o),
(362,39,o),
(368,166,c),
(351,197,o),
(350,217,o),
(341,229,c),
(339,167,o),
(306,138,o),
(274,138,cs),
(243,138,o),
(212,166,o),
(212,217,cs),
(212,294,o),
(248,330,o),
(280,330,cs),
(313,330,o),
(344,295,o),
(341,229,cs),
(340,204,o),
(349,208,o),
(380,204,cs),
(392,203,o),
(396,222,o),
(396,248,cs),
(396,292,o),
(385,358,o),
(385,388,cs),
(385,474,o),
(327,517,o),
(257,517,cs),
(151,517,o),
(19,418,o),
(19,216,cs),
(19,63,o)
);
},
{
closed = 1;
nodes = (
(514,12,o),
(579,-19,o),
(643,-19,cs),
(763,-19,o),
(880,91,o),
(880,273,cs),
(880,438,o),
(796,515,o),
(707,515,cs),
(622,515,o),
(534,444,o),
(513,311,cs),
(510,293,o),
(509,277,o),
(509,263,cs),
(509,210,o),
(527,184,o),
(540,184,cs),
(548,184,o),
(554,192,o),
(555,209,cs),
(559,274,o),
(599,309,o),
(632,309,cs),
(658,309,o),
(681,288,o),
(681,242,cs),
(681,179,o),
(639,143,o),
(602,143,cs),
(575,143,o),
(552,163,o),
(555,206,cs),
(556,216,o),
(555,221,o),
(553,221,cs),
(541,221,o),
(493,89,o),
(465,80,c)
);
}
);
width = 901;
}
);
metricLeft = o;
metricRight = o;
unicode = 1092;
},
{
glyphname = "che-cy";
lastChange = "2024-01-26 21:03:55 +0000";
layers = (
{
layerId = "CF9497EE-3EC0-42B6-AB9D-60F0E4A560B4";
name = "Bold Italic";
shapes = (
{
closed = 1;
nodes = (
(380,224,o),
(397,299,o),
(355,325,c),
(351,285,o),
(328,268,o),
(305,268,cs),
(279,268,o),
(254,290,o),
(259,326,cs),
(264,360,o),
(266,390,o),
(279,463,c),
(249,493,o),
(114,518,o),
(61,517,c),
(44,453,o),
(36,386,o),
(29,337,cs),
(28,327,o),
(27,318,o),
(27,309,cs),
(27,199,o),
(117,125,o),
(219,125,cs),
(282,125,o),
(349,153,o),
(400,220,c)
);
},
{
closed = 1;
nodes = (
(557,155,o),
(582,304,o),
(610,463,c),
(580,493,o),
(445,518,o),
(392,517,c),
(360,396,o),
(340,247,o),
(340,102,cs),
(340,83,o),
(340,64,o),
(341,46,c),
(397,4,o),
(505,-18,o),
(558,-18,c)
);
}
);
width = 628;
}
);
metricLeft = o;
metricRight = n;
unicode = 1095;
},
{
glyphname = "tse-cy";
lastChange = "2024-01-26 21:03:55 +0000";
layers = (
{
layerId = "CF9497EE-3EC0-42B6-AB9D-60F0E4A560B4";
name = "Bold Italic";
shapes = (
{
closed = 1;
nodes = (
(254,162,o),
(274,304,o),
(302,464,c),
(272,494,o),
(137,519,o),
(83,518,c),
(53,401,o),
(36,260,o),
(36,121,cs),
(36,96,o),
(37,72,o),
(38,48,c),
(88,3,o),
(201,-11,o),
(255,-11,c)
);
},
{
closed = 1;
nodes = (
(202,-18,o),
(291,-13,o),
(387,-13,cs),
(448,-13,o),
(511,-15,o),
(583,-21,c),
(584,-11,o),
(584,-2,o),
(584,8,cs),
(584,49,o),
(577,89,o),
(558,125,c),
(456,136,o),
(355,141,o),
(258,141,cs),
(191,141,o),
(125,138,o),
(63,133,c),
(61,125,o),
(60,115,o),
(60,103,cs),
(60,59,o),
(72,-4,o),
(94,-22,c)
);
},
{
closed = 1;
nodes = (
(652,-104,o),
(657,-55,o),
(657,-4,cs),
(657,28,o),
(655,59,o),
(651,92,c),
(618,98,o),
(582,101,o),
(551,101,cs),
(541,101,o),
(532,100,o),
(524,100,c),
(518,-5,o),
(513,-52,o),
(498,-126,c),
(533,-147,o),
(607,-157,o),
(641,-154,c)
);
},
{
closed = 1;
nodes = (
(579,161,o),
(599,304,o),
(627,464,c),
(597,494,o),
(462,519,o),
(409,517,c),
(378,399,o),
(362,255,o),
(362,115,cs),
(362,92,o),
(362,70,o),
(363,48,c),
(414,2,o),
(527,-11,o),
(580,-11,c)
);
}
);
width = 697;
}
);
metricLeft = n;
unicode = 1094;
},
{
glyphname = "sha-cy";
lastChange = "2024-01-26 21:03:55 +0000";
layers = (
{
layerId = "CF9497EE-3EC0-42B6-AB9D-60F0E4A560B4";
name = "Bold Italic";
shapes = (
{
closed = 1;
nodes = (
(867,-9,o),
(868,1,o),
(868,10,cs),
(868,52,o),
(856,92,o),
(826,128,c),
(660,140,o),
(496,146,o),
(340,146,cs),
(244,146,o),
(151,144,o),
(63,139,c),
(60,131,o),
(59,121,o),
(59,109,cs),
(59,66,o),
(77,2,o),
(112,-16,c),
(267,-13,o),
(399,-9,o),
(537,-9,cs),
(639,-9,o),
(745,-11,o),
(866,-18,c)
);
},
{
closed = 1;
nodes = (
(251,165,o),
(275,296,o),
(303,455,c),
(273,485,o),
(138,510,o),
(84,509,c),
(54,390,o),
(34,254,o),
(34,114,cs),
(34,93,o),
(34,72,o),
(35,51,c),
(85,6,o),
(198,-8,o),
(252,-8,c)
);
},
{
closed = 1;
nodes = (
(557,165,o),
(581,296,o),
(609,455,c),
(579,485,o),
(444,510,o),
(390,509,c),
(359,388,o),
(340,250,o),
(340,108,cs),
(340,89,o),
(340,70,o),
(341,51,c),
(392,6,o),
(505,-8,o),
(558,-8,c)
);
},
{
closed = 1;
nodes = (
(863,164,o),
(887,295,o),
(914,455,c),
(885,485,o),
(749,510,o),
(696,509,c),
(665,388,o),
(645,249,o),
(645,106,cs),
(645,88,o),
(645,70,o),
(646,51,c),
(697,5,o),
(810,-8,o),
(864,-8,c)
);
}
);
width = 934;
}
);
metricLeft = n;
metricRight = n;
unicode = 1096;
},
{
glyphname = "shcha-cy";
lastChange = "2024-01-26 21:03:55 +0000";
layers = (
{
layerId = "CF9497EE-3EC0-42B6-AB9D-60F0E4A560B4";
name = "Bold Italic";
shapes = (
{
closed = 1;
nodes = (
(911,-91,o),
(916,-41,o),
(916,11,cs),
(916,41,o),
(914,72,o),
(911,103,c),
(878,109,o),
(843,112,o),
(813,112,cs),
(802,112,o),
(792,112,o),
(783,111,c),
(777,6,o),
(772,-41,o),
(757,-115,c),
(792,-135,o),
(866,-146,o),
(900,-143,c)
);
},
{
ref = "sha-cy";
}
);
width = 985;
}
);
unicode = 1097;
},
{
glyphname = "dzhe-cy";
lastChange = "2024-01-26 21:03:55 +0000";
layers = (
{
layerId = "CF9497EE-3EC0-42B6-AB9D-60F0E4A560B4";
name = "Bold Italic";
shapes = (
{
closed = 1;
nodes = (
(254,162,o),
(274,304,o),
(302,464,c),
(272,494,o),
(137,519,o),
(83,518,c),
(53,401,o),
(36,260,o),
(36,121,cs),
(36,96,o),
(37,72,o),
(38,48,c),
(88,3,o),
(201,-11,o),
(255,-11,c)
);
},
{
closed = 1;
nodes = (
(202,-18,o),
(291,-13,o),
(387,-13,cs),
(448,-13,o),
(511,-15,o),
(583,-21,c),
(584,-11,o),
(584,-2,o),
(584,8,cs),
(584,49,o),
(577,89,o),
(558,125,c),
(456,136,o),
(355,141,o),
(258,141,cs),
(191,141,o),
(125,138,o),
(63,133,c),
(61,125,o),
(60,115,o),
(60,103,cs),
(60,59,o),
(72,-4,o),
(94,-22,c)
);
},
{
closed = 1;
nodes = (
(380,-104,o),
(385,-55,o),
(385,-4,cs),
(385,28,o),
(383,59,o),
(379,92,c),
(346,98,o),
(310,101,o),
(279,101,cs),
(269,101,o),
(260,100,o),
(252,100,c),
(246,-5,o),
(241,-52,o),
(226,-126,c),
(261,-147,o),
(335,-157,o),
(369,-154,c)
);
},
{
closed = 1;
nodes = (
(579,161,o),
(599,304,o),
(627,464,c),
(597,494,o),
(462,519,o),
(409,517,c),
(378,399,o),
(362,255,o),
(362,115,cs),
(362,92,o),
(362,70,o),
(363,48,c),
(414,2,o),
(527,-11,o),
(580,-11,c)
);
}
);
width = 651;
}
);
unicode = 1119;
},
{
glyphname = "softsign-cy";
lastChange = "2024-01-26 21:12:04 +0000";
layers = (
{
layerId = "CF9497EE-3EC0-42B6-AB9D-60F0E4A560B4";
name = "Bold Italic";
shapes = (
{
closed = 1;
nodes = (
(89,8,o),
(189,-20,o),
(283,-20,cs),
(396,-20,o),
(500,20,o),
(510,112,cs),
(511,120,o),
(511,127,o),
(511,134,cs),
(511,238,o),
(427,300,o),
(336,300,cs),
(301,300,o),
(265,291,o),
(233,271,cs),
(191,245,o),
(176,227,o),
(176,215,cs),
(176,200,o),
(199,194,o),
(226,194,cs),
(233,194,o),
(241,195,o),
(249,196,cs),
(291,201,o),
(316,174,o),
(316,145,cs),
(316,122,o),
(299,98,o),
(261,92,cs),
(196,81,o),
(67,69,o),
(34,58,c)
);
},
{
closed = 1;
nodes = (
(239,173,o),
(268,305,o),
(295,464,c),
(267,494,o),
(138,518,o),
(88,517,c),
(57,391,o),
(32,246,o),
(32,98,cs),
(32,85,o),
(33,71,o),
(33,58,c),
(81,13,o),
(188,0,o),
(239,0,c)
);
}
);
width = 546;
}
);
metricLeft = n;
metricRight = o;
unicode = 1100;
},
{
glyphname = "hardsign-cy";
lastChange = "2024-01-26 21:03:55 +0000";
layers = (
{
layerId = "CF9497EE-3EC0-42B6-AB9D-60F0E4A560B4";
name = "Bold Italic";
shapes = (
{
closed = 1;
nodes = (
(78,377,o),
(95,375,o),
(114,375,cs),
(143,375,o),
(175,379,o),
(210,389,c),
(212,411,o),
(213,434,o),
(213,456,cs),
(213,479,o),
(212,500,o),
(210,517,c),
(192,515,o),
(176,514,o),
(160,514,cs),
(128,514,o),
(100,518,o),
(75,523,c),
(65,496,o),
(59,448,o),
(59,411,cs),
(59,399,o),
(60,388,o),
(61,379,c)
);
},
{
pos = (137,0);
ref = "softsign-cy";
}
);
width = 702;
}
);
unicode = 1098;
},
{
glyphname = "lje-cy";
lastChange = "2024-01-26 21:03:55 +0000";
layers = (
{
layerId = "CF9497EE-3EC0-42B6-AB9D-60F0E4A560B4";
name = "Bold Italic";
shapes = (
{
closed = 1;
nodes = (
(453,25,o),
(499,18,o),
(540,18,cs),
(568,18,o),
(594,21,o),
(613,31,c),
(606,170,o),
(611,345,o),
(575,515,c),
(558,516,o),
(537,517,o),
(514,517,cs),
(443,517,o),
(358,510,o),
(322,491,c),
(371,319,o),
(407,188,o),
(418,27,c)
);
},
{
closed = 1;
nodes = (
(310,102,o),
(392,234,o),
(460,382,c),
(425,424,o),
(391,435,o),
(340,452,c),
(236,315,o),
(140,210,o),
(23,90,c),
(73,33,o),
(162,-2,o),
(213,-18,c)
);
},
{
closed = 1;
nodes = (
(472,-5,o),
(547,-22,o),
(624,-22,cs),
(768,-22,o),
(914,38,o),
(914,170,cs),
(914,280,o),
(832,336,o),
(737,336,cs),
(690,336,o),
(640,322,o),
(596,295,cs),
(553,268,o),
(537,245,o),
(537,226,cs),
(537,198,o),
(571,181,o),
(604,181,cs),
(667,181,o),
(697,156,o),
(697,131,cs),
(697,106,o),
(667,81,o),
(610,81,cs),
(545,81,o),
(451,38,o),
(418,27,c)
);
}
);
width = 963;
}
);
unicode = 1113;
},
{
glyphname = "nje-cy";
lastChange = "2024-01-26 21:03:55 +0000";
layers = (
{
layerId = "CF9497EE-3EC0-42B6-AB9D-60F0E4A560B4";
name = "Bold Italic";
shapes = (
{
closed = 1;
nodes = (
(253,154,o),
(272,303,o),
(300,462,c),
(270,492,o),
(135,517,o),
(82,516,c),
(52,397,o),
(35,248,o),
(35,105,cs),
(35,83,o),
(35,61,o),
(36,40,c),
(87,-5,o),
(200,-19,o),
(254,-19,c)
);
},
{
closed = 1;
nodes = (
(339,200,o),
(387,205,o),
(435,205,cs),
(455,205,o),
(475,204,o),
(496,202,cs),
(553,196,o),
(576,267,o),
(598,318,c),
(562,321,o),
(526,322,o),
(491,322,cs),
(405,322,o),
(325,315,o),
(264,311,c),
(264,258,o),
(270,225,o),
(283,196,c)
);
},
{
closed = 1;
nodes = (
(468,8,o),
(568,-20,o),
(662,-20,cs),
(775,-20,o),
(879,20,o),
(889,112,cs),
(890,120,o),
(890,127,o),
(890,134,cs),
(890,238,o),
(806,300,o),
(715,300,cs),
(680,300,o),
(644,291,o),
(612,271,cs),
(570,245,o),
(555,227,o),
(555,215,cs),
(555,200,o),
(578,194,o),
(605,194,cs),
(612,194,o),
(620,195,o),
(628,196,cs),
(670,201,o),
(695,174,o),
(695,145,cs),
(695,122,o),
(678,98,o),
(640,92,cs),
(575,81,o),
(446,69,o),
(413,58,c)
);
},
{
closed = 1;
nodes = (
(618,173,o),
(647,305,o),
(674,464,c),
(646,494,o),
(517,518,o),
(467,517,c),
(436,391,o),
(411,246,o),
(411,98,cs),
(411,85,o),
(412,71,o),
(412,58,c),
(460,13,o),
(567,0,o),
(618,0,c)
);
}
);
width = 944;
}
);
unicode = 1114;
},
{
glyphname = "e-cy";
lastChange = "2024-01-26 21:03:55 +0000";
layers = (
{
layerId = "CF9497EE-3EC0-42B6-AB9D-60F0E4A560B4";
name = "Bold Italic";
shapes = (
{
closed = 1;
nodes = (
(183,196,o),
(229,202,o),
(286,202,cs),
(301,202,o),
(317,202,o),
(334,201,c),
(346,226,o),
(352,248,o),
(352,271,cs),
(352,278,o),
(351,286,o),
(350,293,c),
(300,298,o),
(264,300,o),
(234,300,cs),
(219,300,o),
(206,300,o),
(193,299,c),
(181,268,o),
(114,219,o),
(118,192,c)
);
},
{
ref = c;
}
);
width = 565;
}
);
unicode = 1108;
},
{
glyphname = "ereversed-cy";
lastChange = "2024-01-26 21:03:55 +0000";
layers = (
{
layerId = "CF9497EE-3EC0-42B6-AB9D-60F0E4A560B4";
name = "Bold Italic";
shapes = (
{
closed = 1;
nodes = (
(460,217,o),
(393,266,o),
(381,297,c),
(368,298,o),
(355,298,o),
(340,298,cs),
(310,298,o),
(274,296,o),
(224,291,c),
(223,284,o),
(222,277,o),
(222,270,cs),
(222,247,o),
(228,224,o),
(240,199,c),
(263,204,o),
(284,206,o),
(303,206,cs),
(354,206,o),
(397,194,o),
(456,190,c)
);
},
{
closed = 1;
nodes = (
(527,429,o),
(422,516,o),
(280,517,cs),
(141,517,o),
(56,467,o),
(56,385,cs),
(56,329,o),
(85,289,o),
(143,289,cs),
(214,289,o),
(198,375,o),
(261,375,cs),
(304,375,o),
(355,340,o),
(355,244,cs),
(355,181,o),
(289,120,o),
(206,120,cs),
(167,120,o),
(125,134,o),
(84,167,c),
(59,135,o),
(36,100,o),
(21,70,c),
(88,10,o),
(171,-18,o),
(251,-18,cs),
(402,-18,o),
(527,76,o),
(527,273,cs)
);
}
);
width = 567;
}
);
unicode = 1101;
},
{
glyphname = "tshe-cy";
lastChange = "2024-01-26 21:04:00 +0000";
layers = (
{
layerId = "CF9497EE-3EC0-42B6-AB9D-60F0E4A560B4";
name = "Bold Italic";
shapes = (
{
closed = 1;
nodes = (
(83,662,o),
(79,634,o),
(79,595,c),
(119,595,ls),
(242,595,o),
(367,583,o),
(492,566,c),
(502,606,o),
(506,646,o),
(506,694,c),
(434,699,o),
(364,702,o),
(294,702,cs),
(228,702,o),
(162,699,o),
(95,695,c)
);
},
{
closed = 1;
nodes = (
(338,229,o),
(377,494,o),
(412,719,c),
(382,749,o),
(247,774,o),
(194,773,c),
(142,555,o),
(125,274,o),
(121,43,c),
(170,0,o),
(283,-14,o),
(338,-16,c)
);
},
{
closed = 1;
nodes = (
(367,164,o),
(446,350,o),
(521,413,cs),
(540,430,o),
(548,444,o),
(548,458,cs),
(548,477,o),
(535,497,o),
(519,524,c),
(436,486,o),
(367,382,o),
(342,252,cs),
(335,213,o),
(323,135,o),
(323,73,cs),
(323,35,o),
(327,2,o),
(340,-13,c)
);
},
{
closed = 1;
nodes = (
(692,153,o),
(709,331,o),
(737,470,c),
(697,501,o),
(572,525,o),
(519,524,c),
(489,405,o),
(472,251,o),
(472,106,cs),
(472,84,o),
(472,62,o),
(473,41,c),
(524,-4,o),
(637,-18,o),
(691,-18,c)
);
}
);
width = 759;
}
);
unicode = 1115;
},
{
glyphname = "iu-cy";
lastChange = "2024-01-26 21:03:55 +0000";
layers = (
{
layerId = "CF9497EE-3EC0-42B6-AB9D-60F0E4A560B4";
name = "Bold Italic";
shapes = (
{
closed = 1;
nodes = (
(219,171,o),
(248,168,o),
(277,168,cs),
(313,168,o),
(349,172,o),
(386,180,c),
(388,202,o),
(389,225,o),
(389,247,cs),
(389,269,o),
(388,290,o),
(386,308,c),
(302,308,o),
(264,310,o),
(204,321,c),
(194,294,o),
(188,245,o),
(188,208,cs),
(188,196,o),
(189,185,o),
(190,176,c)
);
},
{
pos = (297,0);
ref = o;
},
{
ref = idotless;
}
);
width = 815;
}
);
metricLeft = n;
metricRight = o;
unicode = 1102;
},
{
glyphname = "ia-cy";
lastChange = "2024-01-26 21:03:55 +0000";
layers = (
{
layerId = "CF9497EE-3EC0-42B6-AB9D-60F0E4A560B4";
name = "Bold Italic";
shapes = (
{
closed = 1;
nodes = (
(369,198,o),
(386,222,o),
(386,244,cs),
(386,270,o),
(360,294,o),
(334,294,cs),
(328,294,o),
(323,292,o),
(317,290,cs),
(311,287,o),
(304,286,o),
(298,286,cs),
(277,286,o),
(258,301,o),
(258,329,cs),
(258,380,o),
(285,403,o),
(306,403,cs),
(322,403,o),
(335,390,o),
(332,368,cs),
(330,356,o),
(336,351,o),
(346,351,cs),
(391,351,o),
(530,449,o),
(557,459,c),
(499,497,o),
(416,519,o),
(337,519,cs),
(204,519,o),
(77,459,o),
(77,317,cs),
(77,220,o),
(144,169,o),
(234,169,cs),
(261,169,o),
(290,174,o),
(320,183,cs)
);
},
{
closed = 1;
nodes = (
(253,35,o),
(290,116,o),
(310,205,c),
(161,230,l),
(129,159,o),
(49,97,o),
(-1,49,c),
(46,18,o),
(138,-13,o),
(207,-25,c)
);
},
{
closed = 1;
nodes = (
(515,148,o),
(530,302,o),
(557,459,c),
(524,481,o),
(408,513,o),
(357,511,c),
(326,386,o),
(303,221,o),
(303,71,cs),
(303,56,o),
(304,41,o),
(304,27,c),
(360,0,o),
(459,-25,o),
(510,-25,c)
);
}
);
width = 579;
}
);
metricLeft = o;
metricRight = n;
unicode = 1103;
},
{
glyphname = "dje-cy";
lastChange = "2024-01-26 21:04:00 +0000";
layers = (
{
layerId = "CF9497EE-3EC0-42B6-AB9D-60F0E4A560B4";
name = "Bold Italic";
shapes = (
{
closed = 1;
nodes = (
(83,662,o),
(79,634,o),
(79,595,c),
(119,595,ls),
(242,595,o),
(367,583,o),
(492,566,c),
(502,606,o),
(506,646,o),
(506,694,c),
(434,699,o),
(364,702,o),
(294,702,cs),
(228,702,o),
(162,699,o),
(95,695,c)
);
},
{
closed = 1;
nodes = (
(338,229,o),
(377,494,o),
(412,719,c),
(382,749,o),
(247,774,o),
(194,773,c),
(142,555,o),
(125,274,o),
(121,43,c),
(170,0,o),
(283,-14,o),
(338,-16,c)
);
},
{
closed = 1;
nodes = (
(367,164,o),
(446,350,o),
(521,413,cs),
(540,430,o),
(548,444,o),
(548,458,cs),
(548,477,o),
(535,497,o),
(519,524,c),
(436,486,o),
(367,382,o),
(342,252,cs),
(335,213,o),
(323,135,o),
(323,73,cs),
(323,35,o),
(327,2,o),
(340,-13,c)
);
},
{
closed = 1;
nodes = (
(637,-72,o),
(711,137,o),
(737,470,c),
(697,501,o),
(572,525,o),
(519,524,c),
(519,266,o),
(459,23,o),
(415,-96,c),
(446,-146,o),
(492,-180,o),
(525,-195,c)
);
}
);
width = 755;
}
);
unicode = 1106;
},
{
glyphname = "yat-cy";
lastChange = "2024-01-26 21:04:00 +0000";
layers = (
{
layerId = "CF9497EE-3EC0-42B6-AB9D-60F0E4A560B4";
name = "Bold Italic";
shapes = (
{
closed = 1;
nodes = (
(181,6,o),
(266,-19,o),
(349,-19,cs),
(485,-19,o),
(615,48,o),
(615,166,cs),
(615,268,o),
(536,323,o),
(447,323,cs),
(406,323,o),
(365,312,o),
(327,289,cs),
(284,263,o),
(268,241,o),
(268,226,cs),
(268,206,o),
(294,195,o),
(322,195,cs),
(326,195,o),
(331,195,o),
(336,196,cs),
(378,201,o),
(403,174,o),
(403,145,cs),
(403,122,o),
(386,98,o),
(348,92,cs),
(283,81,o),
(154,69,o),
(121,58,c)
);
},
{
closed = 1;
nodes = (
(326,173,o),
(372,561,o),
(399,720,c),
(371,750,o),
(242,774,o),
(192,773,c),
(158,636,o),
(115,220,o),
(120,58,c),
(168,13,o),
(275,0,o),
(326,0,c)
);
},
{
closed = 1;
nodes = (
(81,650,o),
(77,622,o),
(77,583,c),
(117,583,ls),
(240,583,o),
(365,571,o),
(490,554,c),
(500,594,o),
(504,634,o),
(504,682,c),
(432,687,o),
(362,690,o),
(292,690,cs),
(226,690,o),
(160,687,o),
(93,683,c)
);
}
);
width = 665;
}
);
unicode = 1123;
},
{
glyphname = "fita-cy";
lastChange = "2024-01-26 21:04:00 +0000";
layers = (
{
layerId = "CF9497EE-3EC0-42B6-AB9D-60F0E4A560B4";
name = "Bold Italic";
shapes = (
{
closed = 1;
nodes = (
(426,-18,o),
(518,127,o),
(518,273,cs),
(518,405,o),
(435,523,o),
(297,523,cs),
(139,523,o),
(38,378,o),
(38,211,cs),
(38,73,o),
(138,-18,o),
(278,-18,cs)
);
},
{
closed = 1;
nodes = (
(227,101,o),
(199,164,o),
(199,226,cs),
(199,315,o),
(247,421,o),
(308,421,cs),
(364,421,o),
(389,362,o),
(389,295,cs),
(389,204,o),
(350,101,o),
(285,101,cs)
);
},
{
closed = 1;
nodes = (
(202,206,o),
(226,211,o),
(248,211,cs),
(279,211,o),
(306,201,o),
(336,201,cs),
(360,201,o),
(386,208,o),
(418,234,cs),
(441,253,o),
(456,293,o),
(456,321,cs),
(456,340,o),
(450,354,o),
(434,354,cs),
(427,354,o),
(419,352,o),
(409,346,cs),
(388,334,o),
(369,329,o),
(351,329,cs),
(310,329,o),
(275,353,o),
(234,353,cs),
(215,353,o),
(195,348,o),
(173,335,cs),
(154,324,o),
(138,266,o),
(138,225,cs),
(138,200,o),
(144,181,o),
(158,181,cs),
(162,181,o),
(167,183,o),
(173,187,cs)
);
}
);
width = 558;
}
);
unicode = 1139;
},
{
glyphname = "izhitsa-cy";
lastChange = "2024-01-26 21:03:55 +0000";
layers = (
{
layerId = "CF9497EE-3EC0-42B6-AB9D-60F0E4A560B4";
name = "Bold Italic";
shapes = (
{
closed = 1;
nodes = (
(320,-25,o),
(420,-1,o),
(468,24,c),
(366,158,o),
(316,336,o),
(284,521,c),
(227,524,o),
(111,501,o),
(64,477,c),
(97,323,o),
(168,121,o),
(243,-23,c)
);
},
{
closed = 1;
nodes = (
(528,259,o),
(599,415,o),
(732,444,c),
(732,478,o),
(723,504,o),
(707,532,c),
(692,534,o),
(677,535,o),
(663,535,cs),
(483,535,o),
(356,374,o),
(344,98,c),
(379,55,o),
(417,41,o),
(468,24,c)
);
}
);
width = 752;
}
);
unicode = 1141;
},
{
glyphname = "de-cy.ss01";
lastChange = "2024-01-26 21:03:55 +0000";
layers = (
{
layerId = "CF9497EE-3EC0-42B6-AB9D-60F0E4A560B4";
name = "Bold Italic";
shapes = (
{
closed = 1;
nodes = (
(487,17,o),
(521,15,o),
(556,15,cs),
(602,15,o),
(649,18,o),
(676,32,c),
(650,171,o),
(586,372,o),
(511,516,c),
(494,517,o),
(473,518,o),
(451,518,cs),
(380,518,o),
(294,511,o),
(258,492,c),
(333,336,o),
(420,175,o),
(462,18,c)
);
},
{
closed = 1;
nodes = (
(153,-28,o),
(157,19,o),
(173,123,c),
(139,133,o),
(90,140,o),
(46,141,c),
(19,59,o),
(7,-20,o),
(7,-101,c),
(26,-107,o),
(58,-112,o),
(89,-112,cs),
(112,-112,o),
(136,-109,o),
(152,-103,c)
);
},
{
closed = 1;
nodes = (
(697,1,o),
(698,11,o),
(698,21,cs),
(698,57,o),
(687,105,o),
(661,136,c),
(545,144,o),
(432,148,o),
(323,148,cs),
(226,148,o),
(132,145,o),
(41,140,c),
(39,133,o),
(38,124,o),
(38,113,cs),
(38,74,o),
(53,17,o),
(81,0,c),
(183,2,o),
(272,4,o),
(360,4,cs),
(464,4,o),
(568,2,o),
(695,-6,c)
);
},
{
closed = 1;
nodes = (
(309,125,o),
(337,236,o),
(373,421,c),
(338,464,o),
(325,445,o),
(274,461,c),
(213,300,o),
(169,221,o),
(65,91,c),
(115,34,o),
(196,20,o),
(247,4,c)
);
},
{
closed = 1;
nodes = (
(722,-28,o),
(727,19,o),
(743,123,c),
(708,133,o),
(660,140,o),
(616,141,c),
(589,59,o),
(576,-20,o),
(576,-101,c),
(595,-107,o),
(627,-112,o),
(658,-112,cs),
(682,-112,o),
(706,-109,o),
(722,-103,c)
);
}
);
width = 799;
}
);
},
{
glyphname = zero;
lastChange = "2024-01-26 21:03:55 +0000";
layers = (
{
layerId = "CF9497EE-3EC0-42B6-AB9D-60F0E4A560B4";
name = "Bold Italic";
shapes = (
{
closed = 1;
nodes = (
(543,-18,o),
(657,187,o),
(657,382,cs),
(657,557,o),
(564,723,o),
(372,723,cs),
(169,723,o),
(48,503,o),
(48,302,cs),
(48,135,o),
(132,-18,o),
(322,-18,cs)
);
},
{
closed = 1;
nodes = (
(292,120,o),
(276,179,o),
(276,253,cs),
(276,381,o),
(322,557,o),
(375,557,cs),
(410,557,o),
(424,493,o),
(424,413,cs),
(424,286,o),
(386,120,o),
(330,120,cs)
);
}
);
width = 686;
}
);
unicode = 48;
},
{
glyphname = one;
lastChange = "2024-01-26 21:04:00 +0000";
layers = (
{
layerId = "CF9497EE-3EC0-42B6-AB9D-60F0E4A560B4";
name = "Bold Italic";
shapes = (
{
closed = 1;
nodes = (
(465,211,o),
(486,438,o),
(530,662,c),
(497,695,o),
(349,724,o),
(291,723,c),
(251,554,o),
(220,279,o),
(220,80,cs),
(220,46,l),
(250,17,o),
(386,-20,o),
(441,-20,cs),
(447,-20,o),
(452,-19,o),
(456,-18,c)
);
},
{
closed = 1;
nodes = (
(227,464,o),
(298,533,o),
(357,623,c),
(337,662,o),
(312,697,o),
(291,723,c),
(221,663,o),
(160,619,o),
(74,574,c),
(100,513,o),
(128,452,o),
(150,414,c)
);
}
);
width = 527;
}
);
unicode = 49;
},
{
glyphname = two;
lastChange = "2024-01-26 21:03:55 +0000";
layers = (
{
layerId = "CF9497EE-3EC0-42B6-AB9D-60F0E4A560B4";
name = "Bold Italic";
shapes = (
{
closed = 1;
nodes = (
(121,45,o),
(137,32,o),
(151,32,cs),
(180,32,o),
(199,90,o),
(273,126,cs),
(473,223,o),
(598,414,o),
(598,521,cs),
(598,647,o),
(500,722,o),
(342,722,cs),
(192,722,o),
(95,649,o),
(95,580,cs),
(95,520,o),
(137,484,o),
(181,484,cs),
(258,484,o),
(269,559,o),
(324,559,cs),
(361,559,o),
(383,536,o),
(383,499,cs),
(383,423,o),
(288,289,o),
(33,186,c),
(45,129,o),
(52,83,o),
(55,83,cs),
(56,83,o),
(56,87,o),
(56,96,c),
(60,103,o),
(68,107,o),
(76,107,cs),
(87,107,o),
(98,100,o),
(98,89,cs),
(98,86,o),
(97,83,o),
(95,80,c)
);
},
{
closed = 1;
nodes = (
(170,-7,o),
(273,-2,o),
(382,-2,cs),
(436,-2,o),
(490,-3,o),
(548,-5,c),
(551,23,o),
(556,59,o),
(556,96,cs),
(556,125,o),
(553,155,o),
(544,181,c),
(458,193,o),
(359,199,o),
(265,199,cs),
(181,199,o),
(100,194,o),
(33,186,c),
(31,175,o),
(31,161,o),
(31,145,cs),
(31,87,o),
(41,6,o),
(62,-18,c)
);
}
);
width = 615;
}
);
unicode = 50;
},
{
glyphname = three;
lastChange = "2024-01-26 21:03:55 +0000";
layers = (
{
layerId = "CF9497EE-3EC0-42B6-AB9D-60F0E4A560B4";
name = "Bold Italic";
shapes = (
{
closed = 1;
nodes = (
(81,30,o),
(189,-18,o),
(295,-18,cs),
(431,-18,o),
(564,61,o),
(564,202,cs),
(564,326,o),
(447,435,o),
(276,435,cs),
(261,435,o),
(246,435,o),
(231,433,c),
(228,409,o),
(225,386,o),
(225,362,cs),
(225,343,o),
(227,323,o),
(231,303,c),
(287,294,o),
(315,260,o),
(315,229,cs),
(315,199,o),
(288,171,o),
(233,171,cs),
(197,171,o),
(149,182,o),
(90,213,c),
(67,187,o),
(49,164,o),
(32,135,c)
);
},
{
closed = 1;
nodes = (
(447,372,o),
(519,444,o),
(603,529,c),
(594,565,o),
(514,591,o),
(462,591,cs),
(444,591,o),
(430,588,o),
(423,581,cs),
(366,527,o),
(308,479,o),
(231,433,c),
(231,400,o),
(323,307,o),
(334,277,c)
);
},
{
closed = 1;
nodes = (
(244,523,o),
(363,531,o),
(494,531,cs),
(530,531,o),
(566,530,o),
(603,529,c),
(607,554,o),
(609,584,o),
(609,615,cs),
(609,646,o),
(607,678,o),
(600,707,c),
(515,720,o),
(417,725,o),
(324,725,cs),
(239,725,o),
(157,721,o),
(89,712,c),
(87,701,o),
(86,687,o),
(86,671,cs),
(86,616,o),
(97,541,o),
(118,510,c)
);
}
);
width = 614;
}
);
unicode = 51;
},
{
glyphname = four;
lastChange = "2024-01-26 21:04:00 +0000";
layers = (
{
layerId = "CF9497EE-3EC0-42B6-AB9D-60F0E4A560B4";
name = "Bold Italic";
shapes = (
{
closed = 1;
nodes = (
(607,210,o),
(621,361,o),
(651,541,c),
(618,574,o),
(470,603,o),
(412,601,c),
(383,448,o),
(362,269,o),
(362,83,cs),
(362,46,l),
(396,14,o),
(544,-18,o),
(599,-18,c)
);
},
{
closed = 1;
nodes = (
(168,236,o),
(255,243,o),
(348,243,cs),
(381,243,o),
(414,242,o),
(449,240,c),
(451,261,o),
(453,285,o),
(453,312,cs),
(453,340,o),
(451,371,o),
(447,400,c),
(381,408,o),
(307,412,o),
(235,412,cs),
(171,412,o),
(109,409,o),
(56,403,c),
(55,393,o),
(54,380,o),
(54,365,cs),
(54,315,o),
(62,244,o),
(78,223,c)
);
},
{
closed = 1;
nodes = (
(314,432,o),
(355,509,o),
(409,632,c),
(386,669,o),
(269,729,o),
(218,744,c),
(172,620,o),
(130,523,o),
(56,403,c),
(76,366,o),
(182,303,o),
(218,301,c)
);
}
);
width = 667;
}
);
unicode = 52;
},
{
glyphname = five;
lastChange = "2017-11-27 15:32:02 +0000";
layers = (
{
layerId = "CF9497EE-3EC0-42B6-AB9D-60F0E4A560B4";
name = "Bold Italic";
shapes = (
{
closed = 1;
nodes = (
(68,40,o),
(180,-18,o),
(293,-18,cs),
(457,-18,o),
(560,76,o),
(560,206,cs),
(560,336,o),
(466,437,o),
(297,437,cs),
(263,437,o),
(225,433,o),
(185,424,c),
(195,376,o),
(199,348,o),
(214,310,c),
(284,310,o),
(317,277,o),
(317,245,cs),
(317,212,o),
(284,179,o),
(222,179,cs),
(186,179,o),
(141,190,o),
(86,218,c),
(63,192,o),
(45,168,o),
(28,140,c)
);
},
{
closed = 1;
nodes = (
(253,454,o),
(264,534,o),
(284,651,c),
(253,672,o),
(166,692,o),
(113,692,c),
(97,612,o),
(85,524,o),
(85,430,cs),
(85,400,o),
(86,369,o),
(89,338,c),
(121,316,o),
(173,310,o),
(214,310,c)
);
},
{
closed = 1;
nodes = (
(479,714,o),
(384,709,o),
(284,709,cs),
(227,709,o),
(169,711,o),
(107,714,c),
(103,684,o),
(97,646,o),
(97,608,cs),
(97,584,o),
(99,559,o),
(106,536,c),
(205,520,o),
(321,512,o),
(427,512,cs),
(490,512,o),
(550,514,o),
(602,520,c),
(604,534,o),
(605,553,o),
(605,573,cs),
(605,629,o),
(597,700,o),
(579,723,c)
);
}
);
width = 614;
}
);
unicode = 53;
},
{
glyphname = six;
lastChange = "2024-01-26 21:03:55 +0000";
layers = (
{
layerId = "CF9497EE-3EC0-42B6-AB9D-60F0E4A560B4";
name = "Bold Italic";
shapes = (
{
closed = 1;
nodes = (
(539,675,o),
(448,720,o),
(360,720,cs),
(200,720,o),
(49,570,o),
(49,264,cs),
(49,109,o),
(130,-18,o),
(299,-18,cs),
(482,-18,o),
(583,105,o),
(583,301,cs),
(583,437,o),
(478,493,o),
(378,493,cs),
(312,493,o),
(248,469,o),
(217,427,cs),
(204,410,o),
(199,395,o),
(199,381,cs),
(199,351,o),
(225,332,o),
(245,332,cs),
(255,332,o),
(263,337,o),
(266,348,cs),
(273,378,o),
(305,399,o),
(336,399,cs),
(372,399,o),
(409,371,o),
(409,298,cs),
(409,206,o),
(365,163,o),
(324,163,cs),
(287,163,o),
(259,195,o),
(259,274,cs),
(259,291,o),
(260,309,o),
(263,329,cs),
(281,480,o),
(336,557,o),
(419,557,cs),
(457,557,o),
(502,540,o),
(551,506,c),
(574,532,o),
(591,555,o),
(608,584,c)
);
}
);
width = 627;
}
);
unicode = 54;
},
{
glyphname = seven;
lastChange = "2024-01-26 21:03:55 +0000";
layers = (
{
layerId = "CF9497EE-3EC0-42B6-AB9D-60F0E4A560B4";
name = "Bold Italic";
shapes = (
{
closed = 1;
nodes = (
(424,180,o),
(489,313,o),
(571,481,c),
(535,510,o),
(452,554,o),
(395,568,c),
(295,408,o),
(203,253,o),
(148,84,c),
(181,40,o),
(307,-17,o),
(365,-24,c)
);
},
{
closed = 1;
nodes = (
(244,521,o),
(363,529,o),
(494,529,cs),
(530,529,o),
(566,528,o),
(603,527,c),
(606,555,o),
(611,590,o),
(611,625,cs),
(611,652,o),
(608,680,o),
(600,705,c),
(513,717,o),
(414,723,o),
(320,723,cs),
(236,723,o),
(155,718,o),
(88,710,c),
(86,699,o),
(86,685,o),
(86,669,cs),
(86,612,o),
(96,532,o),
(117,508,c)
);
}
);
width = 614;
}
);
unicode = 55;
},
{
glyphname = eight;
lastChange = "2024-01-26 21:03:55 +0000";
layers = (
{
layerId = "CF9497EE-3EC0-42B6-AB9D-60F0E4A560B4";
name = "Bold Italic";
shapes = (
{
closed = 1;
nodes = (
(157,-20,o),
(288,-20,cs),
(428,-20,o),
(573,52,o),
(573,191,cs),
(573,390,o),
(285,368,o),
(285,489,cs),
(285,535,o),
(312,569,o),
(355,569,cs),
(369,569,o),
(375,603,o),
(375,640,cs),
(375,681,o),
(367,726,o),
(350,726,cs),
(199,726,o),
(83,636,o),
(83,506,cs),
(83,312,o),
(357,284,o),
(357,172,cs),
(357,136,o),
(328,114,o),
(300,114,cs),
(274,114,o),
(250,132,o),
(250,174,cs),
(250,316,o),
(584,318,o),
(584,537,cs),
(584,647,o),
(495,726,o),
(350,726,cs),
(337,726,o),
(333,706,o),
(333,680,cs),
(333,634,o),
(347,569,o),
(355,569,cs),
(393,569,o),
(419,543,o),
(419,503,cs),
(419,383,o),
(31,342,o),
(31,174,cs),
(31,43,o)
);
}
);
width = 620;
}
);
unicode = 56;
},
{
glyphname = nine;
lastChange = "2024-01-26 21:03:55 +0000";
layers = (
{
layerId = "CF9497EE-3EC0-42B6-AB9D-60F0E4A560B4";
name = "Bold Italic";
shapes = (
{
closed = 1;
nodes = (
(77,37,o),
(174,-18,o),
(276,-18,cs),
(433,-18,o),
(599,114,o),
(599,395,cs),
(599,580,o),
(530,723,o),
(350,723,cs),
(167,723,o),
(68,573,o),
(68,436,cs),
(68,319,o),
(140,211,o),
(293,211,cs),
(349,211,o),
(402,232,o),
(431,273,cs),
(443,290,o),
(448,307,o),
(448,322,cs),
(448,359,o),
(419,385,o),
(400,385,cs),
(392,385,o),
(387,381,o),
(385,371,cs),
(381,347,o),
(353,332,o),
(322,332,cs),
(279,332,o),
(258,378,o),
(258,427,cs),
(258,484,o),
(284,544,o),
(332,544,cs),
(365,544,o),
(389,515,o),
(389,436,cs),
(389,417,o),
(388,396,o),
(385,371,cs),
(370,238,o),
(325,163,o),
(241,163,cs),
(200,163,o),
(149,181,o),
(87,220,c),
(64,194,o),
(46,171,o),
(29,142,c)
);
}
);
width = 627;
}
);
unicode = 57;
},
{
glyphname = fraction;
lastChange = "2017-11-27 15:32:02 +0000";
layers = (
{
layerId = "CF9497EE-3EC0-42B6-AB9D-60F0E4A560B4";
name = "Bold Italic";
shapes = (
{
closed = 1;
nodes = (
(377,134,o),
(641,442,o),
(859,661,c),
(820,718,o),
(727,798,o),
(675,823,c),
(453,617,o),
(198,320,o),
(18,41,c),
(56,-23,o),
(140,-98,o),
(198,-126,c)
);
}
);
width = 856;
}
);
unicode = 8260;
},
{
glyphname = onehalf;
lastChange = "2024-01-26 21:03:55 +0000";
layers = (
{
layerId = "CF9497EE-3EC0-42B6-AB9D-60F0E4A560B4";
name = "Bold Italic";
shapes = (
{
closed = 1;
nodes = (
(303,480,o),
(315,614,o),
(339,747,c),
(321,767,o),
(239,784,o),
(207,783,c),
(183,677,o),
(165,501,o),
(167,382,c),
(184,365,o),
(259,343,o),
(289,343,cs),
(293,343,o),
(296,343,o),
(298,344,c)
);
},
{
closed = 1;
nodes = (
(171,630,o),
(211,671,o),
(243,724,c),
(232,747,o),
(218,768,o),
(207,783,c),
(168,748,o),
(134,722,o),
(87,695,c),
(101,659,o),
(116,622,o),
(129,600,c)
);
},
{
closed = 1;
nodes = (
(439,161,o),
(707,465,o),
(925,684,c),
(886,741,o),
(822,798,o),
(770,823,c),
(548,617,o),
(293,320,o),
(113,41,c),
(151,-23,o),
(202,-71,o),
(260,-99,c)
);
},
{
closed = 1;
nodes = (
(639,-7,o),
(648,-14,o),
(656,-14,cs),
(673,-14,o),
(683,19,o),
(725,39,cs),
(839,94,o),
(910,203,o),
(910,264,cs),
(910,335,o),
(854,378,o),
(764,378,cs),
(679,378,o),
(624,336,o),
(624,297,cs),
(624,262,o),
(649,243,o),
(673,243,cs),
(717,243,o),
(723,285,o),
(754,285,cs),
(775,285,o),
(788,272,o),
(788,251,cs),
(788,208,o),
(733,132,o),
(589,73,c),
(597,31,o),
(602,0,o),
(602,22,c),
(604,26,o),
(609,28,o),
(613,28,cs),
(620,28,o),
(626,24,o),
(626,18,cs),
(626,17,o),
(625,15,o),
(624,13,c)
);
},
{
closed = 1;
nodes = (
(676,-38,o),
(744,-34,o),
(818,-34,cs),
(838,-34,o),
(859,-34,o),
(881,-35,c),
(883,-20,o),
(886,1,o),
(886,22,cs),
(886,39,o),
(884,56,o),
(879,71,c),
(831,78,o),
(776,81,o),
(723,81,cs),
(675,81,o),
(628,78,o),
(589,73,c),
(588,67,o),
(588,59,o),
(588,49,cs),
(588,16,o),
(593,-32,o),
(605,-46,c)
);
}
);
width = 951;
}
);
unicode = 189;
},
{
glyphname = onequarter;
lastChange = "2024-01-26 21:03:55 +0000";
layers = (
{
layerId = "CF9497EE-3EC0-42B6-AB9D-60F0E4A560B4";
name = "Bold Italic";
shapes = (
{
closed = 1;
nodes = (
(298,502,o),
(309,624,o),
(333,745,c),
(315,762,o),
(235,778,o),
(204,777,c),
(182,681,o),
(164,521,o),
(166,413,c),
(182,398,o),
(253,378,o),
(284,378,cs),
(288,378,o),
(291,378,o),
(293,379,c)
);
},
{
closed = 1;
nodes = (
(170,638,o),
(208,675,o),
(239,724,c),
(228,745,o),
(216,763,o),
(204,777,c),
(167,745,o),
(134,722,o),
(87,697,c),
(101,664,o),
(117,631,o),
(128,611,c)
);
},
{
closed = 1;
nodes = (
(416,165,o),
(681,488,o),
(899,689,c),
(860,746,o),
(800,784,o),
(748,809,c),
(526,603,o),
(281,320,o),
(101,41,c),
(139,-23,o),
(179,-67,o),
(237,-95,c)
);
},
{
closed = 1;
nodes = (
(875,91,o),
(883,175,o),
(899,276,c),
(881,294,o),
(798,310,o),
(766,309,c),
(749,218,o),
(736,111,o),
(738,0,c),
(757,-18,o),
(840,-36,o),
(870,-36,c)
);
},
{
closed = 1;
nodes = (
(630,105,o),
(679,110,o),
(731,110,cs),
(749,110,o),
(768,109,o),
(787,108,c),
(788,119,o),
(789,132,o),
(789,147,cs),
(789,163,o),
(788,180,o),
(785,197,c),
(748,202,o),
(707,204,o),
(667,204,cs),
(631,204,o),
(597,202,o),
(567,199,c),
(564,175,o),
(568,114,o),
(580,98,c)
);
},
{
closed = 1;
nodes = (
(711,215,o),
(734,258,o),
(764,327,c),
(751,347,o),
(686,381,o),
(658,389,c),
(632,320,o),
(609,266,o),
(567,199,c),
(579,178,o),
(638,143,o),
(658,142,c)
);
}
);
width = 940;
}
);
unicode = 188;
},
{
glyphname = threequarters;
lastChange = "2024-01-26 21:03:55 +0000";
layers = (
{
layerId = "CF9497EE-3EC0-42B6-AB9D-60F0E4A560B4";
name = "Bold Italic";
shapes = (
{
closed = 1;
nodes = (
(479,145,o),
(757,465,o),
(975,684,c),
(936,741,o),
(866,798,o),
(814,823,c),
(592,617,o),
(337,320,o),
(157,41,c),
(179,-8,o),
(242,-87,o),
(300,-115,c)
);
},
{
closed = 1;
nodes = (
(87,380,o),
(143,355,o),
(198,355,cs),
(268,355,o),
(337,396,o),
(337,469,cs),
(337,532,o),
(274,574,o),
(189,574,cs),
(179,574,o),
(169,573,o),
(159,572,c),
(164,547,o),
(167,525,o),
(175,506,c),
(202,502,o),
(215,488,o),
(215,475,cs),
(215,462,o),
(202,450,o),
(175,450,cs),
(154,450,o),
(127,457,o),
(92,475,c),
(80,461,o),
(71,449,o),
(62,434,c)
);
},
{
closed = 1;
nodes = (
(265,562,o),
(313,601,o),
(357,638,c),
(352,657,o),
(309,668,o),
(282,668,cs),
(274,668,o),
(268,667,o),
(264,665,cs),
(223,644,o),
(176,604,o),
(159,572,c),
(159,555,o),
(212,523,o),
(218,508,c)
);
},
{
closed = 1;
nodes = (
(173,635,o),
(236,639,o),
(305,639,cs),
(322,639,o),
(339,638,o),
(357,638,c),
(359,651,o),
(360,667,o),
(360,683,cs),
(360,699,o),
(359,715,o),
(355,730,c),
(312,736,o),
(263,739,o),
(216,739,cs),
(171,739,o),
(127,736,o),
(91,732,c),
(90,726,o),
(90,719,o),
(90,711,cs),
(90,682,o),
(95,644,o),
(106,628,c)
);
},
{
closed = 1;
nodes = (
(713,109,o),
(760,113,o),
(809,113,cs),
(827,113,o),
(845,112,o),
(864,111,c),
(866,123,o),
(867,137,o),
(867,152,cs),
(867,167,o),
(866,183,o),
(863,198,c),
(828,202,o),
(789,204,o),
(752,204,cs),
(716,204,o),
(681,202,o),
(652,199,c),
(649,177,o),
(653,117,o),
(664,102,c)
);
},
{
closed = 1;
nodes = (
(791,215,o),
(814,256,o),
(843,323,c),
(830,343,o),
(767,375,o),
(740,383,c),
(715,316,o),
(692,264,o),
(652,199,c),
(663,179,o),
(720,145,o),
(740,144,c)
);
},
{
closed = 1;
nodes = (
(950,95,o),
(957,177,o),
(973,274,c),
(956,291,o),
(876,307,o),
(844,306,c),
(828,218,o),
(816,114,o),
(817,7,c),
(836,-11,o),
(916,-28,o),
(945,-28,c)
);
}
);
width = 1014;
}
);
unicode = 190;
},
{
glyphname = .notdef;
lastChange = "2024-01-26 21:03:55 +0000";
layers = (
{
layerId = "CF9497EE-3EC0-42B6-AB9D-60F0E4A560B4";
name = "Bold Italic";
shapes = (
{
closed = 1;
nodes = (
(266,208,o),
(386,405,o),
(484,618,c),
(450,639,l),
(322,485,o),
(208,295,o),
(108,71,c),
(134,29,l)
);
},
{
closed = 1;
nodes = (
(467,-2,o),
(468,17,o),
(467,41,c),
(343,52,o),
(174,53,o),
(25,53,c),
(25,32,o),
(35,-1,o),
(46,-13,c),
(78,-12,o),
(116,-12,o),
(156,-12,cs),
(256,-12,o),
(372,-15,o),
(452,-24,c)
);
},
{
closed = 1;
nodes = (
(146,165,o),
(182,491,o),
(182,639,c),
(172,649,o),
(160,652,o),
(146,652,cs),
(127,652,o),
(106,647,o),
(86,649,c),
(80,485,o),
(48,216,o),
(23,56,c),
(49,36,o),
(73,43,o),
(115,37,c)
);
},
{
closed = 1;
nodes = (
(422,63,l),
(359,281,o),
(292,473,o),
(203,648,c),
(159,625,l),
(217,416,o),
(296,208,o),
(379,25,c)
);
},
{
closed = 1;
nodes = (
(496,134,o),
(557,485,o),
(557,633,c),
(549,642,o),
(537,644,o),
(523,644,cs),
(500,644,o),
(472,636,o),
(450,639,c),
(450,629,o),
(451,619,o),
(451,608,cs),
(451,446,o),
(410,205,o),
(386,52,c),
(412,32,o),
(423,12,o),
(465,6,c)
);
},
{
closed = 1;
nodes = (
(560,646,o),
(562,659,o),
(562,672,cs),
(562,690,o),
(559,708,o),
(555,723,c),
(456,711,o),
(279,703,o),
(158,703,cs),
(135,703,o),
(113,703,o),
(95,704,c),
(87,689,o),
(83,674,o),
(83,656,cs),
(83,651,o),
(83,646,o),
(84,641,c),
(187,634,o),
(305,629,o),
(410,629,cs),
(463,629,o),
(514,630,o),
(557,633,c)
);
}
);
width = 559;
}
);
},
{
glyphname = period;
lastChange = "2024-01-26 21:12:12 +0000";
layers = (
{
layerId = "CF9497EE-3EC0-42B6-AB9D-60F0E4A560B4";
name = "Bold Italic";
shapes = (
{
closed = 1;
nodes = (
(166,-19,o),
(211,34,o),
(211,102,cs),
(211,144,o),
(176,182,o),
(134,182,cs),
(63,182,o),
(21,126,o),
(21,63,cs),
(21,14,o),
(56,-19,o),
(106,-19,cs)
);
}
);
width = 267;
}
);
metricLeft = n;
metricRight = n;
unicode = 46;
},
{
glyphname = comma;
lastChange = "2018-01-05 19:53:32 +0000";
layers = (
{
layerId = "CF9497EE-3EC0-42B6-AB9D-60F0E4A560B4";
name = "Bold Italic";
shapes = (
{
closed = 1;
nodes = (
(55,161,o),
(21,108,o),
(21,59,cs),
(21,11,o),
(46,-19,o),
(84,-19,cs),
(88,-19,o),
(91,-22,o),
(91,-27,cs),
(91,-40,o),
(83,-65,o),
(67,-79,c),
(85,-97,o),
(116,-114,o),
(134,-120,c),
(185,-75,o),
(213,-5,o),
(213,54,cs),
(213,113,o),
(185,161,o),
(124,161,cs)
);
}
);
width = 275;
}
);
metricLeft = n;
metricRight = n;
unicode = 44;
},
{
glyphname = exclam;
lastChange = "2024-01-26 21:04:00 +0000";
layers = (
{
layerId = "CF9497EE-3EC0-42B6-AB9D-60F0E4A560B4";
name = "Bold Italic";
shapes = (
{
closed = 1;
nodes = (
(246,381,o),
(268,521,o),
(311,708,c),
(275,731,o),
(156,755,o),
(98,758,c),
(68,580,o),
(59,446,o),
(59,293,cs),
(59,245,l),
(93,220,o),
(166,204,o),
(214,204,cs),
(221,204,o),
(227,204,o),
(232,205,c)
);
},
{
pos = (20,0);
ref = period;
}
);
width = 303;
}
);
unicode = 33;
},
{
glyphname = question;
lastChange = "2024-01-26 21:03:55 +0000";
layers = (
{
layerId = "CF9497EE-3EC0-42B6-AB9D-60F0E4A560B4";
name = "Bold Italic";
shapes = (
{
closed = 1;
nodes = (
(412,366,o),
(577,439,o),
(577,559,cs),
(577,676,o),
(494,762,o),
(360,762,cs),
(203,762,o),
(97,665,o),
(97,574,cs),
(97,535,o),
(128,507,o),
(174,507,cs),
(270,507,o),
(261,606,o),
(332,606,cs),
(368,606,o),
(386,582,o),
(386,551,cs),
(386,477,o),
(232,383,o),
(190,237,c),
(226,215,o),
(291,204,o),
(339,204,cs),
(347,204,o),
(354,204,o),
(360,205,c)
);
},
{
pos = (137,0);
ref = period;
}
);
width = 585;
}
);
unicode = 63;
},
{
glyphname = bullet;
lastChange = "2024-01-26 21:03:55 +0000";
layers = (
{
layerId = "CF9497EE-3EC0-42B6-AB9D-60F0E4A560B4";
name = "Bold Italic";
shapes = (
{
closed = 1;
nodes = (
(302,239,o),
(305,341,o),
(305,396,c),
(254,410,o),
(126,427,o),
(65,425,c),
(53,385,o),
(45,322,o),
(45,264,cs),
(45,247,o),
(45,230,o),
(47,215,c),
(84,202,o),
(183,187,o),
(255,187,cs),
(270,187,o),
(283,188,o),
(295,189,c)
);
}
);
width = 342;
}
);
unicode = 8226;
},
{
glyphname = asterisk;
lastChange = "2017-11-27 15:32:02 +0000";
layers = (
{
layerId = "CF9497EE-3EC0-42B6-AB9D-60F0E4A560B4";
name = "Bold Italic";
shapes = (
{
closed = 1;
nodes = (
(418,424,o),
(457,475,o),
(466,497,c),
(406,546,o),
(224,664,o),
(147,700,c),
(129,694,o),
(82,639,o),
(79,623,c),
(164,577,o),
(323,476,o),
(399,417,c)
);
},
{
closed = 1;
nodes = (
(311,456,o),
(331,643,o),
(349,738,c),
(335,752,o),
(273,763,o),
(249,763,c),
(231,687,o),
(206,471,o),
(207,386,c),
(222,373,o),
(291,355,o),
(308,359,c)
);
},
{
closed = 1;
nodes = (
(219,471,o),
(380,569,o),
(466,611,c),
(469,631,o),
(440,688,o),
(425,707,c),
(354,675,o),
(167,563,o),
(102,511,c),
(99,491,o),
(127,425,o),
(140,415,c)
);
}
);
width = 480;
}
);
unicode = 42;
},
{
glyphname = numbersign;
lastChange = "2024-01-26 21:03:55 +0000";
layers = (
{
layerId = "CF9497EE-3EC0-42B6-AB9D-60F0E4A560B4";
name = "Bold Italic";
shapes = (
{
closed = 1;
nodes = (
(274,197,o),
(303,419,o),
(343,584,c),
(324,603,o),
(238,620,o),
(204,619,c),
(170,467,o),
(135,212,o),
(133,50,c),
(150,34,o),
(230,11,o),
(262,11,cs),
(266,11,o),
(269,11,o),
(271,12,c)
);
},
{
closed = 1;
nodes = (
(496,188,o),
(524,411,o),
(565,576,c),
(546,595,o),
(459,611,o),
(425,610,c),
(392,459,o),
(356,203,o),
(354,42,c),
(372,25,o),
(451,3,o),
(483,3,cs),
(487,3,o),
(490,3,o),
(492,4,c)
);
},
{
closed = 1;
nodes = (
(143,336,o),
(238,341,o),
(332,341,cs),
(438,341,o),
(544,335,o),
(634,324,c),
(646,341,o),
(653,396,o),
(653,437,cs),
(653,449,o),
(652,459,o),
(651,467,c),
(567,476,o),
(453,481,o),
(340,481,cs),
(245,481,o),
(152,477,o),
(79,469,c),
(66,453,o),
(55,388,o),
(55,351,cs),
(55,341,o),
(56,333,o),
(58,328,c)
);
},
{
closed = 1;
nodes = (
(117,122,o),
(211,126,o),
(305,126,cs),
(412,126,o),
(518,121,o),
(607,110,c),
(620,127,o),
(627,183,o),
(627,223,cs),
(627,235,o),
(626,245,o),
(625,253,c),
(542,261,o),
(429,266,o),
(317,266,cs),
(221,266,o),
(127,262,o),
(53,254,c),
(40,237,o),
(29,170,o),
(29,134,cs),
(29,125,o),
(29,117,o),
(31,113,c)
);
}
);
width = 676;
}
);
unicode = 35;
},
{
glyphname = slash;
lastChange = "2017-11-27 15:32:02 +0000";
layers = (
{
layerId = "CF9497EE-3EC0-42B6-AB9D-60F0E4A560B4";
name = "Bold Italic";
shapes = (
{
closed = 1;
nodes = (
(248,69,o),
(406,457,o),
(518,666,c),
(476,707,o),
(368,750,o),
(311,760,c),
(193,525,o),
(52,149,o),
(6,-73,c),
(44,-118,o),
(129,-150,o),
(186,-154,c)
);
}
);
width = 514;
}
);
unicode = 47;
},
{
glyphname = backslash;
lastChange = "2024-01-26 21:03:55 +0000";
layers = (
{
layerId = "CF9497EE-3EC0-42B6-AB9D-60F0E4A560B4";
name = "Bold Italic";
shapes = (
{
closed = 1;
nodes = (
(298,-183,o),
(314,-184,o),
(333,-184,cs),
(396,-184,o),
(493,-166,o),
(531,-144,c),
(492,95,o),
(403,498,o),
(328,732,c),
(320,733,o),
(310,734,o),
(300,734,cs),
(235,734,o),
(135,713,o),
(86,691,c),
(166,439,o),
(254,64,o),
(288,-179,c)
);
}
);
width = 612;
}
);
unicode = 92;
},
{
glyphname = hyphen;
lastChange = "2024-01-26 21:03:55 +0000";
layers = (
{
layerId = "CF9497EE-3EC0-42B6-AB9D-60F0E4A560B4";
name = "Bold Italic";
shapes = (
{
closed = 1;
nodes = (
(337,236,o),
(340,302,o),
(340,353,c),
(293,365,o),
(115,377,o),
(60,375,c),
(49,339,o),
(41,297,o),
(41,251,cs),
(41,238,o),
(42,225,o),
(43,212,c),
(75,200,o),
(200,190,o),
(281,190,cs),
(301,190,o),
(319,191,o),
(331,192,c)
);
}
);
width = 380;
}
);
unicode = 45;
},
{
glyphname = endash;
lastChange = "2024-01-26 21:03:55 +0000";
layers = (
{
layerId = "CF9497EE-3EC0-42B6-AB9D-60F0E4A560B4";
name = "Bold Italic";
shapes = (
{
closed = 1;
nodes = (
(506,227,o),
(506,290,o),
(506,340,c),
(379,358,o),
(191,367,o),
(59,367,c),
(49,334,o),
(44,298,o),
(44,257,cs),
(44,241,o),
(44,224,o),
(46,207,c),
(159,190,o),
(287,181,o),
(419,181,cs),
(446,181,o),
(474,181,o),
(501,182,c)
);
}
);
width = 548;
}
);
unicode = 8211;
},
{
glyphname = emdash;
lastChange = "2024-01-26 21:03:55 +0000";
layers = (
{
layerId = "CF9497EE-3EC0-42B6-AB9D-60F0E4A560B4";
name = "Bold Italic";
shapes = (
{
closed = 1;
nodes = (
(757,204,o),
(757,267,o),
(757,318,c),
(630,336,o),
(188,345,o),
(57,345,c),
(47,311,o),
(41,274,o),
(41,232,cs),
(41,217,o),
(41,201,o),
(43,185,c),
(154,168,o),
(452,159,o),
(643,159,cs),
(685,159,o),
(722,159,o),
(751,160,c)
);
}
);
width = 801;
}
);
unicode = 8212;
},
{
glyphname = underscore;
lastChange = "2024-01-26 21:03:55 +0000";
layers = (
{
layerId = "CF9497EE-3EC0-42B6-AB9D-60F0E4A560B4";
name = "Bold Italic";
shapes = (
{
closed = 1;
nodes = (
(161,-6,o),
(265,0,o),
(400,0,cs),
(448,0,o),
(499,0,o),
(555,-2,c),
(558,19,o),
(561,46,o),
(561,74,cs),
(561,103,o),
(558,133,o),
(550,159,c),
(439,171,o),
(346,176,o),
(254,176,cs),
(181,176,o),
(110,173,o),
(32,166,c),
(30,157,o),
(30,147,o),
(30,135,cs),
(30,86,o),
(43,16,o),
(69,-16,c)
);
}
);
width = 622;
}
);
unicode = 95;
},
{
glyphname = parenleft;
lastChange = "2024-01-26 21:03:55 +0000";
layers = (
{
layerId = "CF9497EE-3EC0-42B6-AB9D-60F0E4A560B4";
name = "Bold Italic";
shapes = (
{
closed = 1;
nodes = (
(227,-146,o),
(280,-111,o),
(328,-77,c),
(277,30,o),
(253,149,o),
(253,266,cs),
(253,443,o),
(308,616,o),
(413,737,c),
(365,781,o),
(312,827,o),
(253,874,c),
(124,741,o),
(49,513,o),
(49,282,cs),
(49,122,o),
(85,-40,o),
(163,-173,c)
);
}
);
width = 402;
}
);
unicode = 40;
},
{
glyphname = parenright;
lastChange = "2024-01-26 21:03:55 +0000";
layers = (
{
layerId = "CF9497EE-3EC0-42B6-AB9D-60F0E4A560B4";
name = "Bold Italic";
shapes = (
{
closed = 1;
nodes = (
(308,-70,o),
(376,175,o),
(376,412,cs),
(376,566,o),
(347,716,o),
(289,835,c),
(218,811,o),
(148,773,o),
(92,740,c),
(135,636,o),
(156,517,o),
(156,397,cs),
(156,229,o),
(114,61,o),
(32,-66,c),
(82,-127,o),
(127,-181,o),
(174,-220,c)
);
}
);
width = 406;
}
);
unicode = 41;
},
{
glyphname = braceleft;
lastChange = "2024-01-26 21:03:55 +0000";
layers = (
{
layerId = "CF9497EE-3EC0-42B6-AB9D-60F0E4A560B4";
name = "Bold Italic";
shapes = (
{
closed = 1;
nodes = (
(476,811,o),
(450,814,o),
(423,814,cs),
(330,814,o),
(228,775,o),
(202,677,cs),
(183,607,o),
(182,567,o),
(163,497,cs),
(149,446,o),
(125,427,o),
(89,427,cs),
(83,427,o),
(77,428,o),
(70,429,c),
(67,417,o),
(66,384,o),
(66,355,cs),
(66,332,o),
(67,312,o),
(68,305,c),
(78,304,o),
(89,303,o),
(100,303,cs),
(214,303,o),
(342,366,o),
(369,483,cs),
(384,548,o),
(387,607,o),
(404,675,cs),
(412,707,o),
(434,723,o),
(457,723,cs),
(464,723,o),
(471,721,o),
(478,718,c),
(488,731,o),
(500,772,o),
(500,796,cs),
(500,799,o),
(500,802,o),
(499,805,c)
);
},
{
closed = 1;
nodes = (
(336,-164,o),
(340,-136,o),
(340,-113,cs),
(340,-102,o),
(339,-93,o),
(337,-87,c),
(305,-90,o),
(277,-66,o),
(281,-23,cs),
(286,47,o),
(302,104,o),
(308,170,cs),
(321,301,o),
(193,405,o),
(74,432,c),
(66,417,o),
(49,333,o),
(47,312,c),
(93,303,o),
(117,279,o),
(113,218,cs),
(109,145,o),
(91,103,o),
(87,31,cs),
(79,-100,o),
(221,-169,o),
(329,-176,c)
);
}
);
width = 483;
}
);
unicode = 123;
},
{
glyphname = bracketleft;
lastChange = "2024-01-26 21:04:00 +0000";
layers = (
{
layerId = "CF9497EE-3EC0-42B6-AB9D-60F0E4A560B4";
name = "Bold Italic";
shapes = (
{
closed = 1;
nodes = (
(262,86,o),
(288,363,o),
(288,562,cs),
(288,593,l),
(255,626,o),
(135,671,o),
(87,676,c),
(79,447,o),
(56,217,o),
(21,-7,c),
(57,-35,o),
(164,-75,o),
(222,-83,c)
);
},
{
closed = 1;
nodes = (
(450,-120,o),
(458,-83,o),
(458,-39,cs),
(458,-29,o),
(458,-19,o),
(457,-9,c),
(444,-9,o),
(431,-8,o),
(418,-8,cs),
(297,-8,o),
(160,-25,o),
(13,-52,c),
(13,-82,o),
(21,-115,o),
(34,-124,c),
(58,-123,o),
(84,-122,o),
(112,-122,cs),
(217,-122,o),
(345,-130,o),
(439,-145,c)
);
},
{
closed = 1;
nodes = (
(531,671,o),
(522,731,o),
(508,778,c),
(414,763,o),
(286,755,o),
(181,755,cs),
(153,755,o),
(127,756,o),
(103,757,c),
(91,737,o),
(87,714,o),
(87,691,cs),
(87,683,o),
(87,676,o),
(88,668,c),
(236,642,o),
(373,624,o),
(494,624,cs),
(507,624,o),
(519,625,o),
(531,625,c)
);
}
);
width = 532;
}
);
unicode = 91;
},
{
glyphname = bracketright;
lastChange = "2024-01-26 21:03:55 +0000";
layers = (
{
layerId = "CF9497EE-3EC0-42B6-AB9D-60F0E4A560B4";
name = "Bold Italic";
shapes = (
{
closed = 1;
nodes = (
(309,-40,o),
(421,-22,o),
(462,-1,c),
(471,225,o),
(493,424,o),
(529,650,c),
(473,650,o),
(350,608,o),
(314,578,c),
(276,400,o),
(249,189,o),
(249,14,cs),
(249,-3,o),
(249,-20,o),
(250,-37,c)
);
},
{
closed = 1;
nodes = (
(128,-137,o),
(252,-129,o),
(357,-129,cs),
(387,-129,o),
(415,-130,o),
(440,-131,c),
(451,-115,o),
(458,-90,o),
(458,-61,cs),
(458,-54,o),
(458,-46,o),
(457,-38,c),
(310,-11,o),
(174,6,o),
(53,6,cs),
(40,6,o),
(27,5,o),
(14,5,c),
(13,-5,o),
(12,-15,o),
(12,-24,cs),
(12,-71,o),
(23,-113,o),
(35,-152,c)
);
},
{
closed = 1;
nodes = (
(113,608,o),
(125,607,o),
(138,607,cs),
(259,607,o),
(396,625,o),
(544,651,c),
(546,660,o),
(546,669,o),
(546,678,cs),
(546,706,o),
(540,734,o),
(529,757,c),
(505,756,o),
(479,755,o),
(451,755,cs),
(346,755,o),
(218,763,o),
(124,778,c),
(113,738,o),
(100,686,o),
(100,635,cs),
(100,626,o),
(100,617,o),
(101,608,c)
);
}
);
width = 542;
}
);
unicode = 93;
},
{
glyphname = guillemetleft;
lastChange = "2024-01-26 21:03:55 +0000";
layers = (
{
layerId = "CF9497EE-3EC0-42B6-AB9D-60F0E4A560B4";
name = "Bold Italic";
shapes = (
{
closed = 1;
nodes = (
(311,295,o),
(393,365,o),
(466,417,c),
(434,463,o),
(381,512,o),
(343,535,c),
(240,459,o),
(133,358,o),
(40,251,c),
(60,234,o),
(104,228,o),
(148,228,cs),
(193,228,o),
(238,235,o),
(255,243,c)
);
},
{
closed = 1;
nodes = (
(321,-15,o),
(395,33,o),
(421,72,c),
(359,115,o),
(301,178,o),
(255,243,c),
(232,252,o),
(160,269,o),
(105,269,cs),
(76,269,o),
(51,264,o),
(40,251,c),
(126,117,o),
(200,29,o),
(276,-35,c)
);
},
{
closed = 1;
nodes = (
(633,-15,o),
(700,44,o),
(726,82,c),
(664,126,o),
(613,178,o),
(567,243,c),
(547,250,o),
(487,261,o),
(433,261,cs),
(393,261,o),
(358,255,o),
(344,239,c),
(430,105,o),
(512,29,o),
(588,-35,c)
);
},
{
closed = 1;
nodes = (
(360,226,o),
(392,221,o),
(427,221,cs),
(483,221,o),
(547,233,o),
(567,243,c),
(623,295,o),
(702,348,o),
(774,393,c),
(748,443,o),
(701,496,o),
(667,522,c),
(557,451,o),
(438,346,o),
(344,239,c)
);
}
);
width = 799;
}
);
unicode = 171;
},
{
glyphname = guillemetright;
lastChange = "2024-01-26 21:04:00 +0000";
layers = (
{
layerId = "CF9497EE-3EC0-42B6-AB9D-60F0E4A560B4";
name = "Bold Italic";
shapes = (
{
closed = 1;
nodes = (
(543,55,o),
(653,157,o),
(758,244,c),
(738,261,o),
(694,267,o),
(650,267,cs),
(605,267,o),
(560,260,o),
(544,252,c),
(481,209,o),
(405,147,o),
(332,78,c),
(364,32,o),
(417,-16,o),
(455,-40,c)
);
},
{
closed = 1;
nodes = (
(228,75,o),
(339,169,o),
(454,256,c),
(438,269,o),
(406,274,o),
(371,274,cs),
(315,274,o),
(252,262,o),
(232,252,cs),
(172,220,o),
(94,163,o),
(24,102,c),
(51,52,o),
(97,-1,o),
(131,-27,c)
);
},
{
closed = 1;
nodes = (
(252,245,o),
(312,234,o),
(365,234,cs),
(405,234,o),
(440,240,o),
(454,256,c),
(360,340,o),
(272,440,o),
(210,530,c),
(165,510,o),
(98,452,o),
(72,413,c),
(124,349,o),
(173,300,o),
(232,252,c)
);
},
{
closed = 1;
nodes = (
(673,335,o),
(582,443,o),
(522,530,c),
(477,510,o),
(403,462,o),
(377,423,c),
(426,357,o),
(485,299,o),
(544,252,c),
(566,243,o),
(638,226,o),
(693,226,cs),
(722,226,o),
(747,231,o),
(758,244,c)
);
}
);
width = 799;
}
);
unicode = 187;
},
{
glyphname = guilsinglleft;
lastChange = "2024-01-26 21:03:55 +0000";
layers = (
{
layerId = "CF9497EE-3EC0-42B6-AB9D-60F0E4A560B4";
name = "Bold Italic";
shapes = (
{
closed = 1;
nodes = (
(311,295,o),
(393,365,o),
(466,417,c),
(434,463,o),
(381,512,o),
(343,535,c),
(240,459,o),
(133,358,o),
(40,251,c),
(60,234,o),
(104,228,o),
(148,228,cs),
(193,228,o),
(238,235,o),
(255,243,c)
);
},
{
closed = 1;
nodes = (
(321,-15,o),
(395,33,o),
(421,72,c),
(378,137,o),
(318,187,o),
(255,243,c),
(232,252,o),
(160,269,o),
(105,269,cs),
(76,269,o),
(51,264,o),
(40,251,c),
(146,138,o),
(211,58,o),
(265,-35,c)
);
}
);
width = 488;
}
);
unicode = 8249;
},
{
glyphname = guilsinglright;
lastChange = "2024-01-26 21:04:00 +0000";
layers = (
{
layerId = "CF9497EE-3EC0-42B6-AB9D-60F0E4A560B4";
name = "Bold Italic";
shapes = (
{
closed = 1;
nodes = (
(227,66,o),
(338,160,o),
(453,247,c),
(437,260,o),
(405,265,o),
(370,265,cs),
(314,265,o),
(251,253,o),
(231,243,cs),
(171,211,o),
(93,154,o),
(23,93,c),
(50,43,o),
(96,-10,o),
(130,-36,c)
);
},
{
closed = 1;
nodes = (
(251,236,o),
(311,225,o),
(364,225,cs),
(404,225,o),
(439,231,o),
(453,247,c),
(359,331,o),
(271,431,o),
(209,521,c),
(164,501,o),
(97,443,o),
(71,404,c),
(123,340,o),
(172,291,o),
(231,243,c)
);
}
);
width = 493;
}
);
unicode = 8250;
},
{
glyphname = quotedbl;
lastChange = "2018-01-05 19:32:11 +0000";
layers = (
{
layerId = "CF9497EE-3EC0-42B6-AB9D-60F0E4A560B4";
name = "Bold Italic";
shapes = (
{
closed = 1;
nodes = (
(213,531,o),
(229,632,o),
(249,716,c),
(212,730,o),
(151,740,o),
(101,742,c),
(81,656,o),
(69,558,o),
(69,474,c),
(104,456,o),
(164,447,o),
(207,448,c)
);
},
{
closed = 1;
nodes = (
(400,536,o),
(418,632,o),
(445,712,c),
(408,730,o),
(343,738,o),
(292,740,c),
(273,654,o),
(259,561,o),
(260,477,c),
(295,459,o),
(353,451,o),
(395,452,c)
);
}
);
width = 442;
}
);
unicode = 34;
},
{
glyphname = quotesingle;
lastChange = "2018-01-05 19:32:01 +0000";
layers = (
{
layerId = "CF9497EE-3EC0-42B6-AB9D-60F0E4A560B4";
name = "Bold Italic";
shapes = (
{
closed = 1;
nodes = (
(213,531,o),
(231,632,o),
(257,713,c),
(220,732,o),
(151,740,o),
(101,742,c),
(81,656,o),
(69,558,o),
(69,474,c),
(104,456,o),
(164,447,o),
(207,448,c)
);
}
);
width = 248;
}
);
unicode = 39;
},
{
glyphname = florin;
lastChange = "2024-01-26 21:03:55 +0000";
layers = (
{
layerId = "CF9497EE-3EC0-42B6-AB9D-60F0E4A560B4";
name = "Bold Italic";
shapes = (
{
closed = 1;
nodes = (
(520,725,o),
(471,734,o),
(426,734,cs),
(328,734,o),
(248,690,o),
(228,604,cs),
(196,467,o),
(206,287,o),
(178,174,cs),
(166,125,o),
(143,103,o),
(109,103,cs),
(101,103,o),
(93,104,o),
(85,106,c),
(78,82,o),
(74,41,o),
(74,8,cs),
(74,-1,o),
(74,-10,o),
(75,-18,c),
(108,-23,o),
(140,-25,o),
(168,-25,cs),
(296,-25,o),
(376,23,o),
(400,130,cs),
(432,275,o),
(430,478,o),
(459,554,cs),
(471,586,o),
(490,601,o),
(512,601,cs),
(519,601,o),
(526,600,o),
(533,597,c),
(546,618,o),
(562,671,o),
(568,706,c)
);
},
{
closed = 1;
nodes = (
(534,310,o),
(535,318,o),
(535,326,cs),
(535,354,o),
(528,385,o),
(517,413,c),
(411,426,o),
(293,431,o),
(186,431,cs),
(141,431,o),
(99,430,o),
(60,429,c),
(58,422,o),
(56,412,o),
(56,401,cs),
(56,374,o),
(63,340,o),
(75,324,c),
(226,321,o),
(373,320,o),
(533,302,c)
);
}
);
width = 568;
}
);
unicode = 402;
},
{
glyphname = at;
lastChange = "2024-01-26 20:28:02 +0000";
layers = (
{
anchors = (
{
name = top;
pos = (641,526);
}
);
layerId = "CF9497EE-3EC0-42B6-AB9D-60F0E4A560B4";
name = "Bold Italic";
shapes = (
{
closed = 1;
nodes = (
(614,-18,o),
(668,62,o),
(681,164,c),
(664,195,o),
(650,215,o),
(641,227,c),
(639,165,o),
(610,136,o),
(581,136,cs),
(552,136,o),
(525,163,o),
(525,214,cs),
(525,292,o),
(557,328,o),
(587,328,cs),
(616,328,o),
(644,293,o),
(641,227,cs),
(640,202,o),
(668,283,o),
(699,279,cs),
(709,278,o),
(713,284,o),
(713,294,cs),
(713,315,o),
(698,354,o),
(698,386,cs),
(698,458,o),
(642,521,o),
(566,521,cs),
(440,521,o),
(323,415,o),
(323,198,cs),
(323,49,o),
(417,-18,o),
(516,-18,cs)
);
},
{
closed = 1;
nodes = (
(857,241,o),
(867,312,o),
(908,469,c),
(858,497,o),
(754,517,o),
(689,517,c),
(654,380,o),
(636,342,o),
(636,180,cs),
(636,47,o),
(750,-35,o),
(888,-35,cs),
(1041,-35,o),
(1159,70,o),
(1159,279,cs),
(1159,584,o),
(946,726,o),
(639,726,cs),
(322,726,o),
(40,555,o),
(40,215,cs),
(40,-61,o),
(189,-242,o),
(462,-242,cs),
(560,-242,o),
(673,-219,o),
(801,-169,c),
(802,-163,o),
(802,-157,o),
(802,-151,cs),
(802,-132,o),
(800,-112,o),
(796,-90,c),
(729,-104,o),
(670,-110,o),
(617,-110,cs),
(378,-110,o),
(260,2,o),
(260,217,cs),
(260,461,o),
(453,631,o),
(679,631,cs),
(837,631,o),
(982,520,o),
(982,265,cs),
(982,107,o),
(945,47,o),
(911,47,cs),
(883,47,o),
(857,88,o),
(857,147,cs)
);
}
);
width = 1198;
}
);
unicode = 64;
},
{
glyphname = ampersand;
lastChange = "2024-01-26 21:03:55 +0000";
layers = (
{
layerId = "CF9497EE-3EC0-42B6-AB9D-60F0E4A560B4";
name = "Bold Italic";
shapes = (
{
closed = 1;
nodes = (
(605,-5,o),
(623,16,o),
(642,59,c),
(477,133,o),
(293,470,o),
(293,583,cs),
(293,637,o),
(330,664,o),
(366,664,cs),
(398,664,o),
(428,642,o),
(428,600,cs),
(428,495,o),
(31,423,o),
(31,185,cs),
(31,37,o),
(157,-35,o),
(297,-35,cs),
(430,-35,o),
(578,31,o),
(642,157,c),
(623,199,o),
(570,241,o),
(510,270,c),
(450,161,o),
(369,119,o),
(311,119,cs),
(270,119,o),
(241,140,o),
(241,175,cs),
(241,307,o),
(611,306,o),
(611,594,cs),
(611,705,o),
(501,763,o),
(385,763,cs),
(260,763,o),
(128,694,o),
(128,553,cs),
(128,366,o),
(387,52,o),
(577,-33,c)
);
}
);
width = 702;
}
);
unicode = 38;
},
{
glyphname = paragraph;
lastChange = "2024-01-26 21:03:55 +0000";
layers = (
{
layerId = "CF9497EE-3EC0-42B6-AB9D-60F0E4A560B4";
name = "Bold Italic";
shapes = (
{
closed = 1;
nodes = (
(557,107,o),
(591,432,o),
(641,692,c),
(594,714,o),
(534,720,o),
(488,718,c),
(440,446,o),
(411,102,o),
(411,-153,c),
(437,-166,o),
(482,-174,o),
(519,-174,cs),
(530,-174,o),
(539,-173,o),
(548,-172,c)
);
},
{
closed = 1;
nodes = (
(373,120,o),
(407,445,o),
(457,705,c),
(410,727,o),
(365,733,o),
(304,731,cs),
(143,727,o),
(64,590,o),
(64,460,cs),
(64,346,o),
(125,237,o),
(245,226,c),
(236,95,o),
(227,-43,o),
(227,-140,c),
(253,-153,o),
(298,-161,o),
(335,-161,cs),
(346,-161,o),
(355,-160,o),
(364,-159,c)
);
}
);
width = 635;
}
);
unicode = 182;
},
{
glyphname = section;
lastChange = "2024-01-26 21:03:55 +0000";
layers = (
{
layerId = "CF9497EE-3EC0-42B6-AB9D-60F0E4A560B4";
name = "Bold Italic";
shapes = (
{
closed = 1;
nodes = (
(328,582,o),
(337,569,o),
(343,548,cs),
(350,523,o),
(367,492,o),
(408,492,cs),
(472,492,o),
(509,532,o),
(509,591,cs),
(509,683,o),
(419,725,o),
(307,725,cs),
(162,724,o),
(100,628,o),
(100,552,cs),
(100,475,o),
(149,426,o),
(214,385,cs),
(286,340,o),
(315,302,o),
(315,268,cs),
(315,235,o),
(288,206,o),
(247,179,cs),
(235,171,o),
(310,93,o),
(325,102,cs),
(409,152,o),
(455,230,o),
(455,306,cs),
(455,370,o),
(422,432,o),
(350,475,cs),
(306,502,o),
(271,512,o),
(271,548,cs),
(271,567,o),
(287,582,o),
(310,582,cs)
);
},
{
closed = 1;
nodes = (
(198,9,o),
(186,23,o),
(182,47,cs),
(177,72,o),
(156,99,o),
(115,99,cs),
(52,98,o),
(15,59,o),
(15,10,cs),
(15,-92,o),
(99,-133,o),
(218,-133,cs),
(362,-133,o),
(423,-45,o),
(423,30,cs),
(423,98,o),
(391,149,o),
(328,194,cs),
(268,237,o),
(235,281,o),
(235,323,cs),
(235,350,o),
(249,377,o),
(280,401,cs),
(289,408,o),
(293,416,o),
(293,422,cs),
(293,441,o),
(263,455,o),
(237,455,cs),
(232,455,o),
(228,455,o),
(224,454,cs),
(124,432,o),
(67,357,o),
(67,279,cs),
(67,219,o),
(100,158,o),
(173,116,cs),
(217,90,o),
(252,80,o),
(253,44,cs),
(253,25,o),
(237,9,o),
(216,9,cs)
);
}
);
width = 514;
}
);
unicode = 167;
},
{
glyphname = copyright;
lastChange = "2024-01-26 21:03:55 +0000";
layers = (
{
layerId = "CF9497EE-3EC0-42B6-AB9D-60F0E4A560B4";
name = "Bold Italic";
shapes = (
{
closed = 1;
nodes = (
(641,-40,o),
(782,165,o),
(782,373,cs),
(782,562,o),
(647,711,o),
(436,711,cs),
(194,711,o),
(47,524,o),
(47,285,cs),
(47,87,o),
(200,-40,o),
(414,-40,cs)
);
},
{
closed = 1;
nodes = (
(274,93,o),
(195,181,o),
(195,296,cs),
(195,455,o),
(287,575,o),
(435,575,cs),
(556,575,o),
(617,506,o),
(617,362,cs),
(617,206,o),
(556,93,o),
(412,93,cs)
);
},
{
closed = 1;
nodes = (
(458,164,o),
(514,182,o),
(542,225,c),
(531,246,o),
(518,273,o),
(512,281,c),
(490,267,o),
(467,261,o),
(446,261,cs),
(409,261,o),
(379,283,o),
(379,325,cs),
(379,379,o),
(409,405,o),
(427,405,cs),
(435,405,o),
(447,396,o),
(451,381,cs),
(458,360,o),
(476,353,o),
(497,353,cs),
(526,353,o),
(552,380,o),
(552,411,cs),
(552,416,o),
(552,422,o),
(550,427,cs),
(538,471,o),
(500,500,o),
(436,500,cs),
(303,500,o),
(252,395,o),
(252,296,cs),
(252,215,o),
(314,164,o),
(409,164,cs)
);
}
);
width = 812;
}
);
unicode = 169;
},
{
glyphname = registered;
lastChange = "2024-01-26 21:03:55 +0000";
layers = (
{
layerId = "CF9497EE-3EC0-42B6-AB9D-60F0E4A560B4";
name = "Bold Italic";
shapes = (
{
closed = 1;
nodes = (
(418,289,o),
(502,410,o),
(502,534,cs),
(502,646,o),
(422,734,o),
(297,734,cs),
(153,734,o),
(66,623,o),
(66,481,cs),
(66,364,o),
(157,289,o),
(284,289,cs)
);
},
{
closed = 1;
nodes = (
(201,368,o),
(154,420,o),
(154,488,cs),
(154,582,o),
(208,653,o),
(296,653,cs),
(368,653,o),
(404,612,o),
(404,527,cs),
(404,435,o),
(368,368,o),
(282,368,cs)
);
},
{
closed = 1;
nodes = (
(269,461,o),
(272,506,o),
(280,548,c),
(272,558,o),
(232,564,o),
(217,564,c),
(208,521,o),
(204,471,o),
(205,425,c),
(214,417,o),
(249,408,o),
(269,408,c)
);
},
{
closed = 1;
nodes = (
(342,415,o),
(363,430,o),
(374,442,c),
(358,454,o),
(339,478,o),
(325,501,c),
(277,487,l),
(292,457,o),
(305,432,o),
(323,408,c)
);
},
{
closed = 1;
nodes = (
(328,473,o),
(362,509,o),
(362,544,cs),
(362,584,o),
(331,609,o),
(281,609,cs),
(262,609,o),
(240,605,o),
(215,597,c),
(215,582,o),
(222,558,o),
(228,544,c),
(244,553,o),
(260,557,o),
(272,557,cs),
(289,557,o),
(300,549,o),
(300,534,cs),
(300,517,o),
(289,509,o),
(269,509,cs),
(260,509,o),
(257,502,o),
(257,494,cs),
(257,486,o),
(261,477,o),
(265,477,cs)
);
}
);
width = 514;
}
);
unicode = 174;
},
{
glyphname = trademark;
lastChange = "2024-01-26 21:04:00 +0000";
layers = (
{
layerId = "CF9497EE-3EC0-42B6-AB9D-60F0E4A560B4";
name = "Bold Italic";
shapes = (
{
closed = 1;
nodes = (
(167,583,o),
(224,588,o),
(284,588,cs),
(318,588,o),
(353,586,o),
(391,583,c),
(393,596,o),
(394,619,o),
(394,645,cs),
(394,663,o),
(394,683,o),
(391,701,c),
(340,707,o),
(283,710,o),
(227,710,cs),
(177,710,o),
(128,707,o),
(88,703,c),
(87,698,o),
(87,691,o),
(87,683,cs),
(87,650,o),
(93,596,o),
(103,574,c)
);
},
{
closed = 1;
nodes = (
(317,428,o),
(320,498,o),
(330,566,c),
(292,583,o),
(203,598,o),
(175,597,c),
(164,529,o),
(159,468,o),
(160,393,c),
(198,370,o),
(273,357,o),
(316,360,c)
);
},
{
closed = 1;
nodes = (
(860,476,o),
(867,566,o),
(888,672,c),
(859,687,o),
(775,699,o),
(736,700,c),
(716,615,o),
(703,493,o),
(704,398,c),
(743,380,o),
(798,367,o),
(839,367,cs),
(845,367,o),
(851,368,o),
(856,368,c)
);
},
{
closed = 1;
nodes = (
(575,476,o),
(572,566,o),
(594,672,c),
(561,689,o),
(469,701,o),
(441,700,c),
(425,628,o),
(420,529,o),
(420,442,cs),
(420,398,l),
(450,381,o),
(522,364,o),
(571,368,c)
);
},
{
closed = 1;
nodes = (
(700,504,o),
(727,560,o),
(758,601,cs),
(769,616,o),
(773,629,o),
(773,641,cs),
(773,674,o),
(742,696,o),
(736,700,c),
(699,644,o),
(671,593,o),
(646,525,c),
(623,572,o),
(609,609,o),
(593,672,c),
(580,656,o),
(560,624,o),
(560,598,cs),
(560,594,o),
(561,590,o),
(562,586,cs),
(580,525,o),
(586,496,o),
(604,455,c),
(628,444,o),
(651,438,o),
(677,437,c)
);
}
);
width = 884;
}
);
unicode = 8482;
},
{
glyphname = degree;
lastChange = "2024-01-26 21:03:55 +0000";
layers = (
{
layerId = "CF9497EE-3EC0-42B6-AB9D-60F0E4A560B4";
name = "Bold Italic";
shapes = (
{
closed = 1;
nodes = (
(359,444,o),
(432,516,o),
(432,588,cs),
(432,682,o),
(383,784,o),
(284,784,cs),
(189,784,o),
(81,730,o),
(81,635,cs),
(81,540,o),
(134,444,o),
(231,444,cs)
);
},
{
closed = 1;
nodes = (
(229,617,o),
(228,622,o),
(228,626,cs),
(228,653,o),
(251,673,o),
(275,679,cs),
(278,680,o),
(282,681,o),
(285,681,cs),
(311,681,o),
(331,652,o),
(338,622,cs),
(339,618,o),
(339,614,o),
(339,610,cs),
(339,584,o),
(317,565,o),
(293,559,cs),
(290,558,o),
(287,558,o),
(284,558,cs),
(263,558,o),
(241,577,o),
(230,613,cs)
);
}
);
width = 437;
}
);
unicode = 176;
},
{
glyphname = bar;
lastChange = "2024-01-26 21:03:55 +0000";
layers = (
{
layerId = "CF9497EE-3EC0-42B6-AB9D-60F0E4A560B4";
name = "Bold Italic";
shapes = (
{
closed = 1;
nodes = (
(169,107,o),
(203,432,o),
(253,692,c),
(206,714,o),
(146,720,o),
(100,718,c),
(52,446,o),
(23,102,o),
(23,-153,c),
(49,-166,o),
(94,-174,o),
(131,-174,cs),
(142,-174,o),
(151,-173,o),
(160,-172,c)
);
}
);
width = 247;
}
);
unicode = 124;
},
{
glyphname = brokenbar;
lastChange = "2024-01-26 21:03:55 +0000";
layers = (
{
layerId = "CF9497EE-3EC0-42B6-AB9D-60F0E4A560B4";
name = "Bold Italic";
shapes = (
{
closed = 1;
nodes = (
(199,417,o),
(224,534,o),
(262,692,c),
(215,714,o),
(155,720,o),
(109,718,c),
(72,564,o),
(57,431,o),
(49,321,c),
(75,308,o),
(120,300,o),
(157,300,cs),
(168,300,o),
(177,301,o),
(186,302,c)
);
},
{
closed = 1;
nodes = (
(156,-69,o),
(162,66,o),
(187,220,c),
(140,242,o),
(92,248,o),
(46,246,c),
(27,91,o),
(16,-51,o),
(16,-151,c),
(42,-164,o),
(87,-172,o),
(124,-172,cs),
(135,-172,o),
(144,-171,o),
(153,-170,c)
);
}
);
width = 256;
}
);
unicode = 166;
},
{
glyphname = dagger;
lastChange = "2024-01-26 21:03:55 +0000";
layers = (
{
layerId = "CF9497EE-3EC0-42B6-AB9D-60F0E4A560B4";
name = "Bold Italic";
shapes = (
{
closed = 1;
nodes = (
(344,443,o),
(355,583,o),
(381,754,c),
(363,757,o),
(341,758,o),
(320,758,cs),
(296,758,o),
(272,757,o),
(253,753,c),
(211,589,o),
(196,459,o),
(188,293,c),
(222,286,o),
(264,282,o),
(303,282,cs),
(317,282,o),
(330,283,o),
(343,284,c)
);
},
{
closed = 1;
nodes = (
(132,546,o),
(179,547,o),
(225,547,cs),
(309,547,o),
(392,544,o),
(486,536,c),
(487,544,o),
(487,553,o),
(487,562,cs),
(487,585,o),
(485,611,o),
(479,630,c),
(337,653,o),
(225,659,o),
(83,658,c),
(80,640,o),
(79,619,o),
(79,599,cs),
(79,580,o),
(80,561,o),
(83,544,c)
);
}
);
width = 496;
}
);
unicode = 8224;
},
{
glyphname = daggerdbl;
lastChange = "2024-01-26 21:03:55 +0000";
layers = (
{
layerId = "CF9497EE-3EC0-42B6-AB9D-60F0E4A560B4";
name = "Bold Italic";
shapes = (
{
closed = 1;
nodes = (
(344,443,o),
(355,583,o),
(381,754,c),
(363,757,o),
(341,758,o),
(320,758,cs),
(296,758,o),
(272,757,o),
(253,753,c),
(211,589,o),
(196,459,o),
(188,293,c),
(222,286,o),
(264,282,o),
(303,282,cs),
(317,282,o),
(330,283,o),
(343,284,c)
);
},
{
closed = 1;
nodes = (
(132,546,o),
(179,547,o),
(225,547,cs),
(309,547,o),
(392,544,o),
(486,536,c),
(487,544,o),
(487,553,o),
(487,562,cs),
(487,585,o),
(485,611,o),
(479,630,c),
(337,653,o),
(225,659,o),
(83,658,c),
(80,640,o),
(79,619,o),
(79,599,cs),
(79,580,o),
(80,561,o),
(83,544,c)
);
},
{
closed = 1;
nodes = (
(126,384,o),
(173,385,o),
(219,385,cs),
(303,385,o),
(386,382,o),
(480,374,c),
(481,382,o),
(481,391,o),
(481,400,cs),
(481,423,o),
(479,449,o),
(473,468,c),
(331,491,o),
(219,497,o),
(77,496,c),
(74,478,o),
(73,457,o),
(73,437,cs),
(73,418,o),
(74,399,o),
(77,382,c)
);
}
);
width = 507;
}
);
unicode = 8225;
},
{
glyphname = numero;
lastChange = "2024-01-26 21:03:55 +0000";
layers = (
{
layerId = "CF9497EE-3EC0-42B6-AB9D-60F0E4A560B4";
name = "Bold Italic";
shapes = (
{
closed = 1;
nodes = (
(825,190,o),
(919,196,o),
(999,196,cs),
(1030,196,o),
(1060,195,o),
(1084,193,c),
(1085,203,o),
(1085,214,o),
(1085,225,cs),
(1085,249,o),
(1083,274,o),
(1080,299,c),
(1003,308,o),
(918,312,o),
(849,312,cs),
(804,312,o),
(766,311,o),
(741,307,c),
(738,276,o),
(746,213,o),
(758,181,c)
);
},
{
ref = N;
},
{
alignment = -1;
pos = (740,346);
ref = o;
scale = (0.727,0.727);
}
);
width = 1130;
}
);
unicode = 8470;
},
{
glyphname = blackHeart;
lastChange = "2024-01-26 21:03:55 +0000";
layers = (
{
layerId = "CF9497EE-3EC0-42B6-AB9D-60F0E4A560B4";
shapes = (
{
closed = 1;
nodes = (
(335,169,o),
(253,337,o),
(253,485,cs),
(253,552,o),
(287,591,o),
(335,591,cs),
(378,591,o),
(417,555,o),
(417,486,cs),
(417,469,o),
(415,450,o),
(409,428,c),
(551,407,l),
(517,656,o),
(442,742,o),
(275,742,cs),
(114,742,o),
(30,643,o),
(30,491,cs),
(30,310,o),
(166,123,o),
(319,9,c),
(454,73,l)
);
},
{
closed = 1;
nodes = (
(718,91,o),
(890,310,o),
(890,500,cs),
(890,657,o),
(809,723,o),
(696,723,cs),
(612,723,o),
(521,686,o),
(454,552,c),
(551,407,l),
(565,500,o),
(607,551,o),
(642,551,cs),
(670,551,o),
(692,534,o),
(692,489,cs),
(692,371,o),
(564,183,o),
(319,9,c),
(488,-13,l)
);
}
);
width = 870;
}
);
unicode = 128420;
},
{
glyphname = cent;
lastChange = "2024-01-26 21:03:55 +0000";
layers = (
{
layerId = "CF9497EE-3EC0-42B6-AB9D-60F0E4A560B4";
name = "Bold Italic";
shapes = (
{
closed = 1;
nodes = (
(271,-14,o),
(278,-14,o),
(285,-14,cs),
(357,-14,o),
(452,21,o),
(491,82,c),
(474,114,o),
(453,156,o),
(445,169,c),
(415,150,o),
(383,142,o),
(353,142,cs),
(286,142,o),
(231,185,o),
(238,254,cs),
(246,327,o),
(283,362,o),
(312,362,cs),
(324,362,o),
(336,355,o),
(342,333,cs),
(347,313,o),
(401,294,o),
(432,291,cs),
(461,288,o),
(506,338,o),
(506,381,cs),
(506,386,o),
(505,391,o),
(504,396,cs),
(480,475,o),
(425,499,o),
(325,510,cs),
(316,511,o),
(306,511,o),
(297,511,cs),
(166,511,o),
(57,414,o),
(40,254,cs),
(39,246,o),
(39,238,o),
(39,230,cs),
(39,107,o),
(133,1,o),
(264,-13,cs)
);
},
{
closed = 1;
nodes = (
(321,-84,o),
(334,17,o),
(335,60,c),
(300,73,o),
(260,80,o),
(211,78,c),
(197,48,o),
(184,-59,o),
(186,-108,c),
(221,-115,o),
(270,-117,o),
(309,-120,c)
);
},
{
closed = 1;
nodes = (
(474,270,o),
(510,309,o),
(510,351,cs),
(510,403,o),
(485,460,o),
(437,460,cs),
(388,460,o),
(335,430,o),
(335,377,cs),
(335,325,o),
(361,270,o),
(410,270,cs)
);
},
{
closed = 1;
nodes = (
(384,434,o),
(396,536,o),
(397,579,c),
(362,592,o),
(322,598,o),
(274,597,c),
(260,566,o),
(246,459,o),
(249,410,c),
(283,404,o),
(332,401,o),
(372,399,c)
);
}
);
width = 549;
}
);
unicode = 162;
},
{
glyphname = currency;
lastChange = "2024-01-26 21:04:00 +0000";
layers = (
{
layerId = "CF9497EE-3EC0-42B6-AB9D-60F0E4A560B4";
name = "Bold Italic";
shapes = (
{
closed = 1;
nodes = (
(388,123,o),
(471,204,o),
(471,285,cs),
(472,392,o),
(419,506,o),
(304,506,cs),
(197,506,o),
(78,445,o),
(78,337,cs),
(78,232,o),
(137,126,o),
(244,125,cs)
);
},
{
closed = 1;
nodes = (
(136,87,o),
(196,143,o),
(220,169,c),
(206,195,o),
(184,219,o),
(155,245,c),
(129,233,o),
(65,175,o),
(41,144,c),
(59,121,o),
(87,95,o),
(110,72,c)
);
},
{
closed = 1;
nodes = (
(221,462,o),
(171,526,o),
(147,553,c),
(120,541,o),
(94,521,o),
(66,494,c),
(76,468,o),
(129,399,o),
(158,373,c),
(182,389,o),
(211,415,o),
(235,436,c)
);
},
{
closed = 1;
nodes = (
(489,157,o),
(438,221,o),
(415,249,c),
(387,237,o),
(362,217,o),
(333,189,c),
(344,164,o),
(397,95,o),
(425,68,c),
(450,85,o),
(478,111,o),
(503,132,c)
);
},
{
closed = 1;
nodes = (
(436,397,o),
(496,453,o),
(522,479,c),
(507,505,o),
(486,529,o),
(456,555,c),
(431,543,o),
(367,485,o),
(343,454,c),
(361,431,o),
(389,405,o),
(412,382,c)
);
},
{
closed = 1;
nodes = (
(197,311,o),
(196,317,o),
(196,323,cs),
(196,366,o),
(230,397,o),
(269,406,cs),
(275,408,o),
(280,408,o),
(285,408,cs),
(326,408,o),
(357,363,o),
(368,316,cs),
(369,310,o),
(370,305,o),
(370,299,cs),
(370,258,o),
(333,227,o),
(296,218,cs),
(292,217,o),
(287,216,o),
(282,216,cs),
(250,216,o),
(215,247,o),
(198,304,c)
);
}
);
width = 555;
}
);
unicode = 164;
},
{
glyphname = dollar;
lastChange = "2024-01-26 21:03:55 +0000";
layers = (
{
layerId = "CF9497EE-3EC0-42B6-AB9D-60F0E4A560B4";
name = "Bold Italic";
shapes = (
{
closed = 1;
nodes = (
(89,19,o),
(209,-20,o),
(326,-20,cs),
(486,-20,o),
(640,52,o),
(640,171,cs),
(640,355,o),
(351,381,o),
(351,493,cs),
(351,532,o),
(380,559,o),
(425,559,cs),
(469,559,o),
(486,529,o),
(492,477,cs),
(497,440,o),
(528,415,o),
(583,415,cs),
(639,415,o),
(677,446,o),
(677,499,cs),
(677,654,o),
(553,721,o),
(421,721,cs),
(274,721,o),
(118,636,o),
(118,493,cs),
(118,277,o),
(396,299,o),
(396,185,cs),
(396,159,o),
(366,146,o),
(323,146,cs),
(256,146,o),
(156,178,o),
(95,240,c),
(61,196,o),
(38,149,o),
(25,106,c)
);
},
{
closed = 1;
nodes = (
(385,-90,o),
(402,39,o),
(403,94,c),
(358,111,o),
(307,120,o),
(245,117,c),
(227,79,o),
(210,-58,o),
(213,-121,c),
(257,-129,o),
(319,-133,o),
(370,-136,c)
);
},
{
closed = 1;
nodes = (
(481,614,o),
(497,744,o),
(499,799,c),
(454,816,o),
(402,824,o),
(340,822,c),
(322,783,o),
(305,646,o),
(308,584,c),
(352,575,o),
(415,572,o),
(465,569,c)
);
}
);
width = 691;
}
);
unicode = 36;
},
{
glyphname = euro;
lastChange = "2024-01-26 21:03:55 +0000";
layers = (
{
layerId = "CF9497EE-3EC0-42B6-AB9D-60F0E4A560B4";
name = "Bold Italic";
shapes = (
{
closed = 1;
nodes = (
(265,-17,o),
(442,-17,cs),
(546,-17,o),
(639,24,o),
(722,117,c),
(704,161,o),
(682,207,o),
(662,238,c),
(614,195,o),
(565,176,o),
(522,176,cs),
(441,176,o),
(380,243,o),
(380,350,cs),
(380,456,o),
(436,514,o),
(493,514,cs),
(527,514,o),
(544,491,o),
(544,471,cs),
(544,425,o),
(585,409,o),
(627,409,cs),
(666,409,o),
(704,444,o),
(704,511,cs),
(704,638,o),
(620,723,o),
(487,723,cs),
(259,723,o),
(123,535,o),
(123,343,cs),
(123,119,o)
);
},
{
closed = 1;
nodes = (
(525,214,o),
(526,228,o),
(526,242,cs),
(526,265,o),
(523,289,o),
(514,310,c),
(397,326,o),
(260,333,o),
(143,333,cs),
(110,333,o),
(78,332,o),
(49,331,c),
(47,302,o),
(60,248,o),
(77,225,c),
(229,222,o),
(362,219,o),
(523,201,c)
);
},
{
closed = 1;
nodes = (
(539,341,o),
(540,349,o),
(540,357,cs),
(540,385,o),
(533,416,o),
(522,444,c),
(416,457,o),
(298,462,o),
(191,462,cs),
(146,462,o),
(104,461,o),
(65,460,c),
(63,453,o),
(61,443,o),
(61,432,cs),
(61,405,o),
(68,371,o),
(80,355,c),
(231,352,o),
(378,351,o),
(538,333,c)
);
}
);
width = 776;
}
);
unicode = 8364;
},
{
glyphname = hryvnia;
lastChange = "2024-01-26 21:03:55 +0000";
layers = (
{
layerId = "CF9497EE-3EC0-42B6-AB9D-60F0E4A560B4";
name = "Bold Italic";
shapes = (
{
closed = 1;
nodes = (
(250,310,o),
(557,302,o),
(557,517,cs),
(557,624,o),
(483,723,o),
(340,723,cs),
(188,723,o),
(93,657,o),
(93,588,cs),
(93,530,o),
(136,491,o),
(179,491,cs),
(256,491,o),
(269,571,o),
(323,571,cs),
(372,571,o),
(394,550,o),
(394,504,cs),
(394,426,o),
(294,404,o),
(201,359,cs),
(124,321,o),
(52,267,o),
(52,150,cs),
(52,49,o),
(182,-19,o),
(320,-19,cs),
(408,-19,o),
(500,9,o),
(564,74,c),
(564,105,o),
(550,151,o),
(530,175,c),
(475,139,o),
(419,124,o),
(372,124,cs),
(301,124,o),
(250,156,o),
(250,196,cs)
);
},
{
closed = 1;
nodes = (
(526,225,o),
(527,239,o),
(527,253,cs),
(527,276,o),
(524,300,o),
(515,321,c),
(398,337,o),
(261,344,o),
(144,344,cs),
(111,344,o),
(79,343,o),
(50,342,c),
(48,313,o),
(48,269,o),
(60,236,c),
(212,233,o),
(363,230,o),
(524,212,c)
);
},
{
closed = 1;
nodes = (
(540,352,o),
(541,360,o),
(541,368,cs),
(541,396,o),
(534,427,o),
(523,455,c),
(417,468,o),
(299,473,o),
(192,473,cs),
(147,473,o),
(105,472,o),
(66,471,c),
(64,464,o),
(62,454,o),
(62,443,cs),
(62,416,o),
(69,382,o),
(81,366,c),
(232,363,o),
(379,362,o),
(539,344,c)
);
}
);
width = 622;
}
);
unicode = 8372;
},
{
glyphname = ruble;
lastChange = "2024-01-26 21:04:00 +0000";
layers = (
{
layerId = "CF9497EE-3EC0-42B6-AB9D-60F0E4A560B4";
name = "Bold Italic";
shapes = (
{
closed = 1;
nodes = (
(377,263,o),
(389,263,o),
(401,263,cs),
(629,263,o),
(730,402,o),
(730,526,cs),
(730,620,o),
(672,705,o),
(569,716,cs),
(500,723,o),
(441,726,o),
(392,726,cs),
(276,726,o),
(210,710,o),
(176,696,c),
(170,646,o),
(193,571,o),
(213,531,c),
(276,548,o),
(404,564,o),
(441,561,cs),
(478,557,o),
(499,521,o),
(499,483,cs),
(499,436,o),
(467,385,o),
(394,386,cs),
(355,387,o),
(339,349,o),
(339,316,cs),
(339,289,o),
(349,265,o),
(364,264,cs)
);
},
{
closed = 1;
nodes = (
(600,107,o),
(601,120,o),
(601,132,cs),
(601,164,o),
(595,198,o),
(579,223,c),
(458,239,o),
(318,245,o),
(193,245,cs),
(140,245,o),
(88,244,o),
(43,242,c),
(41,234,o),
(39,224,o),
(39,211,cs),
(39,178,o),
(49,135,o),
(69,121,c),
(244,117,o),
(413,116,o),
(598,96,c)
);
},
{
closed = 1;
nodes = (
(383,281,o),
(385,299,o),
(385,318,cs),
(385,343,o),
(381,367,o),
(368,388,c),
(352,386,o),
(327,386,o),
(298,386,cs),
(225,386,o),
(124,390,o),
(58,396,c),
(53,381,o),
(49,353,o),
(49,327,cs),
(49,305,o),
(52,284,o),
(60,274,c),
(235,270,o),
(276,264,o),
(380,264,c)
);
},
{
closed = 1;
nodes = (
(381,230,o),
(396,419,o),
(440,643,c),
(407,676,o),
(260,703,o),
(201,702,c),
(163,534,o),
(136,298,o),
(136,105,cs),
(136,66,l),
(165,37,o),
(300,0,o),
(355,0,cs),
(362,0,o),
(368,1,o),
(372,2,c)
);
}
);
width = 742;
}
);
unicode = 8381;
},
{
glyphname = sterling;
lastChange = "2024-01-26 21:04:00 +0000";
layers = (
{
layerId = "CF9497EE-3EC0-42B6-AB9D-60F0E4A560B4";
name = "Bold Italic";
shapes = (
{
closed = 1;
nodes = (
(346,210,ls),
(346,307,o),
(356,408,o),
(363,490,cs),
(368,550,o),
(391,581,o),
(409,581,cs),
(418,581,o),
(425,575,o),
(429,563,cs),
(432,554,o),
(437,551,o),
(443,551,cs),
(453,551,o),
(466,560,o),
(474,560,cs),
(478,560,o),
(480,558,o),
(480,552,cs),
(480,531,o),
(498,511,o),
(528,511,cs),
(566,511,o),
(616,550,o),
(611,603,cs),
(602,707,o),
(516,738,o),
(421,738,cs),
(271,738,o),
(181,663,o),
(155,482,cs),
(144,405,o),
(134,327,o),
(129,234,c),
(186,196,o),
(293,175,o),
(346,175,c)
);
},
{
closed = 1;
nodes = (
(217,-6,o),
(336,2,o),
(467,2,cs),
(503,2,o),
(539,1,o),
(576,0,c),
(579,25,o),
(581,56,o),
(581,89,cs),
(581,121,o),
(579,155,o),
(573,186,c),
(487,198,o),
(388,204,o),
(293,204,cs),
(209,204,o),
(128,199,o),
(61,191,c),
(60,181,o),
(59,167,o),
(59,152,cs),
(59,92,o),
(70,6,o),
(91,-19,c)
);
},
{
closed = 1;
nodes = (
(233,319,o),
(329,322,o),
(484,324,c),
(488,365,o),
(475,427,o),
(463,472,c),
(380,480,o),
(318,484,o),
(258,484,cs),
(198,484,o),
(140,480,o),
(64,472,c),
(62,461,o),
(61,447,o),
(61,431,cs),
(61,383,o),
(70,319,o),
(89,292,c)
);
},
{
closed = 1;
nodes = (
(572,499,o),
(612,543,o),
(612,587,cs),
(612,644,o),
(585,707,o),
(532,707,cs),
(479,707,o),
(421,673,o),
(421,615,cs),
(421,558,o),
(449,499,o),
(502,499,cs)
);
}
);
width = 642;
}
);
unicode = 163;
},
{
glyphname = yen;
lastChange = "2024-01-26 21:03:55 +0000";
layers = (
{
layerId = "CF9497EE-3EC0-42B6-AB9D-60F0E4A560B4";
name = "Bold Italic";
shapes = (
{
closed = 1;
nodes = (
(340,333,o),
(427,360,o),
(494,395,c),
(430,478,o),
(344,663,o),
(311,755,c),
(253,741,o),
(133,692,o),
(83,662,c),
(120,527,o),
(193,399,o),
(267,315,c)
);
},
{
closed = 1;
nodes = (
(640,93,o),
(641,110,o),
(641,126,cs),
(641,153,o),
(638,180,o),
(628,205,c),
(495,222,o),
(361,229,o),
(238,229,cs),
(201,229,o),
(165,228,o),
(130,227,c),
(128,193,o),
(142,130,o),
(162,104,c),
(337,100,o),
(453,99,o),
(638,78,c)
);
},
{
closed = 1;
nodes = (
(492,140,o),
(499,254,o),
(534,389,c),
(500,411,o),
(352,433,o),
(294,435,c),
(267,350,o),
(251,237,o),
(251,133,cs),
(251,104,o),
(252,76,o),
(255,49,c),
(289,28,o),
(456,-4,o),
(493,0,c)
);
},
{
closed = 1;
nodes = (
(657,239,o),
(658,248,o),
(658,257,cs),
(658,291,o),
(650,327,o),
(637,359,c),
(514,375,o),
(371,381,o),
(244,381,cs),
(192,381,o),
(144,380,o),
(100,378,c),
(98,371,o),
(96,360,o),
(96,349,cs),
(96,315,o),
(106,271,o),
(127,256,c),
(302,253,o),
(471,252,o),
(656,231,c)
);
},
{
closed = 1;
nodes = (
(567,421,o),
(646,512,o),
(760,590,c),
(712,653,o),
(626,724,o),
(577,755,c),
(491,653,o),
(430,507,o),
(393,377,c),
(426,331,o),
(463,320,o),
(512,287,c)
);
}
);
width = 764;
}
);
unicode = 165;
},
{
glyphname = plus;
lastChange = "2024-01-26 21:03:55 +0000";
layers = (
{
layerId = "CF9497EE-3EC0-42B6-AB9D-60F0E4A560B4";
name = "Bold Italic";
shapes = (
{
closed = 1;
nodes = (
(438,199,o),
(452,377,o),
(490,581,c),
(449,612,o),
(351,632,o),
(304,630,c),
(279,487,o),
(266,341,o),
(266,178,cs),
(266,132,o),
(267,84,o),
(269,35,c),
(300,5,o),
(376,-20,o),
(433,-18,c)
);
},
{
closed = 1;
nodes = (
(205,215,o),
(378,223,o),
(522,223,cs),
(574,223,o),
(622,222,o),
(663,220,c),
(664,234,o),
(665,249,o),
(665,265,cs),
(665,297,o),
(662,331,o),
(656,364,c),
(516,377,o),
(363,383,o),
(240,383,cs),
(162,383,o),
(97,381,o),
(53,376,c),
(52,370,o),
(52,363,o),
(52,355,cs),
(52,309,o),
(66,241,o),
(82,203,c)
);
}
);
width = 706;
}
);
unicode = 43;
},
{
glyphname = minus;
lastChange = "2024-01-26 21:03:55 +0000";
layers = (
{
layerId = "CF9497EE-3EC0-42B6-AB9D-60F0E4A560B4";
name = "Bold Italic";
shapes = (
{
closed = 1;
nodes = (
(200,189,o),
(369,196,o),
(511,196,cs),
(566,196,o),
(617,195,o),
(660,193,c),
(661,208,o),
(662,224,o),
(662,240,cs),
(662,272,o),
(659,305,o),
(654,338,c),
(514,351,o),
(361,357,o),
(237,357,cs),
(160,357,o),
(94,355,o),
(51,350,c),
(50,343,o),
(50,336,o),
(50,328,cs),
(50,282,o),
(63,213,o),
(80,177,c)
);
}
);
width = 706;
}
);
unicode = 8722;
},
{
glyphname = multiply;
lastChange = "2017-11-27 15:32:02 +0000";
layers = (
{
layerId = "CF9497EE-3EC0-42B6-AB9D-60F0E4A560B4";
name = "Bold Italic";
shapes = (
{
closed = 1;
nodes = (
(294,107,o),
(437,271,o),
(586,416,c),
(569,457,o),
(526,508,o),
(481,542,c),
(329,398,o),
(199,271,o),
(57,115,c),
(70,65,o),
(133,-13,o),
(171,-41,c)
);
},
{
closed = 1;
nodes = (
(505,5,o),
(541,43,o),
(570,83,c),
(426,260,o),
(245,451,o),
(158,524,c),
(123,498,o),
(72,427,o),
(54,382,c),
(183,274,o),
(370,93,o),
(470,-22,c)
);
}
);
width = 628;
}
);
unicode = 215;
},
{
glyphname = divide;
lastChange = "2024-01-26 21:03:55 +0000";
layers = (
{
layerId = "CF9497EE-3EC0-42B6-AB9D-60F0E4A560B4";
name = "Bold Italic";
shapes = (
{
closed = 1;
nodes = (
(202,187,o),
(375,195,o),
(519,195,cs),
(571,195,o),
(619,194,o),
(659,192,c),
(661,208,o),
(662,224,o),
(662,242,cs),
(662,273,o),
(659,306,o),
(653,337,c),
(514,349,o),
(362,355,o),
(239,355,cs),
(160,355,o),
(94,353,o),
(50,348,c),
(49,342,o),
(49,334,o),
(49,326,cs),
(49,281,o),
(62,212,o),
(79,175,c)
);
},
{
closed = 1;
nodes = (
(391,-56,o),
(431,-12,o),
(431,32,cs),
(431,89,o),
(404,152,o),
(351,152,cs),
(298,152,o),
(240,118,o),
(240,61,cs),
(240,3,o),
(268,-56,o),
(321,-56,cs)
);
},
{
closed = 1;
nodes = (
(441,402,o),
(481,447,o),
(481,491,cs),
(481,548,o),
(454,610,o),
(401,610,cs),
(348,610,o),
(290,577,o),
(290,519,cs),
(290,462,o),
(318,402,o),
(371,402,cs)
);
}
);
width = 705;
}
);
unicode = 247;
},
{
glyphname = equal;
lastChange = "2024-01-26 21:03:55 +0000";
layers = (
{
layerId = "CF9497EE-3EC0-42B6-AB9D-60F0E4A560B4";
name = "Bold Italic";
shapes = (
{
closed = 1;
nodes = (
(191,41,o),
(364,49,o),
(508,49,cs),
(560,49,o),
(608,48,o),
(649,46,c),
(650,60,o),
(651,76,o),
(651,92,cs),
(651,126,o),
(648,162,o),
(642,194,c),
(516,206,o),
(379,211,o),
(263,211,cs),
(170,211,o),
(89,207,o),
(39,202,c),
(38,196,o),
(38,189,o),
(38,181,cs),
(38,135,o),
(52,67,o),
(68,29,c)
);
},
{
closed = 1;
nodes = (
(215,308,o),
(387,315,o),
(531,315,cs),
(583,315,o),
(632,314,o),
(673,312,c),
(674,326,o),
(675,341,o),
(675,357,cs),
(675,389,o),
(672,424,o),
(666,457,c),
(525,469,o),
(369,475,o),
(245,475,cs),
(170,475,o),
(106,473,o),
(63,469,c),
(62,463,o),
(62,456,o),
(62,448,cs),
(62,402,o),
(76,333,o),
(92,296,c)
);
}
);
width = 710;
}
);
unicode = 61;
},
{
glyphname = notequal;
lastChange = "2024-01-26 21:03:55 +0000";
layers = (
{
layerId = "CF9497EE-3EC0-42B6-AB9D-60F0E4A560B4";
name = "Bold Italic";
shapes = (
{
closed = 1;
nodes = (
(345,6,o),
(494,341,o),
(581,551,c),
(541,581,o),
(496,606,o),
(455,622,c),
(393,483,o),
(238,152,o),
(148,11,c),
(178,-26,o),
(248,-79,o),
(289,-93,c)
);
},
{
closed = 1;
nodes = (
(186,80,o),
(358,87,o),
(502,87,cs),
(554,87,o),
(603,86,o),
(644,84,c),
(645,99,o),
(646,114,o),
(646,130,cs),
(646,162,o),
(643,196,o),
(638,229,c),
(510,243,o),
(369,249,o),
(251,249,cs),
(161,249,o),
(83,246,o),
(35,240,c),
(34,234,o),
(34,226,o),
(34,218,cs),
(34,173,o),
(47,104,o),
(63,68,c)
);
},
{
closed = 1;
nodes = (
(213,322,o),
(381,330,o),
(523,330,cs),
(579,330,o),
(631,329,o),
(674,326,c),
(675,341,o),
(676,357,o),
(676,373,cs),
(676,405,o),
(673,438,o),
(668,471,c),
(528,484,o),
(375,490,o),
(251,490,cs),
(174,490,o),
(108,488,o),
(65,483,c),
(64,476,o),
(64,469,o),
(64,461,cs),
(64,415,o),
(77,347,o),
(93,310,c)
);
}
);
width = 707;
}
);
unicode = 8800;
},
{
glyphname = greater;
lastChange = "2024-01-26 20:57:40 +0000";
layers = (
{
layerId = "CF9497EE-3EC0-42B6-AB9D-60F0E4A560B4";
name = "Bold Italic";
shapes = (
{
closed = 1;
nodes = (
(242,5,o),
(328,95,o),
(449,196,c),
(435,243,o),
(419,289,o),
(394,318,c),
(293,255,o),
(99,100,o),
(20,16,c),
(52,-30,o),
(105,-79,o),
(143,-102,c)
);
},
{
closed = 1;
nodes = (
(449,233,o),
(453,252,o),
(465,304,c),
(381,383,o),
(276,501,o),
(211,600,c),
(166,580,o),
(98,533,o),
(66,493,c),
(146,399,o),
(272,287,o),
(449,196,c)
);
}
);
width = 499;
}
);
unicode = 62;
},
{
glyphname = less;
lastChange = "2024-01-26 20:57:27 +0000";
layers = (
{
layerId = "CF9497EE-3EC0-42B6-AB9D-60F0E4A560B4";
name = "Bold Italic";
shapes = (
{
closed = 1;
nodes = (
(224,247,o),
(414,402,o),
(493,486,c),
(461,532,o),
(408,581,o),
(370,604,c),
(271,497,o),
(166,389,o),
(45,296,c),
(64,252,o),
(75,224,o),
(75,178,c)
);
},
{
closed = 1;
nodes = (
(347,-78,o),
(415,-30,o),
(447,9,c),
(398,74,o),
(223,231,o),
(124,308,c),
(102,267,o),
(77,208,o),
(75,178,c),
(159,98,o),
(237,1,o),
(302,-98,c)
);
}
);
width = 512;
}
);
unicode = 60;
},
{
glyphname = greaterequal;
lastChange = "2024-01-26 20:57:48 +0000";
layers = (
{
layerId = "CF9497EE-3EC0-42B6-AB9D-60F0E4A560B4";
name = "Bold Italic";
shapes = (
{
closed = 1;
nodes = (
(503,328,o),
(502,356,o),
(518,411,c),
(422,475,o),
(298,572,o),
(216,658,c),
(175,630,o),
(117,571,o),
(92,527,c),
(188,448,o),
(332,360,o),
(482,282,c)
);
},
{
closed = 1;
nodes = (
(219,-70,o),
(370,-4,o),
(495,38,c),
(484,74,o),
(467,115,o),
(444,151,c),
(257,97,o),
(100,38,o),
(14,-7,c),
(22,-42,o),
(61,-107,o),
(90,-135,c)
);
},
{
closed = 1;
nodes = (
(247,154,o),
(355,214,o),
(501,275,c),
(502,324,o),
(509,360,o),
(518,411,c),
(370,377,o),
(139,287,o),
(38,231,c),
(55,177,o),
(91,115,o),
(120,82,c)
);
}
);
width = 557;
}
);
unicode = 8805;
},
{
glyphname = lessequal;
lastChange = "2024-01-26 20:57:18 +0000";
layers = (
{
layerId = "CF9497EE-3EC0-42B6-AB9D-60F0E4A560B4";
name = "Bold Italic";
shapes = (
{
closed = 1;
nodes = (
(250,331,o),
(471,434,o),
(569,496,c),
(549,548,o),
(510,608,o),
(480,640,c),
(357,561,o),
(228,483,o),
(88,423,c),
(119,364,o),
(118,326,o),
(136,295,c)
);
},
{
closed = 1;
nodes = (
(457,-125,o),
(499,-63,o),
(509,-28,c),
(426,21,o),
(258,88,o),
(73,150,c),
(49,115,o),
(30,76,o),
(18,39,c),
(140,-7,o),
(302,-82,o),
(427,-153,c)
);
},
{
closed = 1;
nodes = (
(470,126,o),
(515,195,o),
(530,244,c),
(461,286,o),
(239,366,o),
(88,423,c),
(114,356,o),
(114,315,o),
(122,263,c),
(229,220,o),
(338,158,o),
(435,91,c)
);
}
);
width = 583;
}
);
unicode = 8804;
},
{
glyphname = plusminus;
lastChange = "2024-01-26 21:03:55 +0000";
layers = (
{
layerId = "CF9497EE-3EC0-42B6-AB9D-60F0E4A560B4";
name = "Bold Italic";
shapes = (
{
closed = 1;
nodes = (
(451,333,o),
(465,510,o),
(504,715,c),
(462,746,o),
(365,766,o),
(317,764,c),
(293,621,o),
(279,476,o),
(279,315,cs),
(279,268,o),
(280,219,o),
(283,168,c),
(313,138,o),
(390,114,o),
(447,116,c)
);
},
{
closed = 1;
nodes = (
(216,-58,o),
(385,-51,o),
(527,-51,cs),
(582,-51,o),
(633,-52,o),
(676,-54,c),
(677,-39,o),
(678,-23,o),
(678,-7,cs),
(678,25,o),
(675,58,o),
(670,91,c),
(530,104,o),
(377,110,o),
(253,110,cs),
(176,110,o),
(110,108,o),
(67,103,c),
(66,96,o),
(66,89,o),
(66,81,cs),
(66,35,o),
(79,-34,o),
(96,-70,c)
);
},
{
closed = 1;
nodes = (
(218,349,o),
(390,356,o),
(534,356,cs),
(586,356,o),
(635,355,o),
(676,353,c),
(677,368,o),
(678,383,o),
(678,399,cs),
(678,431,o),
(675,465,o),
(670,498,c),
(531,510,o),
(379,516,o),
(256,516,cs),
(177,516,o),
(111,514,o),
(67,509,c),
(66,503,o),
(66,495,o),
(66,487,cs),
(66,442,o),
(79,373,o),
(96,337,c)
);
}
);
width = 748;
}
);
unicode = 177;
},
{
glyphname = approxequal;
lastChange = "2024-01-26 21:03:55 +0000";
layers = (
{
layerId = "CF9497EE-3EC0-42B6-AB9D-60F0E4A560B4";
name = "Bold Italic";
shapes = (
{
closed = 1;
nodes = (
(159,319,o),
(185,328,o),
(212,328,cs),
(231,328,o),
(250,324,o),
(269,315,cs),
(295,303,o),
(320,297,o),
(345,297,cs),
(419,297,o),
(486,348,o),
(516,433,c),
(489,451,o),
(464,467,o),
(426,477,c),
(411,456,o),
(390,446,o),
(366,446,cs),
(345,446,o),
(322,453,o),
(298,467,cs),
(272,482,o),
(243,489,o),
(216,489,cs),
(145,489,o),
(78,443,o),
(51,357,c),
(82,330,o),
(103,317,o),
(141,301,c)
);
},
{
closed = 1;
nodes = (
(139,93,o),
(165,102,o),
(192,102,cs),
(211,102,o),
(230,98,o),
(249,89,cs),
(275,77,o),
(300,71,o),
(325,71,cs),
(399,71,o),
(466,122,o),
(496,207,c),
(469,225,o),
(444,241,o),
(406,251,c),
(391,230,o),
(370,220,o),
(346,220,cs),
(325,220,o),
(302,227,o),
(278,241,cs),
(252,256,o),
(223,263,o),
(196,263,cs),
(125,263,o),
(58,217,o),
(31,131,c),
(62,104,o),
(83,91,o),
(121,75,c)
);
}
);
width = 541;
}
);
unicode = 8776;
},
{
glyphname = asciitilde;
lastChange = "2024-01-26 21:03:55 +0000";
layers = (
{
layerId = "CF9497EE-3EC0-42B6-AB9D-60F0E4A560B4";
name = "Bold Italic";
shapes = (
{
closed = 1;
nodes = (
(149,218,o),
(175,227,o),
(202,227,cs),
(221,227,o),
(240,223,o),
(259,214,cs),
(285,202,o),
(310,196,o),
(335,196,cs),
(409,196,o),
(476,247,o),
(506,332,c),
(479,350,o),
(454,366,o),
(416,376,c),
(401,355,o),
(380,345,o),
(356,345,cs),
(335,345,o),
(312,352,o),
(288,366,cs),
(262,381,o),
(233,388,o),
(206,388,cs),
(135,388,o),
(68,342,o),
(41,256,c),
(72,229,o),
(93,216,o),
(131,200,c)
);
}
);
width = 537;
}
);
unicode = 126;
},
{
glyphname = logicalnot;
lastChange = "2024-01-26 21:04:00 +0000";
layers = (
{
layerId = "CF9497EE-3EC0-42B6-AB9D-60F0E4A560B4";
name = "Bold Italic";
shapes = (
{
closed = 1;
nodes = (
(174,249,o),
(307,254,o),
(421,254,cs),
(465,254,o),
(506,254,o),
(540,252,c),
(543,288,o),
(544,329,o),
(552,353,c),
(418,375,o),
(278,383,o),
(173,383,cs),
(124,383,o),
(83,381,o),
(54,378,c),
(53,373,o),
(53,366,o),
(53,359,cs),
(53,322,o),
(64,268,o),
(77,239,c)
);
},
{
closed = 1;
nodes = (
(443,123,o),
(479,122,o),
(511,122,cs),
(542,122,l),
(540,142,o),
(539,166,o),
(539,190,cs),
(539,244,o),
(544,305,o),
(552,353,c),
(534,348,o),
(519,346,o),
(504,346,cs),
(484,346,o),
(465,349,o),
(444,350,c),
(418,276,o),
(415,192,o),
(416,129,c)
);
}
);
width = 595;
}
);
unicode = 172;
},
{
glyphname = asciicircum;
lastChange = "2024-01-26 21:03:55 +0000";
layers = (
{
layerId = "CF9497EE-3EC0-42B6-AB9D-60F0E4A560B4";
name = "Bold Italic";
shapes = (
{
closed = 1;
nodes = (
(380,699,o),
(331,724,o),
(284,733,c),
(219,596,o),
(135,471,o),
(51,352,c),
(82,320,o),
(140,278,o),
(191,256,c),
(257,351,o),
(369,568,o),
(410,680,c)
);
},
{
closed = 1;
nodes = (
(539,472,o),
(482,584,o),
(443,692,c),
(406,700,o),
(374,703,o),
(342,703,cs),
(330,703,o),
(317,703,o),
(305,702,c),
(335,581,o),
(405,355,o),
(445,285,c),
(494,298,o),
(565,339,o),
(602,373,c)
);
}
);
width = 629;
}
);
unicode = 94;
},
{
glyphname = emptyset;
lastChange = "2017-11-27 15:32:02 +0000";
layers = (
{
layerId = "CF9497EE-3EC0-42B6-AB9D-60F0E4A560B4";
name = "Bold Italic";
shapes = (
{
closed = 1;
nodes = (
(543,-40,o),
(654,121,o),
(654,285,cs),
(654,434,o),
(548,552,o),
(381,552,cs),
(191,552,o),
(75,404,o),
(75,216,cs),
(75,60,o),
(196,-40,o),
(364,-40,cs)
);
},
{
closed = 1;
nodes = (
(282,94,o),
(230,153,o),
(230,231,cs),
(230,337,o),
(291,419,o),
(389,419,cs),
(469,419,o),
(509,373,o),
(509,276,cs),
(509,170,o),
(469,94,o),
(374,94,cs)
);
},
{
closed = 1;
nodes = (
(285,83,o),
(511,319,o),
(710,493,c),
(687,539,o),
(643,581,o),
(606,608,c),
(401,422,o),
(167,169,o),
(10,-33,c),
(26,-66,o),
(71,-110,o),
(107,-132,c)
);
}
);
width = 724;
}
);
unicode = 8709;
},
{
glyphname = infinity;
lastChange = "2024-01-26 21:03:55 +0000";
layers = (
{
layerId = "CF9497EE-3EC0-42B6-AB9D-60F0E4A560B4";
name = "Bold Italic";
shapes = (
{
closed = 1;
nodes = (
(815,204,o),
(815,304,cs),
(815,395,o),
(755,482,o),
(637,482,cs),
(452,482,o),
(355,206,o),
(256,207,cs),
(217,208,o),
(192,233,o),
(192,288,cs),
(193,305,o),
(145,315,o),
(104,315,cs),
(73,315,o),
(46,309,o),
(46,296,cs),
(45,196,o),
(118,109,o),
(250,109,cs),
(442,109,o),
(516,363,o),
(627,362,cs),
(671,362,o),
(694,329,o),
(694,295,cs),
(694,257,o),
(666,218,o),
(609,219,cs),
(467,220,o),
(476,492,o),
(288,492,cs),
(129,492,o),
(47,400,o),
(46,296,cs),
(46,280,o),
(77,274,o),
(111,274,cs),
(150,274,o),
(192,282,o),
(192,288,cs),
(193,350,o),
(222,394,o),
(275,394,cs),
(362,394,o),
(416,100,o),
(597,100,cs),
(743,100,o)
);
}
);
width = 850;
}
);
unicode = 8734;
},
{
glyphname = integral;
lastChange = "2024-01-26 21:03:55 +0000";
layers = (
{
layerId = "CF9497EE-3EC0-42B6-AB9D-60F0E4A560B4";
name = "Bold Italic";
shapes = (
{
closed = 1;
nodes = (
(452,729,o),
(428,732,o),
(404,732,cs),
(317,732,o),
(232,692,o),
(206,595,cs),
(161,427,o),
(146,136,o),
(95,-53,cs),
(81,-104,o),
(57,-123,o),
(21,-123,cs),
(15,-123,o),
(9,-122,o),
(2,-121,c),
(-1,-133,o),
(-2,-148,o),
(-2,-163,cs),
(-2,-174,o),
(-1,-184,o),
(0,-191,c),
(12,-192,o),
(25,-193,o),
(37,-193,cs),
(145,-193,o),
(248,-141,o),
(273,-27,cs),
(318,175,o),
(339,466,o),
(385,616,cs),
(395,647,o),
(416,664,o),
(438,664,cs),
(445,664,o),
(452,662,o),
(459,659,c),
(469,671,o),
(476,693,o),
(476,712,cs),
(476,716,o),
(476,719,o),
(475,723,c)
);
}
);
width = 468;
}
);
unicode = 8747;
},
{
glyphname = product;
lastChange = "2024-01-26 21:03:55 +0000";
layers = (
{
layerId = "CF9497EE-3EC0-42B6-AB9D-60F0E4A560B4";
name = "Bold Italic";
shapes = (
{
closed = 1;
nodes = (
(279,199,o),
(302,471,o),
(340,675,c),
(299,706,o),
(201,726,o),
(154,724,c),
(127,570,o),
(108,348,o),
(108,150,cs),
(108,110,o),
(108,72,o),
(110,35,c),
(141,5,o),
(217,-20,o),
(274,-18,c)
);
},
{
closed = 1;
nodes = (
(243,575,o),
(416,583,o),
(560,583,cs),
(612,583,o),
(660,582,o),
(701,580,c),
(702,594,o),
(703,609,o),
(703,625,cs),
(703,657,o),
(700,691,o),
(694,724,c),
(553,737,o),
(400,743,o),
(277,743,cs),
(200,743,o),
(134,741,o),
(91,736,c),
(90,730,o),
(90,723,o),
(90,715,cs),
(90,669,o),
(104,601,o),
(120,563,c)
);
},
{
closed = 1;
nodes = (
(607,199,o),
(630,471,o),
(668,675,c),
(627,706,o),
(529,726,o),
(482,724,c),
(455,570,o),
(436,348,o),
(436,150,cs),
(436,110,o),
(436,72,o),
(438,35,c),
(469,5,o),
(545,-20,o),
(602,-18,c)
);
}
);
width = 706;
}
);
unicode = 8719;
},
{
glyphname = summation;
lastChange = "2024-01-26 21:03:55 +0000";
layers = (
{
layerId = "CF9497EE-3EC0-42B6-AB9D-60F0E4A560B4";
name = "Bold Italic";
shapes = (
{
closed = 1;
nodes = (
(350,494,o),
(282,570,o),
(212,683,c),
(203,692,o),
(192,696,o),
(181,696,cs),
(153,696,o),
(124,666,o),
(124,603,cs),
(124,591,o),
(125,578,o),
(127,564,c),
(167,495,o),
(221,438,o),
(336,318,c),
(369,317,o),
(423,341,o),
(455,370,c)
);
},
{
closed = 1;
nodes = (
(250,576,o),
(404,584,o),
(538,584,cs),
(586,584,o),
(631,583,o),
(672,581,c),
(673,595,o),
(674,610,o),
(674,626,cs),
(674,658,o),
(671,692,o),
(665,725,c),
(524,738,o),
(385,744,o),
(272,744,cs),
(201,744,o),
(141,742,o),
(98,737,c),
(97,731,o),
(97,724,o),
(97,716,cs),
(97,670,o),
(111,602,o),
(127,564,c)
);
},
{
closed = 1;
nodes = (
(193,-23,o),
(347,-15,o),
(481,-15,cs),
(529,-15,o),
(574,-16,o),
(615,-18,c),
(616,-4,o),
(617,11,o),
(617,27,cs),
(617,59,o),
(614,93,o),
(608,126,c),
(467,139,o),
(328,145,o),
(215,145,cs),
(144,145,o),
(84,143,o),
(41,138,c),
(40,132,o),
(40,125,o),
(40,117,cs),
(40,71,o),
(54,3,o),
(70,-35,c)
);
},
{
closed = 1;
nodes = (
(271,332,o),
(191,255,o),
(41,138,c),
(88,113,o),
(138,56,o),
(167,37,c),
(269,133,o),
(351,218,o),
(455,370,c),
(438,388,o),
(406,436,o),
(370,461,c)
);
}
);
width = 683;
}
);
unicode = 8721;
},
{
glyphname = radical;
lastChange = "2024-01-26 21:03:55 +0000";
layers = (
{
layerId = "CF9497EE-3EC0-42B6-AB9D-60F0E4A560B4";
name = "Bold Italic";
shapes = (
{
closed = 1;
nodes = (
(272,164,o),
(247,244,o),
(217,400,c),
(179,405,o),
(81,381,o),
(52,362,c),
(100,231,o),
(140,122,o),
(230,-18,c),
(247,-20,o),
(267,-21,o),
(285,-21,cs),
(305,-21,o),
(324,-20,o),
(337,-17,c)
);
},
{
closed = 1;
nodes = (
(923,611,o),
(935,697,o),
(933,740,c),
(894,745,o),
(851,747,o),
(802,747,cs),
(722,747,o),
(625,741,o),
(498,728,c),
(493,695,o),
(490,662,o),
(490,630,cs),
(490,614,o),
(491,599,o),
(492,584,c),
(529,586,o),
(564,587,o),
(600,587,cs),
(698,587,o),
(795,579,o),
(907,567,c)
);
},
{
closed = 1;
nodes = (
(429,500,o),
(309,233,o),
(223,70,c),
(243,38,o),
(309,0,o),
(337,-17,c),
(446,185,o),
(556,445,o),
(620,642,c),
(607,672,o),
(562,710,o),
(498,728,c)
);
}
);
width = 925;
}
);
unicode = 8730;
},
{
glyphname = micro;
lastChange = "2024-01-26 21:03:55 +0000";
layers = (
{
layerId = "CF9497EE-3EC0-42B6-AB9D-60F0E4A560B4";
name = "Bold Italic";
shapes = (
{
closed = 1;
nodes = (
(237,-79,o),
(264,329,o),
(292,468,c),
(252,499,o),
(127,523,o),
(74,522,c),
(52,404,o),
(37,220,o),
(37,44,cs),
(37,-55,o),
(42,-151,o),
(52,-232,c),
(113,-249,o),
(186,-250,o),
(240,-250,c)
);
},
{
closed = 1;
nodes = (
(247,34,o),
(260,20,o),
(279,20,cs),
(323,20,o),
(399,90,o),
(418,306,cs),
(422,345,o),
(433,379,o),
(433,410,cs),
(433,428,o),
(429,445,o),
(417,460,c),
(368,218,o),
(311,136,o),
(280,136,cs),
(267,136,o),
(259,152,o),
(259,176,cs),
(259,187,o),
(258,191,o),
(256,191,cs),
(250,191,o),
(237,146,o),
(237,105,cs),
(237,86,o),
(239,68,o),
(247,55,c)
);
},
{
closed = 1;
nodes = (
(597,149,o),
(615,329,o),
(643,468,c),
(603,499,o),
(478,523,o),
(425,522,c),
(394,402,o),
(377,246,o),
(377,100,cs),
(377,79,o),
(377,58,o),
(378,37,c),
(429,-8,o),
(542,-22,o),
(596,-22,c)
);
}
);
width = 665;
}
);
unicode = 181;
},
{
glyphname = partialdiff;
lastChange = "2024-01-26 21:03:55 +0000";
layers = (
{
layerId = "CF9497EE-3EC0-42B6-AB9D-60F0E4A560B4";
name = "Bold Italic";
shapes = (
{
closed = 1;
nodes = (
(448,-18,o),
(587,176,o),
(587,375,cs),
(587,542,o),
(489,712,o),
(241,773,c),
(207,760,o),
(159,717,o),
(149,690,c),
(345,616,o),
(409,482,o),
(409,366,cs),
(409,250,o),
(345,152,o),
(286,152,cs),
(248,152,o),
(232,187,o),
(232,228,cs),
(232,286,o),
(265,358,o),
(316,358,cs),
(360,358,o),
(393,331,o),
(406,286,c),
(415,298,o),
(417,315,o),
(417,333,cs),
(417,349,o),
(415,365,o),
(415,380,cs),
(415,390,o),
(415,398,o),
(417,406,c),
(399,458,o),
(346,500,o),
(285,500,cs),
(128,500,o),
(38,352,o),
(38,214,cs),
(38,94,o),
(106,-18,o),
(257,-18,cs)
);
}
);
width = 616;
}
);
unicode = 8706;
},
{
glyphname = percent;
lastChange = "2024-01-26 21:04:00 +0000";
layers = (
{
layerId = "CF9497EE-3EC0-42B6-AB9D-60F0E4A560B4";
name = "Bold Italic";
shapes = (
{
closed = 1;
nodes = (
(500,148,o),
(680,469,o),
(796,632,c),
(766,671,o),
(668,727,o),
(621,742,c),
(491,574,o),
(323,262,o),
(261,81,c),
(279,47,o),
(387,-22,o),
(434,-33,c)
);
},
{
closed = 1;
nodes = (
(367,369,o),
(434,487,o),
(434,600,cs),
(434,703,o),
(378,801,o),
(264,801,cs),
(144,801,o),
(74,674,o),
(74,558,cs),
(74,460,o),
(124,369,o),
(237,369,cs)
);
},
{
closed = 1;
nodes = (
(226,484,o),
(219,510,o),
(219,543,cs),
(219,603,o),
(242,686,o),
(267,686,cs),
(282,686,o),
(288,661,o),
(288,628,cs),
(288,568,o),
(268,484,o),
(244,484,cs)
);
},
{
closed = 1;
nodes = (
(902,-35,o),
(969,84,o),
(969,197,cs),
(969,299,o),
(914,397,o),
(799,397,cs),
(680,397,o),
(609,270,o),
(609,154,cs),
(609,55,o),
(659,-35,o),
(772,-35,cs)
);
},
{
closed = 1;
nodes = (
(774,67,o),
(766,96,o),
(766,132,cs),
(766,191,o),
(788,269,o),
(817,269,cs),
(832,269,o),
(838,244,o),
(838,212,cs),
(838,152,o),
(817,67,o),
(794,67,cs)
);
}
);
width = 1016;
}
);
unicode = 37;
},
{
glyphname = perthousand;
lastChange = "2024-01-26 21:04:00 +0000";
layers = (
{
layerId = "CF9497EE-3EC0-42B6-AB9D-60F0E4A560B4";
name = "Bold Italic";
shapes = (
{
closed = 1;
nodes = (
(500,148,o),
(680,469,o),
(796,632,c),
(766,671,o),
(668,727,o),
(621,742,c),
(491,574,o),
(323,262,o),
(261,81,c),
(279,47,o),
(387,-22,o),
(434,-33,c)
);
},
{
closed = 1;
nodes = (
(367,369,o),
(434,487,o),
(434,600,cs),
(434,703,o),
(378,801,o),
(264,801,cs),
(144,801,o),
(74,674,o),
(74,558,cs),
(74,460,o),
(124,369,o),
(237,369,cs)
);
},
{
closed = 1;
nodes = (
(226,484,o),
(219,510,o),
(219,543,cs),
(219,603,o),
(242,686,o),
(267,686,cs),
(282,686,o),
(288,661,o),
(288,628,cs),
(288,568,o),
(268,484,o),
(244,484,cs)
);
},
{
closed = 1;
nodes = (
(902,-35,o),
(969,84,o),
(969,197,cs),
(969,299,o),
(914,397,o),
(799,397,cs),
(680,397,o),
(609,270,o),
(609,154,cs),
(609,55,o),
(659,-35,o),
(772,-35,cs)
);
},
{
closed = 1;
nodes = (
(774,67,o),
(766,96,o),
(766,132,cs),
(766,191,o),
(788,269,o),
(817,269,cs),
(832,269,o),
(838,244,o),
(838,212,cs),
(838,152,o),
(817,67,o),
(794,67,cs)
);
},
{
closed = 1;
nodes = (
(1305,-49,o),
(1372,70,o),
(1372,183,cs),
(1372,285,o),
(1317,383,o),
(1202,383,cs),
(1083,383,o),
(1012,256,o),
(1012,140,cs),
(1012,41,o),
(1062,-49,o),
(1175,-49,cs)
);
},
{
closed = 1;
nodes = (
(1177,53,o),
(1169,82,o),
(1169,118,cs),
(1169,177,o),
(1191,255,o),
(1220,255,cs),
(1235,255,o),
(1241,230,o),
(1241,198,cs),
(1241,138,o),
(1220,53,o),
(1197,53,cs)
);
}
);
width = 1421;
}
);
unicode = 8240;
},
{
glyphname = upArrow;
lastChange = "2024-01-26 21:03:55 +0000";
layers = (
{
layerId = "CF9497EE-3EC0-42B6-AB9D-60F0E4A560B4";
name = "Bold Italic";
shapes = (
{
closed = 1;
nodes = (
(466,-7,o),
(463,68,o),
(463,142,cs),
(463,317,o),
(476,482,o),
(506,639,c),
(467,660,o),
(444,666,o),
(414,666,cs),
(406,666,o),
(397,666,o),
(388,665,c),
(313,468,o),
(264,184,o),
(264,-6,cs),
(264,-19,o),
(265,-31,o),
(265,-43,c),
(313,-68,o),
(396,-86,o),
(470,-84,c)
);
},
{
closed = 1;
nodes = (
(272,397,o),
(393,560,o),
(490,696,c),
(441,722,o),
(419,722,o),
(365,731,c),
(289,646,o),
(158,518,o),
(61,451,c),
(84,408,o),
(138,344,o),
(181,315,c)
);
},
{
closed = 1;
nodes = (
(629,307,o),
(695,339,o),
(731,365,c),
(650,486,o),
(589,586,o),
(528,731,c),
(505,732,o),
(482,733,o),
(458,733,cs),
(429,733,o),
(398,732,o),
(365,731,c),
(428,604,o),
(520,393,o),
(573,292,c)
);
}
);
width = 759;
}
);
unicode = 8593;
},
{
glyphname = northEastArrow;
lastChange = "2024-01-26 21:03:55 +0000";
layers = (
{
layerId = "CF9497EE-3EC0-42B6-AB9D-60F0E4A560B4";
name = "Bold Italic";
shapes = (
{
closed = 1;
nodes = (
(314,194,o),
(472,376,o),
(643,524,c),
(622,576,o),
(605,592,o),
(567,618,c),
(374,504,o),
(142,293,o),
(29,141,c),
(52,92,o),
(105,26,o),
(164,-18,c)
);
},
{
closed = 1;
nodes = (
(310,481,o),
(506,533,o),
(667,578,c),
(645,630,o),
(627,643,o),
(591,683,c),
(495,668,o),
(350,652,o),
(236,652,cs),
(215,652,o),
(196,653,o),
(178,654,c),
(175,636,o),
(173,613,o),
(173,588,cs),
(173,548,o),
(178,504,o),
(187,474,c)
);
},
{
closed = 1;
nodes = (
(661,315,o),
(675,431,o),
(718,582,c),
(681,616,o),
(649,637,o),
(591,683,c),
(561,545,o),
(501,323,o),
(480,211,c),
(532,187,o),
(604,171,o),
(648,170,c)
);
}
);
width = 723;
}
);
unicode = 8599;
},
{
glyphname = rightArrow;
lastChange = "2024-01-26 21:03:55 +0000";
layers = (
{
layerId = "CF9497EE-3EC0-42B6-AB9D-60F0E4A560B4";
name = "Bold Italic";
shapes = (
{
closed = 1;
nodes = (
(235,237,o),
(413,253,o),
(583,253,cs),
(647,253,o),
(709,251,o),
(771,246,c),
(785,278,o),
(789,299,o),
(789,321,cs),
(789,335,o),
(788,349,o),
(785,366,c),
(635,406,o),
(440,427,o),
(272,427,cs),
(196,427,o),
(126,422,o),
(68,414,c),
(54,377,o),
(45,323,o),
(45,269,cs),
(45,248,o),
(46,226,o),
(49,206,c)
);
},
{
closed = 1;
nodes = (
(587,93,o),
(693,166,o),
(831,242,c),
(831,254,o),
(830,265,o),
(830,277,cs),
(830,314,o),
(833,352,o),
(839,399,c),
(699,319,o),
(481,213,o),
(386,149,c),
(407,95,o),
(445,33,o),
(475,0,c)
);
},
{
closed = 1;
nodes = (
(823,321,o),
(826,345,o),
(839,399,c),
(746,466,o),
(628,576,o),
(550,665,c),
(510,637,o),
(452,577,o),
(428,532,c),
(519,450,o),
(658,356,o),
(802,274,c)
);
}
);
width = 872;
}
);
unicode = 8594;
},
{
glyphname = southEastArrow;
lastChange = "2024-01-26 21:03:55 +0000";
layers = (
{
layerId = "CF9497EE-3EC0-42B6-AB9D-60F0E4A560B4";
name = "Bold Italic";
shapes = (
{
closed = 1;
nodes = (
(666,48,o),
(683,66,o),
(708,103,c),
(592,295,o),
(378,524,o),
(225,635,c),
(176,613,o),
(110,557,o),
(66,498,c),
(281,350,o),
(465,195,o),
(615,26,c)
);
},
{
closed = 1;
nodes = (
(689,20,o),
(707,43,o),
(719,81,c),
(613,129,o),
(382,204,o),
(270,223,c),
(247,169,o),
(231,99,o),
(232,55,c),
(376,43,o),
(503,22,o),
(654,-18,c)
);
},
{
closed = 1;
nodes = (
(706,54,o),
(730,53,o),
(770,90,c),
(754,180,o),
(744,302,o),
(744,408,cs),
(744,434,o),
(745,459,o),
(746,482,c),
(730,484,o),
(710,486,o),
(689,486,cs),
(646,486,o),
(598,481,o),
(565,470,c),
(574,348,o),
(611,195,o),
(654,-18,c)
);
}
);
width = 827;
}
);
unicode = 8600;
},
